M48
; DRILL file {KiCad 8.0.3} date 2024-07-25T17:47:00+0200
; FORMAT={-:-/ absolute / inch / decimal}
; #@! TF.CreationDate,2024-07-25T17:47:00+02:00
; #@! TF.GenerationSoftware,Kicad,Pcbnew,8.0.3
; #@! TF.FileFunction,Plated,1,2,PTH
FMAT,2
INCH
; #@! TA.AperFunction,Plated,PTH,ViaDrill
T1C0.0118
; #@! TA.AperFunction,Plated,PTH,ComponentDrill
T2C0.0236
; #@! TA.AperFunction,Plated,PTH,ComponentDrill
T3C0.0315
; #@! TA.AperFunction,Plated,PTH,ComponentDrill
T4C0.0374
; #@! TA.AperFunction,Plated,PTH,ComponentDrill
T5C0.0394
; #@! TA.AperFunction,Plated,PTH,ComponentDrill
T6C0.0906
; #@! TA.AperFunction,Plated,PTH,ComponentDrill
T7C0.1260
%
G90
G05
T1
X3.7008Y-3.7008
X3.9842Y-2.6497
X4.0354Y-2.6575
X4.1535Y-2.6575
X4.1535Y-4.3504
X4.1535Y-4.3898
X4.2007Y-2.6456
X4.2323Y-3.248
X4.3898Y-4.2913
X4.3898Y-4.4488
X5.0Y-4.3307
X5.0197Y-4.4488
X5.1969Y-4.3701
X5.2165Y-4.4882
X5.5118Y-4.6457
X5.5906Y-3.1693
X5.7677Y-2.6378
X5.9252Y-3.1102
X5.9843Y-3.0709
X5.9843Y-3.1496
X6.1024Y-4.6457
T3
X3.7008Y-2.9299
X3.7008Y-3.0299
X3.7008Y-3.1299
T4
X3.8583Y-4.7126
X3.9567Y-4.7126
X4.0354Y-4.7126
X4.1339Y-4.7126
X4.7244Y-4.7126
X4.8228Y-4.7126
X4.9016Y-4.7126
X5.0Y-4.7126
T5
X4.5362Y-3.4055
X4.5362Y-4.2055
X4.6362Y-3.4055
X4.6362Y-4.2055
X4.7362Y-3.4055
X4.7362Y-4.2055
X4.7646Y-2.4213
X4.8362Y-3.4055
X4.8362Y-4.2055
X4.8646Y-2.4213
X4.9362Y-3.4055
X4.9362Y-4.2055
X4.9646Y-2.4213
X5.0362Y-3.4055
X5.0362Y-4.2055
X5.0646Y-2.4213
X5.1362Y-3.4055
X5.1362Y-4.2055
X5.1646Y-2.4213
X5.2362Y-3.4055
X5.2362Y-4.2055
X5.2646Y-2.4213
X5.3362Y-3.4055
X5.3362Y-4.2055
X5.3646Y-2.4213
X5.4362Y-3.4055
X5.4362Y-4.2055
X5.4646Y-2.4213
X5.5118Y-4.9606
X5.5362Y-3.4055
X5.5362Y-4.2055
X5.5646Y-2.4213
X5.6118Y-4.9606
X5.6362Y-3.4055
X5.6362Y-4.2055
X5.6646Y-2.4213
X5.7118Y-4.9606
X5.7362Y-3.4055
X5.7362Y-4.2055
X5.7646Y-2.4213
X5.8118Y-4.9606
X5.8362Y-3.4055
X5.8362Y-4.2055
X5.8646Y-2.4213
X5.9118Y-4.9606
X5.9362Y-3.4055
X5.9362Y-4.2055
X5.9646Y-2.4213
X6.0118Y-4.9606
X6.0362Y-3.4055
X6.0362Y-4.2055
X6.0646Y-2.4213
X6.1362Y-3.4055
X6.1362Y-4.2055
X6.2362Y-3.4055
X6.2362Y-4.2055
X6.3362Y-3.4055
X6.3362Y-4.2055
X6.4362Y-3.4055
X6.4362Y-4.2055
X6.5748Y-2.8724
X6.5748Y-2.9724
X6.5748Y-3.0724
X6.5748Y-3.1724
T6
X3.7374Y-4.8193
X4.2547Y-4.8193
X4.6035Y-4.8193
X5.1209Y-4.8193
T7
X3.3465Y-2.5197
X3.3465Y-4.8819
X6.4961Y-2.5197
X6.4961Y-4.8819
T2
G00X3.9223Y-2.4363
M15
G01X3.9223Y-2.4127
M16
G05
G00X3.9223Y-2.5859
M15
G01X3.9223Y-2.5623
M16
G05
G00X4.2625Y-2.4363
M15
G01X4.2625Y-2.4127
M16
G05
G00X4.2625Y-2.5859
M15
G01X4.2625Y-2.5623
M16
G05
M30
