%TF.GenerationSoftware,KiCad,Pcbnew,8.0.3*%
%TF.CreationDate,2024-07-15T12:03:27+02:00*%
%TF.ProjectId,nanoComp,6e616e6f-436f-46d7-902e-6b696361645f,A*%
%TF.SameCoordinates,Original*%
%TF.FileFunction,Copper,L2,Bot*%
%TF.FilePolarity,Positive*%
%FSLAX46Y46*%
G04 Gerber Fmt 4.6, Leading zero omitted, Abs format (unit mm)*
G04 Created by KiCad (PCBNEW 8.0.3) date 2024-07-15 12:03:27*
%MOMM*%
%LPD*%
G01*
G04 APERTURE LIST*
%TA.AperFunction,ComponentPad*%
%ADD10O,1.100000X1.700000*%
%TD*%
%TA.AperFunction,ComponentPad*%
%ADD11R,1.700000X1.700000*%
%TD*%
%TA.AperFunction,ComponentPad*%
%ADD12O,1.700000X1.700000*%
%TD*%
%TA.AperFunction,ComponentPad*%
%ADD13R,1.600000X1.500000*%
%TD*%
%TA.AperFunction,ComponentPad*%
%ADD14C,1.600000*%
%TD*%
%TA.AperFunction,ComponentPad*%
%ADD15C,3.000000*%
%TD*%
%TA.AperFunction,ComponentPad*%
%ADD16C,5.700000*%
%TD*%
%TA.AperFunction,ComponentPad*%
%ADD17R,1.500000X2.000000*%
%TD*%
%TA.AperFunction,ComponentPad*%
%ADD18O,1.600000X2.000000*%
%TD*%
%TA.AperFunction,ComponentPad*%
%ADD19R,1.500000X1.500000*%
%TD*%
%TA.AperFunction,ViaPad*%
%ADD20C,0.600000*%
%TD*%
%TA.AperFunction,Conductor*%
%ADD21C,0.400000*%
%TD*%
%TA.AperFunction,Conductor*%
%ADD22C,0.500000*%
%TD*%
%TA.AperFunction,Conductor*%
%ADD23C,0.200000*%
%TD*%
G04 APERTURE END LIST*
D10*
%TO.P,J1,S1,SHIELD*%
%TO.N,GND*%
X108267427Y-65381348D03*
X108267427Y-61581348D03*
X99627427Y-65381348D03*
X99627427Y-61581348D03*
%TD*%
D11*
%TO.P,J5,1,Pin_1*%
%TO.N,/GPIO0*%
X154040000Y-61500000D03*
D12*
%TO.P,J5,2,Pin_2*%
%TO.N,/GPIO1*%
X151500000Y-61500000D03*
%TO.P,J5,3,Pin_3*%
%TO.N,/GPIO2*%
X148960000Y-61500000D03*
%TO.P,J5,4,Pin_4*%
%TO.N,/GPIO3*%
X146420000Y-61500000D03*
%TO.P,J5,5,Pin_5*%
%TO.N,/GPIO4*%
X143880000Y-61500000D03*
%TO.P,J5,6,Pin_6*%
%TO.N,/GPIO5*%
X141340000Y-61500000D03*
%TO.P,J5,7,Pin_7*%
%TO.N,/GPIO6*%
X138800000Y-61500000D03*
%TO.P,J5,8,Pin_8*%
%TO.N,/GPIO7*%
X136260000Y-61500000D03*
%TO.P,J5,9,Pin_9*%
%TO.N,/GPIO8*%
X133720000Y-61500000D03*
%TO.P,J5,10,Pin_10*%
%TO.N,/GPIO9*%
X131180000Y-61500000D03*
%TO.P,J5,11,Pin_11*%
%TO.N,/GPIO10*%
X128640000Y-61500000D03*
%TO.P,J5,12,Pin_12*%
%TO.N,/GPIO11*%
X126100000Y-61500000D03*
%TO.P,J5,13,Pin_13*%
%TO.N,/GPIO12*%
X123560000Y-61500000D03*
%TO.P,J5,14,Pin_14*%
%TO.N,GND*%
X121020000Y-61500000D03*
%TD*%
D11*
%TO.P,J6,1,Pin_1*%
%TO.N,VCC*%
X167000000Y-72960000D03*
D12*
%TO.P,J6,2,Pin_2*%
%TO.N,GND*%
X167000000Y-75500000D03*
%TO.P,J6,3,Pin_3*%
%TO.N,3V3*%
X167000000Y-78040000D03*
%TO.P,J6,4,Pin_4*%
%TO.N,GND*%
X167000000Y-80580000D03*
%TD*%
D13*
%TO.P,J3,1,VBUS*%
%TO.N,VCC*%
X120000000Y-119700000D03*
D14*
%TO.P,J3,2,D-*%
%TO.N,/USB_B_D-*%
X122500000Y-119700000D03*
%TO.P,J3,3,D+*%
%TO.N,/USB_B_D+*%
X124500000Y-119700000D03*
%TO.P,J3,4,GND*%
%TO.N,GND*%
X127000000Y-119700000D03*
D15*
%TO.P,J3,5,Shield*%
X116930000Y-122410000D03*
X130070000Y-122410000D03*
%TD*%
D16*
%TO.P,H2,1,1*%
%TO.N,GND*%
X85000000Y-124000000D03*
%TD*%
D13*
%TO.P,J2,1,VBUS*%
%TO.N,VCC*%
X98000000Y-119700000D03*
D14*
%TO.P,J2,2,D-*%
%TO.N,/USB_A_D-*%
X100500000Y-119700000D03*
%TO.P,J2,3,D+*%
%TO.N,/USB_A_D+*%
X102500000Y-119700000D03*
%TO.P,J2,4,GND*%
%TO.N,GND*%
X105000000Y-119700000D03*
D15*
%TO.P,J2,5,Shield*%
X94930000Y-122410000D03*
X108070000Y-122410000D03*
%TD*%
D11*
%TO.P,J4,1,Pin_1*%
%TO.N,GND*%
X140000000Y-126000000D03*
D12*
%TO.P,J4,2,Pin_2*%
%TO.N,/CTS#*%
X142540000Y-126000000D03*
%TO.P,J4,3,Pin_3*%
%TO.N,Net-(J4-Pin_3)*%
X145080000Y-126000000D03*
%TO.P,J4,4,Pin_4*%
%TO.N,/TXD*%
X147620000Y-126000000D03*
%TO.P,J4,5,Pin_5*%
%TO.N,/RXD*%
X150160000Y-126000000D03*
%TO.P,J4,6,Pin_6*%
%TO.N,/RTS#*%
X152700000Y-126000000D03*
%TD*%
D16*
%TO.P,H1,1,1*%
%TO.N,GND*%
X85000000Y-64000000D03*
%TD*%
%TO.P,H3,1,1*%
%TO.N,GND*%
X165000000Y-124000000D03*
%TD*%
D17*
%TO.P,U1,1,IOT40A*%
%TO.N,/USB_A_D-*%
X115220000Y-106820000D03*
D18*
%TO.P,U1,2,IOT34B*%
%TO.N,/USB_A_D+*%
X117760000Y-106820000D03*
%TO.P,U1,3,IOT34A*%
%TO.N,/GPIO3*%
X120300000Y-106820000D03*
%TO.P,U1,4,IOT4B*%
%TO.N,unconnected-(U1-IOT4B-Pad4)*%
X122840000Y-106820000D03*
%TO.P,U1,5,IOT30A*%
%TO.N,unconnected-(U1-IOT30A-Pad5)*%
X125380000Y-106820000D03*
%TO.P,U1,6,IOL47A*%
%TO.N,unconnected-(U1-IOL47A-Pad6)*%
X127920000Y-106820000D03*
%TO.P,U1,7,IOL47B*%
%TO.N,unconnected-(U1-IOL47B-Pad7)*%
X130460000Y-106820000D03*
%TO.P,U1,8,IOB8A*%
%TO.N,/USB_B_D-*%
X133000000Y-106820000D03*
%TO.P,U1,9,IOB8B*%
%TO.N,/USB_B_D+*%
X135540000Y-106820000D03*
%TO.P,U1,10,IOB6A*%
%TO.N,/TXD*%
X138080000Y-106820000D03*
%TO.P,U1,11,IOB6B*%
%TO.N,/RXD*%
X140620000Y-106820000D03*
%TO.P,U1,12,IOB14A*%
%TO.N,/GPIO0*%
X143160000Y-106820000D03*
%TO.P,U1,13,IOB14B*%
%TO.N,/GPIO1*%
X145700000Y-106820000D03*
%TO.P,U1,14,IOB29A*%
%TO.N,/GPIO2*%
X148240000Y-106820000D03*
%TO.P,U1,15,IOL49A*%
%TO.N,unconnected-(U1-IOL49A-Pad15)*%
X150780000Y-106820000D03*
%TO.P,U1,16,IOL51B*%
%TO.N,unconnected-(U1-IOL51B-Pad16)*%
X153320000Y-106820000D03*
%TO.P,U1,17,IOL51A*%
%TO.N,unconnected-(U1-IOL51A-Pad17)*%
X155860000Y-106820000D03*
%TO.P,U1,18,IOL49B*%
%TO.N,unconnected-(U1-IOL49B-Pad18)*%
X158400000Y-106820000D03*
%TO.P,U1,19,3V3*%
%TO.N,3V3*%
X160940000Y-106820000D03*
%TO.P,U1,20,GND*%
%TO.N,GND*%
X163480000Y-106820000D03*
%TO.P,U1,21,IOR39A*%
%TO.N,/GPIO4*%
X163480000Y-86500000D03*
%TO.P,U1,22,IOR38B*%
%TO.N,/GPIO5*%
X160940000Y-86500000D03*
%TO.P,U1,23,IOT44A*%
%TO.N,/GPIO6*%
X158400000Y-86500000D03*
%TO.P,U1,24,IOT40B*%
%TO.N,/GPIO7*%
X155860000Y-86500000D03*
%TO.P,U1,25,3V3*%
%TO.N,3V3*%
X153320000Y-86500000D03*
%TO.P,U1,26,GND*%
%TO.N,GND*%
X150780000Y-86500000D03*
%TO.P,U1,27,IOT27B*%
%TO.N,unconnected-(U1-IOT27B-Pad27)*%
X148240000Y-86500000D03*
%TO.P,U1,28,IOT4A*%
%TO.N,/GPIO8*%
X145700000Y-86500000D03*
%TO.P,U1,29,IOR49A*%
%TO.N,/GPIO9*%
X143160000Y-86500000D03*
%TO.P,U1,30,IOR36B*%
%TO.N,unconnected-(U1-IOR36B-Pad30)*%
X140620000Y-86500000D03*
%TO.P,U1,31,IOR49B*%
%TO.N,/GPIO10*%
X138080000Y-86500000D03*
%TO.P,U1,32,IOR45A*%
%TO.N,unconnected-(U1-IOR45A-Pad32)*%
X135540000Y-86500000D03*
%TO.P,U1,33,IOR38A*%
%TO.N,unconnected-(U1-IOR38A-Pad33)*%
X133000000Y-86500000D03*
%TO.P,U1,34,IOR36A*%
%TO.N,unconnected-(U1-IOR36A-Pad34)*%
X130460000Y-86500000D03*
%TO.P,U1,35,IOB43A*%
%TO.N,/GPIO11*%
X127920000Y-86500000D03*
%TO.P,U1,36,IOB42B*%
%TO.N,/GPIO12*%
X125380000Y-86500000D03*
%TO.P,U1,37,IOT27A*%
%TO.N,unconnected-(U1-IOT27A-Pad37)*%
X122840000Y-86500000D03*
%TO.P,U1,38,IOT30B*%
%TO.N,unconnected-(U1-IOT30B-Pad38)*%
X120300000Y-86500000D03*
%TO.P,U1,39,GND*%
%TO.N,GND*%
X117760000Y-86500000D03*
%TO.P,U1,40,5V*%
%TO.N,VCC*%
X115220000Y-86500000D03*
%TD*%
D16*
%TO.P,H4,1,1*%
%TO.N,GND*%
X165000000Y-64000000D03*
%TD*%
D19*
%TO.P,SW1,1,B*%
%TO.N,Net-(D1-K)*%
X94000000Y-76960000D03*
D14*
%TO.P,SW1,2,C*%
%TO.N,unconnected-(SW1-C-Pad2)*%
X94000000Y-74420000D03*
%TO.P,SW1,3,A*%
%TO.N,VCC*%
X94000000Y-79500000D03*
%TD*%
D20*
%TO.N,GND*%
X101197427Y-67302573D03*
X155000000Y-118000000D03*
X140000000Y-118000000D03*
X107500000Y-82500000D03*
X94000000Y-94000000D03*
X106697427Y-67197427D03*
%TO.N,Net-(D1-A)*%
X105500000Y-67500000D03*
X102500000Y-67500000D03*
%TO.N,VCC*%
X146500000Y-67000000D03*
%TO.N,/GPIO0*%
X152000000Y-78000000D03*
%TO.N,/GPIO1*%
X150500000Y-79000000D03*
%TO.N,/GPIO3*%
X142000000Y-80500000D03*
%TO.N,/GPIO2*%
X152000000Y-80000000D03*
%TD*%
D21*
%TO.N,Net-(D1-A)*%
X102500000Y-67500000D02*
X105500000Y-67500000D01*
D22*
%TO.N,VCC*%
X115220000Y-83780000D02*
X116500000Y-82500000D01*
X146324595Y-82175405D02*
X146324595Y-67175405D01*
X116500000Y-82500000D02*
X146000000Y-82500000D01*
X146324595Y-67175405D02*
X146500000Y-67000000D01*
X146000000Y-82500000D02*
X146324595Y-82175405D01*
X115220000Y-86500000D02*
X115500000Y-86500000D01*
X115220000Y-86500000D02*
X115220000Y-83780000D01*
D23*
%TO.N,/USB_A_D+*%
X102500000Y-113000000D02*
X102500000Y-119140000D01*
X104000000Y-111500000D02*
X102500000Y-113000000D01*
X115000000Y-111500000D02*
X104000000Y-111500000D01*
X117760000Y-106820000D02*
X117760000Y-108740000D01*
X117760000Y-108740000D02*
X115000000Y-111500000D01*
%TO.N,/USB_A_D-*%
X114000000Y-110500000D02*
X115220000Y-109280000D01*
X115220000Y-109280000D02*
X115220000Y-106820000D01*
X100500000Y-119140000D02*
X100500000Y-112000000D01*
X100500000Y-112000000D02*
X102000000Y-110500000D01*
X102000000Y-110500000D02*
X114000000Y-110500000D01*
%TO.N,/USB_B_D-*%
X125500000Y-111500000D02*
X131500000Y-111500000D01*
X122500000Y-119140000D02*
X122500000Y-114500000D01*
X131500000Y-111500000D02*
X133000000Y-110000000D01*
X122500000Y-114500000D02*
X125500000Y-111500000D01*
X133000000Y-110000000D02*
X133000000Y-106820000D01*
%TO.N,/USB_B_D+*%
X126000000Y-113000000D02*
X124500000Y-114500000D01*
X124500000Y-114500000D02*
X124500000Y-119140000D01*
X135540000Y-109960000D02*
X132500000Y-113000000D01*
X132500000Y-113000000D02*
X126000000Y-113000000D01*
X135540000Y-106820000D02*
X135540000Y-109960000D01*
%TO.N,/GPIO0*%
X152000000Y-66500000D02*
X154040000Y-64460000D01*
X152000000Y-78000000D02*
X152000000Y-66500000D01*
X154040000Y-64460000D02*
X154040000Y-61500000D01*
%TO.N,/GPIO1*%
X151500000Y-64500000D02*
X151500000Y-61500000D01*
X150500000Y-79000000D02*
X150500000Y-65500000D01*
X150500000Y-65500000D02*
X151500000Y-64500000D01*
%TO.N,/GPIO3*%
X142000000Y-80000000D02*
X145000000Y-77000000D01*
X145000000Y-65340000D02*
X146420000Y-63920000D01*
X145000000Y-77000000D02*
X145000000Y-65340000D01*
X142000000Y-80500000D02*
X142000000Y-80000000D01*
X146420000Y-63920000D02*
X146420000Y-61500000D01*
%TO.N,/GPIO2*%
X152000000Y-80000000D02*
X149500000Y-80000000D01*
X149500000Y-80000000D02*
X148960000Y-79460000D01*
X148960000Y-79460000D02*
X148960000Y-61500000D01*
D22*
%TO.N,3V3*%
X153500000Y-79500000D02*
X154960000Y-78040000D01*
X153320000Y-86500000D02*
X153500000Y-86320000D01*
X154960000Y-78040000D02*
X167000000Y-78040000D01*
X153500000Y-86320000D02*
X153500000Y-79500000D01*
%TD*%
%TA.AperFunction,Conductor*%
%TO.N,GND*%
G36*
X147774855Y-62166546D02*
G01*
X147791575Y-62185842D01*
X147921281Y-62371082D01*
X147921505Y-62371401D01*
X148088599Y-62538495D01*
X148185384Y-62606265D01*
X148282165Y-62674032D01*
X148282167Y-62674033D01*
X148282170Y-62674035D01*
X148287898Y-62676706D01*
X148340339Y-62722872D01*
X148359500Y-62789090D01*
X148359500Y-79373330D01*
X148359499Y-79373348D01*
X148359499Y-79539054D01*
X148359498Y-79539054D01*
X148389354Y-79650478D01*
X148400423Y-79691785D01*
X148420577Y-79726692D01*
X148444549Y-79768213D01*
X148479479Y-79828714D01*
X148479481Y-79828717D01*
X148598349Y-79947585D01*
X148598355Y-79947590D01*
X149015139Y-80364374D01*
X149015149Y-80364385D01*
X149019479Y-80368715D01*
X149019480Y-80368716D01*
X149131284Y-80480520D01*
X149189576Y-80514174D01*
X149218095Y-80530639D01*
X149218097Y-80530641D01*
X149268213Y-80559576D01*
X149268215Y-80559577D01*
X149420942Y-80600500D01*
X149420943Y-80600500D01*
X151417588Y-80600500D01*
X151484627Y-80620185D01*
X151494903Y-80627555D01*
X151497736Y-80629814D01*
X151497738Y-80629816D01*
X151650478Y-80725789D01*
X151785379Y-80772993D01*
X151820745Y-80785368D01*
X151820750Y-80785369D01*
X151999996Y-80805565D01*
X152000000Y-80805565D01*
X152000004Y-80805565D01*
X152179249Y-80785369D01*
X152179252Y-80785368D01*
X152179255Y-80785368D01*
X152349522Y-80725789D01*
X152502262Y-80629816D01*
X152537819Y-80594259D01*
X152599142Y-80560774D01*
X152668834Y-80565758D01*
X152724767Y-80607630D01*
X152749184Y-80673094D01*
X152749500Y-80681940D01*
X152749500Y-85055111D01*
X152729815Y-85122150D01*
X152681797Y-85165595D01*
X152638386Y-85187714D01*
X152472786Y-85308028D01*
X152328028Y-85452786D01*
X152207713Y-85618388D01*
X152160203Y-85711631D01*
X152112229Y-85762426D01*
X152044407Y-85779221D01*
X151978273Y-85756683D01*
X151939234Y-85711629D01*
X151933390Y-85700161D01*
X151262962Y-86370589D01*
X151245925Y-86307007D01*
X151180099Y-86192993D01*
X151087007Y-86099901D01*
X150972993Y-86034075D01*
X150909410Y-86017037D01*
X151621760Y-85304687D01*
X151621759Y-85304686D01*
X151461349Y-85188140D01*
X151279031Y-85095244D01*
X151084417Y-85032009D01*
X150882317Y-85000000D01*
X150677683Y-85000000D01*
X150475582Y-85032009D01*
X150280968Y-85095244D01*
X150098647Y-85188142D01*
X149938239Y-85304684D01*
X149938238Y-85304686D01*
X150650590Y-86017037D01*
X150587007Y-86034075D01*
X150472993Y-86099901D01*
X150379901Y-86192993D01*
X150314075Y-86307007D01*
X150297037Y-86370590D01*
X149626607Y-85700160D01*
X149620765Y-85711628D01*
X149572791Y-85762424D01*
X149504970Y-85779220D01*
X149438835Y-85756683D01*
X149399795Y-85711629D01*
X149388990Y-85690424D01*
X149352287Y-85618390D01*
X149344556Y-85607749D01*
X149231971Y-85452786D01*
X149087213Y-85308028D01*
X148921613Y-85187715D01*
X148921612Y-85187714D01*
X148921610Y-85187713D01*
X148864653Y-85158691D01*
X148739223Y-85094781D01*
X148544534Y-85031522D01*
X148369995Y-85003878D01*
X148342352Y-84999500D01*
X148137648Y-84999500D01*
X148113329Y-85003351D01*
X147935465Y-85031522D01*
X147740776Y-85094781D01*
X147558386Y-85187715D01*
X147392786Y-85308028D01*
X147248028Y-85452786D01*
X147127715Y-85618386D01*
X147080485Y-85711080D01*
X147032510Y-85761876D01*
X146964689Y-85778671D01*
X146898554Y-85756134D01*
X146859515Y-85711080D01*
X146853951Y-85700160D01*
X146812287Y-85618390D01*
X146804556Y-85607749D01*
X146691971Y-85452786D01*
X146547213Y-85308028D01*
X146381613Y-85187715D01*
X146381612Y-85187714D01*
X146381610Y-85187713D01*
X146324653Y-85158691D01*
X146199223Y-85094781D01*
X146004534Y-85031522D01*
X145829995Y-85003878D01*
X145802352Y-84999500D01*
X145597648Y-84999500D01*
X145573329Y-85003351D01*
X145395465Y-85031522D01*
X145200776Y-85094781D01*
X145018386Y-85187715D01*
X144852786Y-85308028D01*
X144708028Y-85452786D01*
X144587715Y-85618386D01*
X144540485Y-85711080D01*
X144492510Y-85761876D01*
X144424689Y-85778671D01*
X144358554Y-85756134D01*
X144319515Y-85711080D01*
X144313951Y-85700160D01*
X144272287Y-85618390D01*
X144264556Y-85607749D01*
X144151971Y-85452786D01*
X144007213Y-85308028D01*
X143841613Y-85187715D01*
X143841612Y-85187714D01*
X143841610Y-85187713D01*
X143784653Y-85158691D01*
X143659223Y-85094781D01*
X143464534Y-85031522D01*
X143289995Y-85003878D01*
X143262352Y-84999500D01*
X143057648Y-84999500D01*
X143033329Y-85003351D01*
X142855465Y-85031522D01*
X142660776Y-85094781D01*
X142478386Y-85187715D01*
X142312786Y-85308028D01*
X142168028Y-85452786D01*
X142047715Y-85618386D01*
X142000485Y-85711080D01*
X141952510Y-85761876D01*
X141884689Y-85778671D01*
X141818554Y-85756134D01*
X141779515Y-85711080D01*
X141773951Y-85700160D01*
X141732287Y-85618390D01*
X141724556Y-85607749D01*
X141611971Y-85452786D01*
X141467213Y-85308028D01*
X141301613Y-85187715D01*
X141301612Y-85187714D01*
X141301610Y-85187713D01*
X141244653Y-85158691D01*
X141119223Y-85094781D01*
X140924534Y-85031522D01*
X140749995Y-85003878D01*
X140722352Y-84999500D01*
X140517648Y-84999500D01*
X140493329Y-85003351D01*
X140315465Y-85031522D01*
X140120776Y-85094781D01*
X139938386Y-85187715D01*
X139772786Y-85308028D01*
X139628028Y-85452786D01*
X139507715Y-85618386D01*
X139460485Y-85711080D01*
X139412510Y-85761876D01*
X139344689Y-85778671D01*
X139278554Y-85756134D01*
X139239515Y-85711080D01*
X139233951Y-85700160D01*
X139192287Y-85618390D01*
X139184556Y-85607749D01*
X139071971Y-85452786D01*
X138927213Y-85308028D01*
X138761613Y-85187715D01*
X138761612Y-85187714D01*
X138761610Y-85187713D01*
X138704653Y-85158691D01*
X138579223Y-85094781D01*
X138384534Y-85031522D01*
X138209995Y-85003878D01*
X138182352Y-84999500D01*
X137977648Y-84999500D01*
X137953329Y-85003351D01*
X137775465Y-85031522D01*
X137580776Y-85094781D01*
X137398386Y-85187715D01*
X137232786Y-85308028D01*
X137088028Y-85452786D01*
X136967715Y-85618386D01*
X136920485Y-85711080D01*
X136872510Y-85761876D01*
X136804689Y-85778671D01*
X136738554Y-85756134D01*
X136699515Y-85711080D01*
X136693951Y-85700160D01*
X136652287Y-85618390D01*
X136644556Y-85607749D01*
X136531971Y-85452786D01*
X136387213Y-85308028D01*
X136221613Y-85187715D01*
X136221612Y-85187714D01*
X136221610Y-85187713D01*
X136164653Y-85158691D01*
X136039223Y-85094781D01*
X135844534Y-85031522D01*
X135669995Y-85003878D01*
X135642352Y-84999500D01*
X135437648Y-84999500D01*
X135413329Y-85003351D01*
X135235465Y-85031522D01*
X135040776Y-85094781D01*
X134858386Y-85187715D01*
X134692786Y-85308028D01*
X134548028Y-85452786D01*
X134427715Y-85618386D01*
X134380485Y-85711080D01*
X134332510Y-85761876D01*
X134264689Y-85778671D01*
X134198554Y-85756134D01*
X134159515Y-85711080D01*
X134153951Y-85700160D01*
X134112287Y-85618390D01*
X134104556Y-85607749D01*
X133991971Y-85452786D01*
X133847213Y-85308028D01*
X133681613Y-85187715D01*
X133681612Y-85187714D01*
X133681610Y-85187713D01*
X133624653Y-85158691D01*
X133499223Y-85094781D01*
X133304534Y-85031522D01*
X133129995Y-85003878D01*
X133102352Y-84999500D01*
X132897648Y-84999500D01*
X132873329Y-85003351D01*
X132695465Y-85031522D01*
X132500776Y-85094781D01*
X132318386Y-85187715D01*
X132152786Y-85308028D01*
X132008028Y-85452786D01*
X131887715Y-85618386D01*
X131840485Y-85711080D01*
X131792510Y-85761876D01*
X131724689Y-85778671D01*
X131658554Y-85756134D01*
X131619515Y-85711080D01*
X131613951Y-85700160D01*
X131572287Y-85618390D01*
X131564556Y-85607749D01*
X131451971Y-85452786D01*
X131307213Y-85308028D01*
X131141613Y-85187715D01*
X131141612Y-85187714D01*
X131141610Y-85187713D01*
X131084653Y-85158691D01*
X130959223Y-85094781D01*
X130764534Y-85031522D01*
X130589995Y-85003878D01*
X130562352Y-84999500D01*
X130357648Y-84999500D01*
X130333329Y-85003351D01*
X130155465Y-85031522D01*
X129960776Y-85094781D01*
X129778386Y-85187715D01*
X129612786Y-85308028D01*
X129468028Y-85452786D01*
X129347715Y-85618386D01*
X129300485Y-85711080D01*
X129252510Y-85761876D01*
X129184689Y-85778671D01*
X129118554Y-85756134D01*
X129079515Y-85711080D01*
X129073951Y-85700160D01*
X129032287Y-85618390D01*
X129024556Y-85607749D01*
X128911971Y-85452786D01*
X128767213Y-85308028D01*
X128601613Y-85187715D01*
X128601612Y-85187714D01*
X128601610Y-85187713D01*
X128544653Y-85158691D01*
X128419223Y-85094781D01*
X128224534Y-85031522D01*
X128049995Y-85003878D01*
X128022352Y-84999500D01*
X127817648Y-84999500D01*
X127793329Y-85003351D01*
X127615465Y-85031522D01*
X127420776Y-85094781D01*
X127238386Y-85187715D01*
X127072786Y-85308028D01*
X126928028Y-85452786D01*
X126807715Y-85618386D01*
X126760485Y-85711080D01*
X126712510Y-85761876D01*
X126644689Y-85778671D01*
X126578554Y-85756134D01*
X126539515Y-85711080D01*
X126533951Y-85700160D01*
X126492287Y-85618390D01*
X126484556Y-85607749D01*
X126371971Y-85452786D01*
X126227213Y-85308028D01*
X126061613Y-85187715D01*
X126061612Y-85187714D01*
X126061610Y-85187713D01*
X126004653Y-85158691D01*
X125879223Y-85094781D01*
X125684534Y-85031522D01*
X125509995Y-85003878D01*
X125482352Y-84999500D01*
X125277648Y-84999500D01*
X125253329Y-85003351D01*
X125075465Y-85031522D01*
X124880776Y-85094781D01*
X124698386Y-85187715D01*
X124532786Y-85308028D01*
X124388028Y-85452786D01*
X124267715Y-85618386D01*
X124220485Y-85711080D01*
X124172510Y-85761876D01*
X124104689Y-85778671D01*
X124038554Y-85756134D01*
X123999515Y-85711080D01*
X123993951Y-85700160D01*
X123952287Y-85618390D01*
X123944556Y-85607749D01*
X123831971Y-85452786D01*
X123687213Y-85308028D01*
X123521613Y-85187715D01*
X123521612Y-85187714D01*
X123521610Y-85187713D01*
X123464653Y-85158691D01*
X123339223Y-85094781D01*
X123144534Y-85031522D01*
X122969995Y-85003878D01*
X122942352Y-84999500D01*
X122737648Y-84999500D01*
X122713329Y-85003351D01*
X122535465Y-85031522D01*
X122340776Y-85094781D01*
X122158386Y-85187715D01*
X121992786Y-85308028D01*
X121848028Y-85452786D01*
X121727715Y-85618386D01*
X121680485Y-85711080D01*
X121632510Y-85761876D01*
X121564689Y-85778671D01*
X121498554Y-85756134D01*
X121459515Y-85711080D01*
X121453951Y-85700160D01*
X121412287Y-85618390D01*
X121404556Y-85607749D01*
X121291971Y-85452786D01*
X121147213Y-85308028D01*
X120981613Y-85187715D01*
X120981612Y-85187714D01*
X120981610Y-85187713D01*
X120924653Y-85158691D01*
X120799223Y-85094781D01*
X120604534Y-85031522D01*
X120429995Y-85003878D01*
X120402352Y-84999500D01*
X120197648Y-84999500D01*
X120173329Y-85003351D01*
X119995465Y-85031522D01*
X119800776Y-85094781D01*
X119618386Y-85187715D01*
X119452786Y-85308028D01*
X119308028Y-85452786D01*
X119187713Y-85618388D01*
X119140203Y-85711631D01*
X119092229Y-85762426D01*
X119024407Y-85779221D01*
X118958273Y-85756683D01*
X118919234Y-85711629D01*
X118913390Y-85700161D01*
X118242962Y-86370589D01*
X118225925Y-86307007D01*
X118160099Y-86192993D01*
X118067007Y-86099901D01*
X117952993Y-86034075D01*
X117889410Y-86017037D01*
X118601760Y-85304687D01*
X118601759Y-85304686D01*
X118441349Y-85188140D01*
X118259031Y-85095244D01*
X118064417Y-85032009D01*
X117862317Y-85000000D01*
X117657683Y-85000000D01*
X117455582Y-85032009D01*
X117260968Y-85095244D01*
X117078647Y-85188142D01*
X116918239Y-85304684D01*
X116918238Y-85304686D01*
X117630590Y-86017037D01*
X117567007Y-86034075D01*
X117452993Y-86099901D01*
X117359901Y-86192993D01*
X117294075Y-86307007D01*
X117277037Y-86370590D01*
X116606607Y-85700160D01*
X116600765Y-85711628D01*
X116552791Y-85762424D01*
X116484970Y-85779220D01*
X116418835Y-85756683D01*
X116379795Y-85711629D01*
X116368990Y-85690424D01*
X116332287Y-85618390D01*
X116324556Y-85607749D01*
X116211971Y-85452786D01*
X116067217Y-85308032D01*
X116067212Y-85308028D01*
X116021615Y-85274900D01*
X115978949Y-85219571D01*
X115970500Y-85174582D01*
X115970500Y-84142229D01*
X115990185Y-84075190D01*
X116006819Y-84054548D01*
X116774548Y-83286819D01*
X116835871Y-83253334D01*
X116862229Y-83250500D01*
X146073920Y-83250500D01*
X146171462Y-83231096D01*
X146218913Y-83221658D01*
X146355495Y-83165084D01*
X146430577Y-83114916D01*
X146478416Y-83082952D01*
X146907547Y-82653820D01*
X146960936Y-82573917D01*
X146989679Y-82530900D01*
X147033096Y-82426082D01*
X147046254Y-82394317D01*
X147075095Y-82249322D01*
X147075095Y-82101487D01*
X147075095Y-67608345D01*
X147094780Y-67541306D01*
X147111414Y-67520664D01*
X147129816Y-67502262D01*
X147225789Y-67349522D01*
X147285368Y-67179255D01*
X147285369Y-67179249D01*
X147305565Y-67000003D01*
X147305565Y-66999996D01*
X147285369Y-66820750D01*
X147285368Y-66820745D01*
X147277934Y-66799500D01*
X147225789Y-66650478D01*
X147129816Y-66497738D01*
X147002262Y-66370184D01*
X146971233Y-66350687D01*
X146849523Y-66274211D01*
X146679254Y-66214631D01*
X146679249Y-66214630D01*
X146500004Y-66194435D01*
X146499996Y-66194435D01*
X146320750Y-66214630D01*
X146320745Y-66214631D01*
X146150476Y-66274211D01*
X145997737Y-66370184D01*
X145870184Y-66497737D01*
X145829494Y-66562496D01*
X145777159Y-66608787D01*
X145708106Y-66619435D01*
X145644257Y-66591060D01*
X145605885Y-66532670D01*
X145600500Y-66496524D01*
X145600500Y-65640096D01*
X145620185Y-65573057D01*
X145636814Y-65552419D01*
X146778506Y-64410727D01*
X146778511Y-64410724D01*
X146788714Y-64400520D01*
X146788716Y-64400520D01*
X146900520Y-64288716D01*
X146951797Y-64199902D01*
X146955674Y-64193187D01*
X146955675Y-64193185D01*
X146979574Y-64151790D01*
X146979573Y-64151790D01*
X146979577Y-64151785D01*
X147020500Y-63999058D01*
X147020500Y-63840943D01*
X147020500Y-62789090D01*
X147040185Y-62722051D01*
X147092101Y-62676706D01*
X147097830Y-62674035D01*
X147291401Y-62538495D01*
X147458495Y-62371401D01*
X147588425Y-62185842D01*
X147643002Y-62142217D01*
X147712500Y-62135023D01*
X147774855Y-62166546D01*
G37*
%TD.AperFunction*%
%TA.AperFunction,Conductor*%
G36*
X165002702Y-59500617D02*
G01*
X165386771Y-59517386D01*
X165397506Y-59518326D01*
X165775971Y-59568152D01*
X165786597Y-59570025D01*
X166159284Y-59652648D01*
X166169710Y-59655442D01*
X166533765Y-59770227D01*
X166543911Y-59773920D01*
X166896578Y-59920000D01*
X166906369Y-59924566D01*
X167244942Y-60100816D01*
X167254310Y-60106224D01*
X167576244Y-60311318D01*
X167585105Y-60317523D01*
X167887930Y-60549889D01*
X167896217Y-60556843D01*
X168177635Y-60814715D01*
X168185284Y-60822364D01*
X168443156Y-61103782D01*
X168450110Y-61112069D01*
X168682476Y-61414894D01*
X168688681Y-61423755D01*
X168893775Y-61745689D01*
X168899183Y-61755057D01*
X169075430Y-62093623D01*
X169080002Y-62103427D01*
X169226075Y-62456078D01*
X169229775Y-62466244D01*
X169344554Y-62830278D01*
X169347354Y-62840727D01*
X169429971Y-63213389D01*
X169431849Y-63224042D01*
X169481671Y-63602473D01*
X169482614Y-63613249D01*
X169499382Y-63997297D01*
X169499500Y-64002706D01*
X169499500Y-123997293D01*
X169499382Y-124002702D01*
X169482614Y-124386750D01*
X169481671Y-124397526D01*
X169431849Y-124775957D01*
X169429971Y-124786610D01*
X169347354Y-125159272D01*
X169344554Y-125169721D01*
X169229775Y-125533755D01*
X169226075Y-125543921D01*
X169080002Y-125896572D01*
X169075430Y-125906376D01*
X168899183Y-126244942D01*
X168893775Y-126254310D01*
X168688681Y-126576244D01*
X168682476Y-126585105D01*
X168450110Y-126887930D01*
X168443156Y-126896217D01*
X168185284Y-127177635D01*
X168177635Y-127185284D01*
X167896217Y-127443156D01*
X167887930Y-127450110D01*
X167585105Y-127682476D01*
X167576244Y-127688681D01*
X167254310Y-127893775D01*
X167244942Y-127899183D01*
X166906376Y-128075430D01*
X166896572Y-128080002D01*
X166543921Y-128226075D01*
X166533755Y-128229775D01*
X166169721Y-128344554D01*
X166159272Y-128347354D01*
X165786610Y-128429971D01*
X165775957Y-128431849D01*
X165397526Y-128481671D01*
X165386750Y-128482614D01*
X165002703Y-128499382D01*
X164997294Y-128499500D01*
X85002706Y-128499500D01*
X84997297Y-128499382D01*
X84613249Y-128482614D01*
X84602473Y-128481671D01*
X84224042Y-128431849D01*
X84213389Y-128429971D01*
X83840727Y-128347354D01*
X83830278Y-128344554D01*
X83466244Y-128229775D01*
X83456078Y-128226075D01*
X83103427Y-128080002D01*
X83093623Y-128075430D01*
X82755057Y-127899183D01*
X82745689Y-127893775D01*
X82423755Y-127688681D01*
X82414894Y-127682476D01*
X82112069Y-127450110D01*
X82103782Y-127443156D01*
X81822364Y-127185284D01*
X81814715Y-127177635D01*
X81556843Y-126896217D01*
X81549889Y-126887930D01*
X81317523Y-126585105D01*
X81311318Y-126576244D01*
X81106224Y-126254310D01*
X81100816Y-126244942D01*
X80924566Y-125906369D01*
X80919997Y-125896572D01*
X80850856Y-125729651D01*
X80773920Y-125543911D01*
X80770224Y-125533755D01*
X80655442Y-125169710D01*
X80652648Y-125159284D01*
X80570025Y-124786597D01*
X80568152Y-124775971D01*
X80518326Y-124397506D01*
X80517386Y-124386771D01*
X80500618Y-124002702D01*
X80500559Y-123999997D01*
X81645080Y-123999997D01*
X81645080Y-124000002D01*
X81664746Y-124362728D01*
X81723517Y-124721214D01*
X81723519Y-124721222D01*
X81820695Y-125071220D01*
X81820697Y-125071227D01*
X81955152Y-125408684D01*
X81955161Y-125408702D01*
X82125316Y-125729647D01*
X82125318Y-125729651D01*
X82329170Y-126030309D01*
X82329177Y-126030319D01*
X82460969Y-126185475D01*
X82460970Y-126185475D01*
X83705748Y-124940698D01*
X83779588Y-125042330D01*
X83957670Y-125220412D01*
X84059300Y-125294251D01*
X82811888Y-126541662D01*
X82811888Y-126541664D01*
X82828070Y-126556992D01*
X82828071Y-126556993D01*
X83117266Y-126776832D01*
X83117282Y-126776843D01*
X83428522Y-126964109D01*
X83428535Y-126964116D01*
X83758205Y-127116639D01*
X83758210Y-127116640D01*
X84102461Y-127232632D01*
X84457235Y-127310724D01*
X84818366Y-127349999D01*
X84818374Y-127350000D01*
X85181626Y-127350000D01*
X85181633Y-127349999D01*
X85542764Y-127310724D01*
X85897538Y-127232632D01*
X86241789Y-127116640D01*
X86241794Y-127116639D01*
X86571464Y-126964116D01*
X86571477Y-126964109D01*
X86882717Y-126776843D01*
X86882733Y-126776832D01*
X87171929Y-126556992D01*
X87188110Y-126541664D01*
X87188110Y-126541663D01*
X85940698Y-125294251D01*
X86042330Y-125220412D01*
X86220412Y-125042330D01*
X86294251Y-124940698D01*
X87539028Y-126185475D01*
X87539029Y-126185475D01*
X87670827Y-126030311D01*
X87670838Y-126030297D01*
X87874681Y-125729651D01*
X87874683Y-125729647D01*
X88044838Y-125408702D01*
X88044847Y-125408684D01*
X88166979Y-125102155D01*
X138650000Y-125102155D01*
X138650000Y-125750000D01*
X139566988Y-125750000D01*
X139534075Y-125807007D01*
X139500000Y-125934174D01*
X139500000Y-126065826D01*
X139534075Y-126192993D01*
X139566988Y-126250000D01*
X138650000Y-126250000D01*
X138650000Y-126897844D01*
X138656401Y-126957372D01*
X138656403Y-126957379D01*
X138706645Y-127092086D01*
X138706649Y-127092093D01*
X138792809Y-127207187D01*
X138792812Y-127207190D01*
X138907906Y-127293350D01*
X138907913Y-127293354D01*
X139042620Y-127343596D01*
X139042627Y-127343598D01*
X139102155Y-127349999D01*
X139102172Y-127350000D01*
X139750000Y-127350000D01*
X139750000Y-126433012D01*
X139807007Y-126465925D01*
X139934174Y-126500000D01*
X140065826Y-126500000D01*
X140192993Y-126465925D01*
X140250000Y-126433012D01*
X140250000Y-127350000D01*
X140897828Y-127350000D01*
X140897844Y-127349999D01*
X140957372Y-127343598D01*
X140957379Y-127343596D01*
X141092086Y-127293354D01*
X141092093Y-127293350D01*
X141207187Y-127207190D01*
X141207190Y-127207187D01*
X141293350Y-127092093D01*
X141293354Y-127092086D01*
X141342422Y-126960529D01*
X141384293Y-126904595D01*
X141449757Y-126880178D01*
X141518030Y-126895030D01*
X141546285Y-126916181D01*
X141668599Y-127038495D01*
X141745135Y-127092086D01*
X141862165Y-127174032D01*
X141862167Y-127174033D01*
X141862170Y-127174035D01*
X142076337Y-127273903D01*
X142304592Y-127335063D01*
X142475319Y-127350000D01*
X142539999Y-127355659D01*
X142540000Y-127355659D01*
X142540001Y-127355659D01*
X142604681Y-127350000D01*
X142775408Y-127335063D01*
X143003663Y-127273903D01*
X143217830Y-127174035D01*
X143411401Y-127038495D01*
X143578495Y-126871401D01*
X143708425Y-126685842D01*
X143763002Y-126642217D01*
X143832500Y-126635023D01*
X143894855Y-126666546D01*
X143911575Y-126685842D01*
X144041500Y-126871395D01*
X144041505Y-126871401D01*
X144208599Y-127038495D01*
X144285135Y-127092086D01*
X144402165Y-127174032D01*
X144402167Y-127174033D01*
X144402170Y-127174035D01*
X144616337Y-127273903D01*
X144844592Y-127335063D01*
X145015319Y-127350000D01*
X145079999Y-127355659D01*
X145080000Y-127355659D01*
X145080001Y-127355659D01*
X145144681Y-127350000D01*
X145315408Y-127335063D01*
X145543663Y-127273903D01*
X145757830Y-127174035D01*
X145951401Y-127038495D01*
X146118495Y-126871401D01*
X146248425Y-126685842D01*
X146303002Y-126642217D01*
X146372500Y-126635023D01*
X146434855Y-126666546D01*
X146451575Y-126685842D01*
X146581500Y-126871395D01*
X146581505Y-126871401D01*
X146748599Y-127038495D01*
X146825135Y-127092086D01*
X146942165Y-127174032D01*
X146942167Y-127174033D01*
X146942170Y-127174035D01*
X147156337Y-127273903D01*
X147384592Y-127335063D01*
X147555319Y-127350000D01*
X147619999Y-127355659D01*
X147620000Y-127355659D01*
X147620001Y-127355659D01*
X147684681Y-127350000D01*
X147855408Y-127335063D01*
X148083663Y-127273903D01*
X148297830Y-127174035D01*
X148491401Y-127038495D01*
X148658495Y-126871401D01*
X148788425Y-126685842D01*
X148843002Y-126642217D01*
X148912500Y-126635023D01*
X148974855Y-126666546D01*
X148991575Y-126685842D01*
X149121500Y-126871395D01*
X149121505Y-126871401D01*
X149288599Y-127038495D01*
X149365135Y-127092086D01*
X149482165Y-127174032D01*
X149482167Y-127174033D01*
X149482170Y-127174035D01*
X149696337Y-127273903D01*
X149924592Y-127335063D01*
X150095319Y-127350000D01*
X150159999Y-127355659D01*
X150160000Y-127355659D01*
X150160001Y-127355659D01*
X150224681Y-127350000D01*
X150395408Y-127335063D01*
X150623663Y-127273903D01*
X150837830Y-127174035D01*
X151031401Y-127038495D01*
X151198495Y-126871401D01*
X151328425Y-126685842D01*
X151383002Y-126642217D01*
X151452500Y-126635023D01*
X151514855Y-126666546D01*
X151531575Y-126685842D01*
X151661500Y-126871395D01*
X151661505Y-126871401D01*
X151828599Y-127038495D01*
X151905135Y-127092086D01*
X152022165Y-127174032D01*
X152022167Y-127174033D01*
X152022170Y-127174035D01*
X152236337Y-127273903D01*
X152464592Y-127335063D01*
X152635319Y-127350000D01*
X152699999Y-127355659D01*
X152700000Y-127355659D01*
X152700001Y-127355659D01*
X152764681Y-127350000D01*
X152935408Y-127335063D01*
X153163663Y-127273903D01*
X153377830Y-127174035D01*
X153571401Y-127038495D01*
X153738495Y-126871401D01*
X153874035Y-126677830D01*
X153973903Y-126463663D01*
X154035063Y-126235408D01*
X154055659Y-126000000D01*
X154035063Y-125764592D01*
X153973903Y-125536337D01*
X153874035Y-125322171D01*
X153868425Y-125314158D01*
X153738494Y-125128597D01*
X153571402Y-124961506D01*
X153571395Y-124961501D01*
X153377834Y-124825967D01*
X153377830Y-124825965D01*
X153282110Y-124781330D01*
X153163663Y-124726097D01*
X153163659Y-124726096D01*
X153163655Y-124726094D01*
X152935413Y-124664938D01*
X152935403Y-124664936D01*
X152700001Y-124644341D01*
X152699999Y-124644341D01*
X152464596Y-124664936D01*
X152464586Y-124664938D01*
X152236344Y-124726094D01*
X152236335Y-124726098D01*
X152022171Y-124825964D01*
X152022169Y-124825965D01*
X151828597Y-124961505D01*
X151661505Y-125128597D01*
X151531575Y-125314158D01*
X151476998Y-125357783D01*
X151407500Y-125364977D01*
X151345145Y-125333454D01*
X151328425Y-125314158D01*
X151198494Y-125128597D01*
X151031402Y-124961506D01*
X151031395Y-124961501D01*
X150837834Y-124825967D01*
X150837830Y-124825965D01*
X150742110Y-124781330D01*
X150623663Y-124726097D01*
X150623659Y-124726096D01*
X150623655Y-124726094D01*
X150395413Y-124664938D01*
X150395403Y-124664936D01*
X150160001Y-124644341D01*
X150159999Y-124644341D01*
X149924596Y-124664936D01*
X149924586Y-124664938D01*
X149696344Y-124726094D01*
X149696335Y-124726098D01*
X149482171Y-124825964D01*
X149482169Y-124825965D01*
X149288597Y-124961505D01*
X149121505Y-125128597D01*
X148991575Y-125314158D01*
X148936998Y-125357783D01*
X148867500Y-125364977D01*
X148805145Y-125333454D01*
X148788425Y-125314158D01*
X148658494Y-125128597D01*
X148491402Y-124961506D01*
X148491395Y-124961501D01*
X148297834Y-124825967D01*
X148297830Y-124825965D01*
X148202110Y-124781330D01*
X148083663Y-124726097D01*
X148083659Y-124726096D01*
X148083655Y-124726094D01*
X147855413Y-124664938D01*
X147855403Y-124664936D01*
X147620001Y-124644341D01*
X147619999Y-124644341D01*
X147384596Y-124664936D01*
X147384586Y-124664938D01*
X147156344Y-124726094D01*
X147156335Y-124726098D01*
X146942171Y-124825964D01*
X146942169Y-124825965D01*
X146748597Y-124961505D01*
X146581505Y-125128597D01*
X146451575Y-125314158D01*
X146396998Y-125357783D01*
X146327500Y-125364977D01*
X146265145Y-125333454D01*
X146248425Y-125314158D01*
X146118494Y-125128597D01*
X145951402Y-124961506D01*
X145951395Y-124961501D01*
X145757834Y-124825967D01*
X145757830Y-124825965D01*
X145662110Y-124781330D01*
X145543663Y-124726097D01*
X145543659Y-124726096D01*
X145543655Y-124726094D01*
X145315413Y-124664938D01*
X145315403Y-124664936D01*
X145080001Y-124644341D01*
X145079999Y-124644341D01*
X144844596Y-124664936D01*
X144844586Y-124664938D01*
X144616344Y-124726094D01*
X144616335Y-124726098D01*
X144402171Y-124825964D01*
X144402169Y-124825965D01*
X144208597Y-124961505D01*
X144041505Y-125128597D01*
X143911575Y-125314158D01*
X143856998Y-125357783D01*
X143787500Y-125364977D01*
X143725145Y-125333454D01*
X143708425Y-125314158D01*
X143578494Y-125128597D01*
X143411402Y-124961506D01*
X143411395Y-124961501D01*
X143217834Y-124825967D01*
X143217830Y-124825965D01*
X143122110Y-124781330D01*
X143003663Y-124726097D01*
X143003659Y-124726096D01*
X143003655Y-124726094D01*
X142775413Y-124664938D01*
X142775403Y-124664936D01*
X142540001Y-124644341D01*
X142539999Y-124644341D01*
X142304596Y-124664936D01*
X142304586Y-124664938D01*
X142076344Y-124726094D01*
X142076335Y-124726098D01*
X141862171Y-124825964D01*
X141862169Y-124825965D01*
X141668600Y-124961503D01*
X141546284Y-125083819D01*
X141484961Y-125117303D01*
X141415269Y-125112319D01*
X141359336Y-125070447D01*
X141342421Y-125039470D01*
X141293354Y-124907913D01*
X141293350Y-124907906D01*
X141207190Y-124792812D01*
X141207187Y-124792809D01*
X141092093Y-124706649D01*
X141092086Y-124706645D01*
X140957379Y-124656403D01*
X140957372Y-124656401D01*
X140897844Y-124650000D01*
X140250000Y-124650000D01*
X140250000Y-125566988D01*
X140192993Y-125534075D01*
X140065826Y-125500000D01*
X139934174Y-125500000D01*
X139807007Y-125534075D01*
X139750000Y-125566988D01*
X139750000Y-124650000D01*
X139102155Y-124650000D01*
X139042627Y-124656401D01*
X139042620Y-124656403D01*
X138907913Y-124706645D01*
X138907906Y-124706649D01*
X138792812Y-124792809D01*
X138792809Y-124792812D01*
X138706649Y-124907906D01*
X138706645Y-124907913D01*
X138656403Y-125042620D01*
X138656401Y-125042627D01*
X138650000Y-125102155D01*
X88166979Y-125102155D01*
X88179302Y-125071227D01*
X88179304Y-125071220D01*
X88276480Y-124721222D01*
X88276482Y-124721214D01*
X88335253Y-124362728D01*
X88354920Y-124000002D01*
X88354920Y-123999997D01*
X88335253Y-123637271D01*
X88276482Y-123278785D01*
X88276480Y-123278777D01*
X88179304Y-122928779D01*
X88179302Y-122928772D01*
X88044847Y-122591315D01*
X88044838Y-122591297D01*
X87948719Y-122409998D01*
X92924891Y-122409998D01*
X92924891Y-122410001D01*
X92945300Y-122695362D01*
X93006109Y-122974895D01*
X93106091Y-123242958D01*
X93243191Y-123494038D01*
X93243196Y-123494046D01*
X93349882Y-123636561D01*
X93349883Y-123636562D01*
X93957912Y-123028532D01*
X94052829Y-123159175D01*
X94180825Y-123287171D01*
X94311465Y-123382086D01*
X93703436Y-123990115D01*
X93845960Y-124096807D01*
X93845961Y-124096808D01*
X94097042Y-124233908D01*
X94097041Y-124233908D01*
X94365104Y-124333890D01*
X94644637Y-124394699D01*
X94929999Y-124415109D01*
X94930001Y-124415109D01*
X95215362Y-124394699D01*
X95494895Y-124333890D01*
X95762958Y-124233908D01*
X96014047Y-124096803D01*
X96156561Y-123990116D01*
X96156562Y-123990115D01*
X95548534Y-123382086D01*
X95679175Y-123287171D01*
X95807171Y-123159175D01*
X95902086Y-123028533D01*
X96510115Y-123636562D01*
X96510116Y-123636561D01*
X96616803Y-123494047D01*
X96753908Y-123242958D01*
X96853890Y-122974895D01*
X96914699Y-122695362D01*
X96935109Y-122410001D01*
X96935109Y-122409998D01*
X106064891Y-122409998D01*
X106064891Y-122410001D01*
X106085300Y-122695362D01*
X106146109Y-122974895D01*
X106246091Y-123242958D01*
X106383191Y-123494038D01*
X106383196Y-123494046D01*
X106489882Y-123636561D01*
X106489883Y-123636562D01*
X107097912Y-123028532D01*
X107192829Y-123159175D01*
X107320825Y-123287171D01*
X107451465Y-123382086D01*
X106843436Y-123990115D01*
X106985960Y-124096807D01*
X106985961Y-124096808D01*
X107237042Y-124233908D01*
X107237041Y-124233908D01*
X107505104Y-124333890D01*
X107784637Y-124394699D01*
X108069999Y-124415109D01*
X108070001Y-124415109D01*
X108355362Y-124394699D01*
X108634895Y-124333890D01*
X108902958Y-124233908D01*
X109154047Y-124096803D01*
X109296561Y-123990116D01*
X109296562Y-123990115D01*
X108688534Y-123382086D01*
X108819175Y-123287171D01*
X108947171Y-123159175D01*
X109042086Y-123028533D01*
X109650115Y-123636562D01*
X109650116Y-123636561D01*
X109756803Y-123494047D01*
X109893908Y-123242958D01*
X109993890Y-122974895D01*
X110054699Y-122695362D01*
X110075109Y-122410001D01*
X110075109Y-122409998D01*
X114924891Y-122409998D01*
X114924891Y-122410001D01*
X114945300Y-122695362D01*
X115006109Y-122974895D01*
X115106091Y-123242958D01*
X115243191Y-123494038D01*
X115243196Y-123494046D01*
X115349882Y-123636561D01*
X115349883Y-123636562D01*
X115957912Y-123028532D01*
X116052829Y-123159175D01*
X116180825Y-123287171D01*
X116311465Y-123382086D01*
X115703436Y-123990115D01*
X115845960Y-124096807D01*
X115845961Y-124096808D01*
X116097042Y-124233908D01*
X116097041Y-124233908D01*
X116365104Y-124333890D01*
X116644637Y-124394699D01*
X116929999Y-124415109D01*
X116930001Y-124415109D01*
X117215362Y-124394699D01*
X117494895Y-124333890D01*
X117762958Y-124233908D01*
X118014047Y-124096803D01*
X118156561Y-123990116D01*
X118156562Y-123990115D01*
X117548534Y-123382086D01*
X117679175Y-123287171D01*
X117807171Y-123159175D01*
X117902086Y-123028533D01*
X118510115Y-123636562D01*
X118510116Y-123636561D01*
X118616803Y-123494047D01*
X118753908Y-123242958D01*
X118853890Y-122974895D01*
X118914699Y-122695362D01*
X118935109Y-122410001D01*
X118935109Y-122409998D01*
X128064891Y-122409998D01*
X128064891Y-122410001D01*
X128085300Y-122695362D01*
X128146109Y-122974895D01*
X128246091Y-123242958D01*
X128383191Y-123494038D01*
X128383196Y-123494046D01*
X128489882Y-123636561D01*
X128489883Y-123636562D01*
X129097912Y-123028532D01*
X129192829Y-123159175D01*
X129320825Y-123287171D01*
X129451465Y-123382086D01*
X128843436Y-123990115D01*
X128985960Y-124096807D01*
X128985961Y-124096808D01*
X129237042Y-124233908D01*
X129237041Y-124233908D01*
X129505104Y-124333890D01*
X129784637Y-124394699D01*
X130069999Y-124415109D01*
X130070001Y-124415109D01*
X130355362Y-124394699D01*
X130634895Y-124333890D01*
X130902958Y-124233908D01*
X131154047Y-124096803D01*
X131283362Y-123999997D01*
X161645080Y-123999997D01*
X161645080Y-124000002D01*
X161664746Y-124362728D01*
X161723517Y-124721214D01*
X161723519Y-124721222D01*
X161820695Y-125071220D01*
X161820697Y-125071227D01*
X161955152Y-125408684D01*
X161955161Y-125408702D01*
X162125316Y-125729647D01*
X162125318Y-125729651D01*
X162329170Y-126030309D01*
X162329177Y-126030319D01*
X162460969Y-126185475D01*
X162460970Y-126185475D01*
X163705748Y-124940698D01*
X163779588Y-125042330D01*
X163957670Y-125220412D01*
X164059300Y-125294251D01*
X162811888Y-126541662D01*
X162811888Y-126541664D01*
X162828070Y-126556992D01*
X162828071Y-126556993D01*
X163117266Y-126776832D01*
X163117282Y-126776843D01*
X163428522Y-126964109D01*
X163428535Y-126964116D01*
X163758205Y-127116639D01*
X163758210Y-127116640D01*
X164102461Y-127232632D01*
X164457235Y-127310724D01*
X164818366Y-127349999D01*
X164818374Y-127350000D01*
X165181626Y-127350000D01*
X165181633Y-127349999D01*
X165542764Y-127310724D01*
X165897538Y-127232632D01*
X166241789Y-127116640D01*
X166241794Y-127116639D01*
X166571464Y-126964116D01*
X166571477Y-126964109D01*
X166882717Y-126776843D01*
X166882733Y-126776832D01*
X167171929Y-126556992D01*
X167188110Y-126541664D01*
X167188110Y-126541663D01*
X165940698Y-125294251D01*
X166042330Y-125220412D01*
X166220412Y-125042330D01*
X166294251Y-124940698D01*
X167539028Y-126185475D01*
X167539029Y-126185475D01*
X167670827Y-126030311D01*
X167670838Y-126030297D01*
X167874681Y-125729651D01*
X167874683Y-125729647D01*
X168044838Y-125408702D01*
X168044847Y-125408684D01*
X168179302Y-125071227D01*
X168179304Y-125071220D01*
X168276480Y-124721222D01*
X168276482Y-124721214D01*
X168335253Y-124362728D01*
X168354920Y-124000002D01*
X168354920Y-123999997D01*
X168335253Y-123637271D01*
X168276482Y-123278785D01*
X168276480Y-123278777D01*
X168179304Y-122928779D01*
X168179302Y-122928772D01*
X168044847Y-122591315D01*
X168044838Y-122591297D01*
X167874683Y-122270352D01*
X167874681Y-122270348D01*
X167670829Y-121969690D01*
X167670822Y-121969680D01*
X167539029Y-121814523D01*
X167539028Y-121814523D01*
X166294251Y-123059300D01*
X166220412Y-122957670D01*
X166042330Y-122779588D01*
X165940698Y-122705748D01*
X167188110Y-121458336D01*
X167188110Y-121458334D01*
X167171929Y-121443007D01*
X167171928Y-121443006D01*
X166882733Y-121223167D01*
X166882717Y-121223156D01*
X166571477Y-121035890D01*
X166571464Y-121035883D01*
X166241794Y-120883360D01*
X166241789Y-120883359D01*
X165897538Y-120767367D01*
X165542764Y-120689275D01*
X165181633Y-120650000D01*
X164818366Y-120650000D01*
X164457235Y-120689275D01*
X164102461Y-120767367D01*
X163758210Y-120883359D01*
X163758205Y-120883360D01*
X163428535Y-121035883D01*
X163428522Y-121035890D01*
X163117282Y-121223156D01*
X163117266Y-121223167D01*
X162828075Y-121443002D01*
X162811888Y-121458335D01*
X162811887Y-121458335D01*
X164059301Y-122705748D01*
X163957670Y-122779588D01*
X163779588Y-122957670D01*
X163705748Y-123059300D01*
X162460970Y-121814522D01*
X162460969Y-121814523D01*
X162329177Y-121969680D01*
X162329170Y-121969690D01*
X162125318Y-122270348D01*
X162125316Y-122270352D01*
X161955161Y-122591297D01*
X161955152Y-122591315D01*
X161820697Y-122928772D01*
X161820695Y-122928779D01*
X161723519Y-123278777D01*
X161723517Y-123278785D01*
X161664746Y-123637271D01*
X161645080Y-123999997D01*
X131283362Y-123999997D01*
X131296561Y-123990116D01*
X131296562Y-123990115D01*
X130688534Y-123382086D01*
X130819175Y-123287171D01*
X130947171Y-123159175D01*
X131042086Y-123028533D01*
X131650115Y-123636562D01*
X131650116Y-123636561D01*
X131756803Y-123494047D01*
X131893908Y-123242958D01*
X131993890Y-122974895D01*
X132054699Y-122695362D01*
X132075109Y-122410001D01*
X132075109Y-122409998D01*
X132054699Y-122124637D01*
X131993890Y-121845104D01*
X131893908Y-121577041D01*
X131756808Y-121325961D01*
X131756807Y-121325960D01*
X131650115Y-121183436D01*
X131042086Y-121791465D01*
X130947171Y-121660825D01*
X130819175Y-121532829D01*
X130688533Y-121437912D01*
X131296562Y-120829883D01*
X131296561Y-120829882D01*
X131154046Y-120723196D01*
X131154038Y-120723191D01*
X130902957Y-120586091D01*
X130902958Y-120586091D01*
X130634895Y-120486109D01*
X130355362Y-120425300D01*
X130070001Y-120404891D01*
X130069999Y-120404891D01*
X129784637Y-120425300D01*
X129505104Y-120486109D01*
X129237041Y-120586091D01*
X128985961Y-120723191D01*
X128985953Y-120723196D01*
X128843437Y-120829882D01*
X128843436Y-120829883D01*
X129451466Y-121437913D01*
X129320825Y-121532829D01*
X129192829Y-121660825D01*
X129097913Y-121791466D01*
X128489883Y-121183436D01*
X128489882Y-121183437D01*
X128383196Y-121325953D01*
X128383191Y-121325961D01*
X128246091Y-121577041D01*
X128146109Y-121845104D01*
X128085300Y-122124637D01*
X128064891Y-122409998D01*
X118935109Y-122409998D01*
X118914699Y-122124637D01*
X118853890Y-121845104D01*
X118753908Y-121577041D01*
X118616808Y-121325961D01*
X118616807Y-121325960D01*
X118510115Y-121183436D01*
X117902086Y-121791465D01*
X117807171Y-121660825D01*
X117679175Y-121532829D01*
X117548533Y-121437912D01*
X118156562Y-120829883D01*
X118156561Y-120829882D01*
X118014046Y-120723196D01*
X118014038Y-120723191D01*
X117762957Y-120586091D01*
X117762958Y-120586091D01*
X117494895Y-120486109D01*
X117215362Y-120425300D01*
X116930001Y-120404891D01*
X116929999Y-120404891D01*
X116644637Y-120425300D01*
X116365104Y-120486109D01*
X116097041Y-120586091D01*
X115845961Y-120723191D01*
X115845953Y-120723196D01*
X115703437Y-120829882D01*
X115703436Y-120829883D01*
X116311466Y-121437913D01*
X116180825Y-121532829D01*
X116052829Y-121660825D01*
X115957913Y-121791466D01*
X115349883Y-121183436D01*
X115349882Y-121183437D01*
X115243196Y-121325953D01*
X115243191Y-121325961D01*
X115106091Y-121577041D01*
X115006109Y-121845104D01*
X114945300Y-122124637D01*
X114924891Y-122409998D01*
X110075109Y-122409998D01*
X110054699Y-122124637D01*
X109993890Y-121845104D01*
X109893908Y-121577041D01*
X109756808Y-121325961D01*
X109756807Y-121325960D01*
X109650115Y-121183436D01*
X109042086Y-121791465D01*
X108947171Y-121660825D01*
X108819175Y-121532829D01*
X108688533Y-121437912D01*
X109296562Y-120829883D01*
X109296561Y-120829882D01*
X109154046Y-120723196D01*
X109154038Y-120723191D01*
X108902957Y-120586091D01*
X108902958Y-120586091D01*
X108634895Y-120486109D01*
X108355362Y-120425300D01*
X108070001Y-120404891D01*
X108069999Y-120404891D01*
X107784637Y-120425300D01*
X107505104Y-120486109D01*
X107237041Y-120586091D01*
X106985961Y-120723191D01*
X106985953Y-120723196D01*
X106843437Y-120829882D01*
X106843436Y-120829883D01*
X107451466Y-121437913D01*
X107320825Y-121532829D01*
X107192829Y-121660825D01*
X107097913Y-121791466D01*
X106489883Y-121183436D01*
X106489882Y-121183437D01*
X106383196Y-121325953D01*
X106383191Y-121325961D01*
X106246091Y-121577041D01*
X106146109Y-121845104D01*
X106085300Y-122124637D01*
X106064891Y-122409998D01*
X96935109Y-122409998D01*
X96914699Y-122124637D01*
X96853890Y-121845104D01*
X96753908Y-121577041D01*
X96616808Y-121325961D01*
X96616807Y-121325960D01*
X96510115Y-121183436D01*
X95902086Y-121791465D01*
X95807171Y-121660825D01*
X95679175Y-121532829D01*
X95548533Y-121437912D01*
X96156562Y-120829883D01*
X96156561Y-120829882D01*
X96014046Y-120723196D01*
X96014038Y-120723191D01*
X95762957Y-120586091D01*
X95762958Y-120586091D01*
X95494895Y-120486109D01*
X95215362Y-120425300D01*
X94930001Y-120404891D01*
X94929999Y-120404891D01*
X94644637Y-120425300D01*
X94365104Y-120486109D01*
X94097041Y-120586091D01*
X93845961Y-120723191D01*
X93845953Y-120723196D01*
X93703437Y-120829882D01*
X93703436Y-120829883D01*
X94311466Y-121437913D01*
X94180825Y-121532829D01*
X94052829Y-121660825D01*
X93957913Y-121791466D01*
X93349883Y-121183436D01*
X93349882Y-121183437D01*
X93243196Y-121325953D01*
X93243191Y-121325961D01*
X93106091Y-121577041D01*
X93006109Y-121845104D01*
X92945300Y-122124637D01*
X92924891Y-122409998D01*
X87948719Y-122409998D01*
X87874683Y-122270352D01*
X87874681Y-122270348D01*
X87670829Y-121969690D01*
X87670822Y-121969680D01*
X87539029Y-121814523D01*
X87539028Y-121814523D01*
X86294251Y-123059300D01*
X86220412Y-122957670D01*
X86042330Y-122779588D01*
X85940698Y-122705748D01*
X87188110Y-121458336D01*
X87188110Y-121458334D01*
X87171929Y-121443007D01*
X87171928Y-121443006D01*
X86882733Y-121223167D01*
X86882717Y-121223156D01*
X86571477Y-121035890D01*
X86571464Y-121035883D01*
X86241794Y-120883360D01*
X86241789Y-120883359D01*
X85897538Y-120767367D01*
X85542764Y-120689275D01*
X85181633Y-120650000D01*
X84818366Y-120650000D01*
X84457235Y-120689275D01*
X84102461Y-120767367D01*
X83758210Y-120883359D01*
X83758205Y-120883360D01*
X83428535Y-121035883D01*
X83428522Y-121035890D01*
X83117282Y-121223156D01*
X83117266Y-121223167D01*
X82828075Y-121443002D01*
X82811888Y-121458335D01*
X82811887Y-121458335D01*
X84059301Y-122705748D01*
X83957670Y-122779588D01*
X83779588Y-122957670D01*
X83705748Y-123059300D01*
X82460970Y-121814522D01*
X82460969Y-121814523D01*
X82329177Y-121969680D01*
X82329170Y-121969690D01*
X82125318Y-122270348D01*
X82125316Y-122270352D01*
X81955161Y-122591297D01*
X81955152Y-122591315D01*
X81820697Y-122928772D01*
X81820695Y-122928779D01*
X81723519Y-123278777D01*
X81723517Y-123278785D01*
X81664746Y-123637271D01*
X81645080Y-123999997D01*
X80500559Y-123999997D01*
X80500500Y-123997293D01*
X80500500Y-118902135D01*
X96699500Y-118902135D01*
X96699500Y-120497870D01*
X96699501Y-120497876D01*
X96705908Y-120557483D01*
X96756202Y-120692328D01*
X96756206Y-120692335D01*
X96842452Y-120807544D01*
X96842455Y-120807547D01*
X96957664Y-120893793D01*
X96957671Y-120893797D01*
X97092517Y-120944091D01*
X97092516Y-120944091D01*
X97099444Y-120944835D01*
X97152127Y-120950500D01*
X98847872Y-120950499D01*
X98907483Y-120944091D01*
X99042331Y-120893796D01*
X99157546Y-120807546D01*
X99243796Y-120692331D01*
X99259585Y-120650000D01*
X99287802Y-120574345D01*
X99329673Y-120518411D01*
X99395137Y-120493993D01*
X99463410Y-120508844D01*
X99495943Y-120535491D01*
X99496124Y-120535311D01*
X99497941Y-120537128D01*
X99498981Y-120537980D01*
X99499960Y-120539147D01*
X99660858Y-120700045D01*
X99660861Y-120700047D01*
X99847266Y-120830568D01*
X100053504Y-120926739D01*
X100273308Y-120985635D01*
X100435230Y-120999801D01*
X100499998Y-121005468D01*
X100500000Y-121005468D01*
X100500002Y-121005468D01*
X100556673Y-121000509D01*
X100726692Y-120985635D01*
X100946496Y-120926739D01*
X101152734Y-120830568D01*
X101339139Y-120700047D01*
X101412320Y-120626865D01*
X101473641Y-120593382D01*
X101543333Y-120598366D01*
X101587679Y-120626865D01*
X101660861Y-120700047D01*
X101847266Y-120830568D01*
X102053504Y-120926739D01*
X102273308Y-120985635D01*
X102435230Y-120999801D01*
X102499998Y-121005468D01*
X102500000Y-121005468D01*
X102500002Y-121005468D01*
X102556673Y-121000509D01*
X102726692Y-120985635D01*
X102946496Y-120926739D01*
X103152734Y-120830568D01*
X103339139Y-120700047D01*
X103500047Y-120539139D01*
X103630568Y-120352734D01*
X103637893Y-120337024D01*
X103684064Y-120284586D01*
X103751257Y-120265433D01*
X103818138Y-120285648D01*
X103862657Y-120337024D01*
X103869864Y-120352480D01*
X103920974Y-120425472D01*
X104537449Y-119808997D01*
X104557370Y-119883343D01*
X104619905Y-119991657D01*
X104708343Y-120080095D01*
X104816657Y-120142630D01*
X104891002Y-120162550D01*
X104274526Y-120779025D01*
X104347513Y-120830132D01*
X104347521Y-120830136D01*
X104553668Y-120926264D01*
X104553682Y-120926269D01*
X104773389Y-120985139D01*
X104773400Y-120985141D01*
X104999998Y-121004966D01*
X105000002Y-121004966D01*
X105226599Y-120985141D01*
X105226610Y-120985139D01*
X105446317Y-120926269D01*
X105446331Y-120926264D01*
X105652478Y-120830136D01*
X105725471Y-120779024D01*
X105108997Y-120162550D01*
X105183343Y-120142630D01*
X105291657Y-120080095D01*
X105380095Y-119991657D01*
X105442630Y-119883343D01*
X105462550Y-119808997D01*
X106079024Y-120425471D01*
X106130136Y-120352478D01*
X106226264Y-120146331D01*
X106226269Y-120146317D01*
X106285139Y-119926610D01*
X106285141Y-119926599D01*
X106304966Y-119700002D01*
X106304966Y-119699997D01*
X106285141Y-119473400D01*
X106285139Y-119473389D01*
X106226269Y-119253682D01*
X106226264Y-119253668D01*
X106130136Y-119047521D01*
X106130132Y-119047513D01*
X106079025Y-118974526D01*
X105462550Y-119591001D01*
X105442630Y-119516657D01*
X105380095Y-119408343D01*
X105291657Y-119319905D01*
X105183343Y-119257370D01*
X105108998Y-119237449D01*
X105725472Y-118620974D01*
X105652478Y-118569863D01*
X105446331Y-118473735D01*
X105446317Y-118473730D01*
X105226610Y-118414860D01*
X105226599Y-118414858D01*
X105000002Y-118395034D01*
X104999998Y-118395034D01*
X104773400Y-118414858D01*
X104773389Y-118414860D01*
X104553682Y-118473730D01*
X104553673Y-118473734D01*
X104347516Y-118569866D01*
X104347512Y-118569868D01*
X104274526Y-118620973D01*
X104274526Y-118620974D01*
X104891002Y-119237449D01*
X104816657Y-119257370D01*
X104708343Y-119319905D01*
X104619905Y-119408343D01*
X104557370Y-119516657D01*
X104537449Y-119591001D01*
X103920974Y-118974526D01*
X103920973Y-118974526D01*
X103869868Y-119047512D01*
X103869867Y-119047514D01*
X103862656Y-119062979D01*
X103816482Y-119115417D01*
X103749288Y-119134567D01*
X103682407Y-119114350D01*
X103637893Y-119062976D01*
X103630568Y-119047266D01*
X103500047Y-118860861D01*
X103500045Y-118860858D01*
X103339140Y-118699953D01*
X103153377Y-118569881D01*
X103109752Y-118515304D01*
X103100500Y-118468306D01*
X103100500Y-113300097D01*
X103120185Y-113233058D01*
X103136819Y-113212416D01*
X104212416Y-112136819D01*
X104273739Y-112103334D01*
X104300097Y-112100500D01*
X114913331Y-112100500D01*
X114913347Y-112100501D01*
X114920943Y-112100501D01*
X115079054Y-112100501D01*
X115079057Y-112100501D01*
X115231785Y-112059577D01*
X115281904Y-112030639D01*
X115368716Y-111980520D01*
X115480520Y-111868716D01*
X115480520Y-111868714D01*
X115490728Y-111858507D01*
X115490730Y-111858504D01*
X118118506Y-109230728D01*
X118118511Y-109230724D01*
X118128714Y-109220520D01*
X118128716Y-109220520D01*
X118240520Y-109108716D01*
X118319577Y-108971784D01*
X118360500Y-108819057D01*
X118360500Y-108249601D01*
X118380185Y-108182562D01*
X118428206Y-108139116D01*
X118441610Y-108132287D01*
X118607219Y-108011966D01*
X118751966Y-107867219D01*
X118751968Y-107867215D01*
X118751971Y-107867213D01*
X118872284Y-107701614D01*
X118872283Y-107701614D01*
X118872287Y-107701610D01*
X118919516Y-107608917D01*
X118967489Y-107558123D01*
X119035310Y-107541328D01*
X119101445Y-107563865D01*
X119140485Y-107608919D01*
X119187715Y-107701614D01*
X119308028Y-107867213D01*
X119452786Y-108011971D01*
X119607749Y-108124556D01*
X119618390Y-108132287D01*
X119699499Y-108173614D01*
X119800776Y-108225218D01*
X119800778Y-108225218D01*
X119800781Y-108225220D01*
X119875818Y-108249601D01*
X119995465Y-108288477D01*
X120096557Y-108304488D01*
X120197648Y-108320500D01*
X120197649Y-108320500D01*
X120402351Y-108320500D01*
X120402352Y-108320500D01*
X120604534Y-108288477D01*
X120799219Y-108225220D01*
X120981610Y-108132287D01*
X121142614Y-108015312D01*
X121147213Y-108011971D01*
X121147215Y-108011968D01*
X121147219Y-108011966D01*
X121291966Y-107867219D01*
X121291968Y-107867215D01*
X121291971Y-107867213D01*
X121412284Y-107701614D01*
X121412283Y-107701614D01*
X121412287Y-107701610D01*
X121459516Y-107608917D01*
X121507489Y-107558123D01*
X121575310Y-107541328D01*
X121641445Y-107563865D01*
X121680485Y-107608919D01*
X121727715Y-107701614D01*
X121848028Y-107867213D01*
X121992786Y-108011971D01*
X122147749Y-108124556D01*
X122158390Y-108132287D01*
X122239499Y-108173614D01*
X122340776Y-108225218D01*
X122340778Y-108225218D01*
X122340781Y-108225220D01*
X122415818Y-108249601D01*
X122535465Y-108288477D01*
X122636557Y-108304488D01*
X122737648Y-108320500D01*
X122737649Y-108320500D01*
X122942351Y-108320500D01*
X122942352Y-108320500D01*
X123144534Y-108288477D01*
X123339219Y-108225220D01*
X123521610Y-108132287D01*
X123682614Y-108015312D01*
X123687213Y-108011971D01*
X123687215Y-108011968D01*
X123687219Y-108011966D01*
X123831966Y-107867219D01*
X123831968Y-107867215D01*
X123831971Y-107867213D01*
X123952284Y-107701614D01*
X123952283Y-107701614D01*
X123952287Y-107701610D01*
X123999516Y-107608917D01*
X124047489Y-107558123D01*
X124115310Y-107541328D01*
X124181445Y-107563865D01*
X124220485Y-107608919D01*
X124267715Y-107701614D01*
X124388028Y-107867213D01*
X124532786Y-108011971D01*
X124687749Y-108124556D01*
X124698390Y-108132287D01*
X124779499Y-108173614D01*
X124880776Y-108225218D01*
X124880778Y-108225218D01*
X124880781Y-108225220D01*
X124955818Y-108249601D01*
X125075465Y-108288477D01*
X125176557Y-108304488D01*
X125277648Y-108320500D01*
X125277649Y-108320500D01*
X125482351Y-108320500D01*
X125482352Y-108320500D01*
X125684534Y-108288477D01*
X125879219Y-108225220D01*
X126061610Y-108132287D01*
X126222614Y-108015312D01*
X126227213Y-108011971D01*
X126227215Y-108011968D01*
X126227219Y-108011966D01*
X126371966Y-107867219D01*
X126371968Y-107867215D01*
X126371971Y-107867213D01*
X126492284Y-107701614D01*
X126492283Y-107701614D01*
X126492287Y-107701610D01*
X126539516Y-107608917D01*
X126587489Y-107558123D01*
X126655310Y-107541328D01*
X126721445Y-107563865D01*
X126760485Y-107608919D01*
X126807715Y-107701614D01*
X126928028Y-107867213D01*
X127072786Y-108011971D01*
X127227749Y-108124556D01*
X127238390Y-108132287D01*
X127319499Y-108173614D01*
X127420776Y-108225218D01*
X127420778Y-108225218D01*
X127420781Y-108225220D01*
X127495818Y-108249601D01*
X127615465Y-108288477D01*
X127716557Y-108304488D01*
X127817648Y-108320500D01*
X127817649Y-108320500D01*
X128022351Y-108320500D01*
X128022352Y-108320500D01*
X128224534Y-108288477D01*
X128419219Y-108225220D01*
X128601610Y-108132287D01*
X128762614Y-108015312D01*
X128767213Y-108011971D01*
X128767215Y-108011968D01*
X128767219Y-108011966D01*
X128911966Y-107867219D01*
X128911968Y-107867215D01*
X128911971Y-107867213D01*
X129032284Y-107701614D01*
X129032283Y-107701614D01*
X129032287Y-107701610D01*
X129079516Y-107608917D01*
X129127489Y-107558123D01*
X129195310Y-107541328D01*
X129261445Y-107563865D01*
X129300485Y-107608919D01*
X129347715Y-107701614D01*
X129468028Y-107867213D01*
X129612786Y-108011971D01*
X129767749Y-108124556D01*
X129778390Y-108132287D01*
X129859499Y-108173614D01*
X129960776Y-108225218D01*
X129960778Y-108225218D01*
X129960781Y-108225220D01*
X130035818Y-108249601D01*
X130155465Y-108288477D01*
X130256557Y-108304488D01*
X130357648Y-108320500D01*
X130357649Y-108320500D01*
X130562351Y-108320500D01*
X130562352Y-108320500D01*
X130764534Y-108288477D01*
X130959219Y-108225220D01*
X131141610Y-108132287D01*
X131302614Y-108015312D01*
X131307213Y-108011971D01*
X131307215Y-108011968D01*
X131307219Y-108011966D01*
X131451966Y-107867219D01*
X131451968Y-107867215D01*
X131451971Y-107867213D01*
X131572284Y-107701614D01*
X131572283Y-107701614D01*
X131572287Y-107701610D01*
X131619516Y-107608917D01*
X131667489Y-107558123D01*
X131735310Y-107541328D01*
X131801445Y-107563865D01*
X131840485Y-107608919D01*
X131887715Y-107701614D01*
X132008028Y-107867213D01*
X132008034Y-107867219D01*
X132152781Y-108011966D01*
X132318390Y-108132287D01*
X132331793Y-108139116D01*
X132382589Y-108187088D01*
X132399500Y-108249601D01*
X132399500Y-109699903D01*
X132379815Y-109766942D01*
X132363181Y-109787584D01*
X131287584Y-110863181D01*
X131226261Y-110896666D01*
X131199903Y-110899500D01*
X125586670Y-110899500D01*
X125586654Y-110899499D01*
X125579058Y-110899499D01*
X125420943Y-110899499D01*
X125344579Y-110919961D01*
X125268214Y-110940423D01*
X125268209Y-110940426D01*
X125131290Y-111019475D01*
X125131282Y-111019481D01*
X122019481Y-114131282D01*
X122019479Y-114131285D01*
X121969361Y-114218094D01*
X121969359Y-114218096D01*
X121940425Y-114268209D01*
X121940424Y-114268210D01*
X121940423Y-114268215D01*
X121899499Y-114420943D01*
X121899499Y-114420945D01*
X121899499Y-114589046D01*
X121899500Y-114589059D01*
X121899500Y-118468306D01*
X121879815Y-118535345D01*
X121846623Y-118569881D01*
X121660859Y-118699953D01*
X121499953Y-118860859D01*
X121498973Y-118862028D01*
X121498411Y-118862401D01*
X121496124Y-118864689D01*
X121495664Y-118864229D01*
X121440802Y-118900730D01*
X121370941Y-118901838D01*
X121311571Y-118865001D01*
X121287802Y-118825655D01*
X121243797Y-118707671D01*
X121243793Y-118707664D01*
X121157547Y-118592455D01*
X121157544Y-118592452D01*
X121042335Y-118506206D01*
X121042328Y-118506202D01*
X120907482Y-118455908D01*
X120907483Y-118455908D01*
X120847883Y-118449501D01*
X120847881Y-118449500D01*
X120847873Y-118449500D01*
X120847864Y-118449500D01*
X119152129Y-118449500D01*
X119152123Y-118449501D01*
X119092516Y-118455908D01*
X118957671Y-118506202D01*
X118957664Y-118506206D01*
X118842455Y-118592452D01*
X118842452Y-118592455D01*
X118756206Y-118707664D01*
X118756202Y-118707671D01*
X118705908Y-118842517D01*
X118699501Y-118902116D01*
X118699500Y-118902135D01*
X118699500Y-120497870D01*
X118699501Y-120497876D01*
X118705908Y-120557483D01*
X118756202Y-120692328D01*
X118756206Y-120692335D01*
X118842452Y-120807544D01*
X118842455Y-120807547D01*
X118957664Y-120893793D01*
X118957671Y-120893797D01*
X119092517Y-120944091D01*
X119092516Y-120944091D01*
X119099444Y-120944835D01*
X119152127Y-120950500D01*
X120847872Y-120950499D01*
X120907483Y-120944091D01*
X121042331Y-120893796D01*
X121157546Y-120807546D01*
X121243796Y-120692331D01*
X121259585Y-120650000D01*
X121287802Y-120574345D01*
X121329673Y-120518411D01*
X121395137Y-120493993D01*
X121463410Y-120508844D01*
X121495943Y-120535491D01*
X121496124Y-120535311D01*
X121497941Y-120537128D01*
X121498981Y-120537980D01*
X121499960Y-120539147D01*
X121660858Y-120700045D01*
X121660861Y-120700047D01*
X121847266Y-120830568D01*
X122053504Y-120926739D01*
X122273308Y-120985635D01*
X122435230Y-120999801D01*
X122499998Y-121005468D01*
X122500000Y-121005468D01*
X122500002Y-121005468D01*
X122556673Y-121000509D01*
X122726692Y-120985635D01*
X122946496Y-120926739D01*
X123152734Y-120830568D01*
X123339139Y-120700047D01*
X123412320Y-120626865D01*
X123473641Y-120593382D01*
X123543333Y-120598366D01*
X123587679Y-120626865D01*
X123660861Y-120700047D01*
X123847266Y-120830568D01*
X124053504Y-120926739D01*
X124273308Y-120985635D01*
X124435230Y-120999801D01*
X124499998Y-121005468D01*
X124500000Y-121005468D01*
X124500002Y-121005468D01*
X124556673Y-121000509D01*
X124726692Y-120985635D01*
X124946496Y-120926739D01*
X125152734Y-120830568D01*
X125339139Y-120700047D01*
X125500047Y-120539139D01*
X125630568Y-120352734D01*
X125637893Y-120337024D01*
X125684064Y-120284586D01*
X125751257Y-120265433D01*
X125818138Y-120285648D01*
X125862657Y-120337024D01*
X125869864Y-120352480D01*
X125920974Y-120425472D01*
X126537449Y-119808997D01*
X126557370Y-119883343D01*
X126619905Y-119991657D01*
X126708343Y-120080095D01*
X126816657Y-120142630D01*
X126891002Y-120162550D01*
X126274526Y-120779025D01*
X126347513Y-120830132D01*
X126347521Y-120830136D01*
X126553668Y-120926264D01*
X126553682Y-120926269D01*
X126773389Y-120985139D01*
X126773400Y-120985141D01*
X126999998Y-121004966D01*
X127000002Y-121004966D01*
X127226599Y-120985141D01*
X127226610Y-120985139D01*
X127446317Y-120926269D01*
X127446331Y-120926264D01*
X127652478Y-120830136D01*
X127725471Y-120779024D01*
X127108997Y-120162550D01*
X127183343Y-120142630D01*
X127291657Y-120080095D01*
X127380095Y-119991657D01*
X127442630Y-119883343D01*
X127462550Y-119808997D01*
X128079024Y-120425471D01*
X128130136Y-120352478D01*
X128226264Y-120146331D01*
X128226269Y-120146317D01*
X128285139Y-119926610D01*
X128285141Y-119926599D01*
X128304966Y-119700002D01*
X128304966Y-119699997D01*
X128285141Y-119473400D01*
X128285139Y-119473389D01*
X128226269Y-119253682D01*
X128226264Y-119253668D01*
X128130136Y-119047521D01*
X128130132Y-119047513D01*
X128079025Y-118974526D01*
X127462550Y-119591001D01*
X127442630Y-119516657D01*
X127380095Y-119408343D01*
X127291657Y-119319905D01*
X127183343Y-119257370D01*
X127108998Y-119237449D01*
X127725472Y-118620974D01*
X127652478Y-118569863D01*
X127446331Y-118473735D01*
X127446317Y-118473730D01*
X127226610Y-118414860D01*
X127226599Y-118414858D01*
X127000002Y-118395034D01*
X126999998Y-118395034D01*
X126773400Y-118414858D01*
X126773389Y-118414860D01*
X126553682Y-118473730D01*
X126553673Y-118473734D01*
X126347516Y-118569866D01*
X126347512Y-118569868D01*
X126274526Y-118620973D01*
X126274526Y-118620974D01*
X126891002Y-119237449D01*
X126816657Y-119257370D01*
X126708343Y-119319905D01*
X126619905Y-119408343D01*
X126557370Y-119516657D01*
X126537449Y-119591001D01*
X125920974Y-118974526D01*
X125920973Y-118974526D01*
X125869868Y-119047512D01*
X125869867Y-119047514D01*
X125862656Y-119062979D01*
X125816482Y-119115417D01*
X125749288Y-119134567D01*
X125682407Y-119114350D01*
X125637893Y-119062976D01*
X125630568Y-119047266D01*
X125500047Y-118860861D01*
X125500045Y-118860858D01*
X125339140Y-118699953D01*
X125153377Y-118569881D01*
X125109752Y-118515304D01*
X125100500Y-118468306D01*
X125100500Y-114800097D01*
X125120185Y-114733058D01*
X125136819Y-114712416D01*
X126212416Y-113636819D01*
X126273739Y-113603334D01*
X126300097Y-113600500D01*
X132413331Y-113600500D01*
X132413347Y-113600501D01*
X132420943Y-113600501D01*
X132579054Y-113600501D01*
X132579057Y-113600501D01*
X132731785Y-113559577D01*
X132781904Y-113530639D01*
X132868716Y-113480520D01*
X132980520Y-113368716D01*
X132980520Y-113368714D01*
X132990728Y-113358507D01*
X132990730Y-113358504D01*
X135898506Y-110450728D01*
X135898511Y-110450724D01*
X135908714Y-110440520D01*
X135908716Y-110440520D01*
X136020520Y-110328716D01*
X136076483Y-110231784D01*
X136099577Y-110191785D01*
X136140500Y-110039058D01*
X136140500Y-109880943D01*
X136140500Y-108249601D01*
X136160185Y-108182562D01*
X136208206Y-108139116D01*
X136221610Y-108132287D01*
X136387219Y-108011966D01*
X136531966Y-107867219D01*
X136531968Y-107867215D01*
X136531971Y-107867213D01*
X136652284Y-107701614D01*
X136652283Y-107701614D01*
X136652287Y-107701610D01*
X136699516Y-107608917D01*
X136747489Y-107558123D01*
X136815310Y-107541328D01*
X136881445Y-107563865D01*
X136920485Y-107608919D01*
X136967715Y-107701614D01*
X137088028Y-107867213D01*
X137232786Y-108011971D01*
X137387749Y-108124556D01*
X137398390Y-108132287D01*
X137479499Y-108173614D01*
X137580776Y-108225218D01*
X137580778Y-108225218D01*
X137580781Y-108225220D01*
X137655818Y-108249601D01*
X137775465Y-108288477D01*
X137876557Y-108304488D01*
X137977648Y-108320500D01*
X137977649Y-108320500D01*
X138182351Y-108320500D01*
X138182352Y-108320500D01*
X138384534Y-108288477D01*
X138579219Y-108225220D01*
X138761610Y-108132287D01*
X138922614Y-108015312D01*
X138927213Y-108011971D01*
X138927215Y-108011968D01*
X138927219Y-108011966D01*
X139071966Y-107867219D01*
X139071968Y-107867215D01*
X139071971Y-107867213D01*
X139192284Y-107701614D01*
X139192283Y-107701614D01*
X139192287Y-107701610D01*
X139239516Y-107608917D01*
X139287489Y-107558123D01*
X139355310Y-107541328D01*
X139421445Y-107563865D01*
X139460485Y-107608919D01*
X139507715Y-107701614D01*
X139628028Y-107867213D01*
X139772786Y-108011971D01*
X139927749Y-108124556D01*
X139938390Y-108132287D01*
X140019499Y-108173614D01*
X140120776Y-108225218D01*
X140120778Y-108225218D01*
X140120781Y-108225220D01*
X140195818Y-108249601D01*
X140315465Y-108288477D01*
X140416557Y-108304488D01*
X140517648Y-108320500D01*
X140517649Y-108320500D01*
X140722351Y-108320500D01*
X140722352Y-108320500D01*
X140924534Y-108288477D01*
X141119219Y-108225220D01*
X141301610Y-108132287D01*
X141462614Y-108015312D01*
X141467213Y-108011971D01*
X141467215Y-108011968D01*
X141467219Y-108011966D01*
X141611966Y-107867219D01*
X141611968Y-107867215D01*
X141611971Y-107867213D01*
X141732284Y-107701614D01*
X141732283Y-107701614D01*
X141732287Y-107701610D01*
X141779516Y-107608917D01*
X141827489Y-107558123D01*
X141895310Y-107541328D01*
X141961445Y-107563865D01*
X142000485Y-107608919D01*
X142047715Y-107701614D01*
X142168028Y-107867213D01*
X142312786Y-108011971D01*
X142467749Y-108124556D01*
X142478390Y-108132287D01*
X142559499Y-108173614D01*
X142660776Y-108225218D01*
X142660778Y-108225218D01*
X142660781Y-108225220D01*
X142735818Y-108249601D01*
X142855465Y-108288477D01*
X142956557Y-108304488D01*
X143057648Y-108320500D01*
X143057649Y-108320500D01*
X143262351Y-108320500D01*
X143262352Y-108320500D01*
X143464534Y-108288477D01*
X143659219Y-108225220D01*
X143841610Y-108132287D01*
X144002614Y-108015312D01*
X144007213Y-108011971D01*
X144007215Y-108011968D01*
X144007219Y-108011966D01*
X144151966Y-107867219D01*
X144151968Y-107867215D01*
X144151971Y-107867213D01*
X144272284Y-107701614D01*
X144272283Y-107701614D01*
X144272287Y-107701610D01*
X144319516Y-107608917D01*
X144367489Y-107558123D01*
X144435310Y-107541328D01*
X144501445Y-107563865D01*
X144540485Y-107608919D01*
X144587715Y-107701614D01*
X144708028Y-107867213D01*
X144852786Y-108011971D01*
X145007749Y-108124556D01*
X145018390Y-108132287D01*
X145099499Y-108173614D01*
X145200776Y-108225218D01*
X145200778Y-108225218D01*
X145200781Y-108225220D01*
X145275818Y-108249601D01*
X145395465Y-108288477D01*
X145496557Y-108304488D01*
X145597648Y-108320500D01*
X145597649Y-108320500D01*
X145802351Y-108320500D01*
X145802352Y-108320500D01*
X146004534Y-108288477D01*
X146199219Y-108225220D01*
X146381610Y-108132287D01*
X146542614Y-108015312D01*
X146547213Y-108011971D01*
X146547215Y-108011968D01*
X146547219Y-108011966D01*
X146691966Y-107867219D01*
X146691968Y-107867215D01*
X146691971Y-107867213D01*
X146812284Y-107701614D01*
X146812283Y-107701614D01*
X146812287Y-107701610D01*
X146859516Y-107608917D01*
X146907489Y-107558123D01*
X146975310Y-107541328D01*
X147041445Y-107563865D01*
X147080485Y-107608919D01*
X147127715Y-107701614D01*
X147248028Y-107867213D01*
X147392786Y-108011971D01*
X147547749Y-108124556D01*
X147558390Y-108132287D01*
X147639499Y-108173614D01*
X147740776Y-108225218D01*
X147740778Y-108225218D01*
X147740781Y-108225220D01*
X147815818Y-108249601D01*
X147935465Y-108288477D01*
X148036557Y-108304488D01*
X148137648Y-108320500D01*
X148137649Y-108320500D01*
X148342351Y-108320500D01*
X148342352Y-108320500D01*
X148544534Y-108288477D01*
X148739219Y-108225220D01*
X148921610Y-108132287D01*
X149082614Y-108015312D01*
X149087213Y-108011971D01*
X149087215Y-108011968D01*
X149087219Y-108011966D01*
X149231966Y-107867219D01*
X149231968Y-107867215D01*
X149231971Y-107867213D01*
X149352284Y-107701614D01*
X149352283Y-107701614D01*
X149352287Y-107701610D01*
X149399516Y-107608917D01*
X149447489Y-107558123D01*
X149515310Y-107541328D01*
X149581445Y-107563865D01*
X149620485Y-107608919D01*
X149667715Y-107701614D01*
X149788028Y-107867213D01*
X149932786Y-108011971D01*
X150087749Y-108124556D01*
X150098390Y-108132287D01*
X150179499Y-108173614D01*
X150280776Y-108225218D01*
X150280778Y-108225218D01*
X150280781Y-108225220D01*
X150355818Y-108249601D01*
X150475465Y-108288477D01*
X150576557Y-108304488D01*
X150677648Y-108320500D01*
X150677649Y-108320500D01*
X150882351Y-108320500D01*
X150882352Y-108320500D01*
X151084534Y-108288477D01*
X151279219Y-108225220D01*
X151461610Y-108132287D01*
X151622614Y-108015312D01*
X151627213Y-108011971D01*
X151627215Y-108011968D01*
X151627219Y-108011966D01*
X151771966Y-107867219D01*
X151771968Y-107867215D01*
X151771971Y-107867213D01*
X151892284Y-107701614D01*
X151892283Y-107701614D01*
X151892287Y-107701610D01*
X151939516Y-107608917D01*
X151987489Y-107558123D01*
X152055310Y-107541328D01*
X152121445Y-107563865D01*
X152160485Y-107608919D01*
X152207715Y-107701614D01*
X152328028Y-107867213D01*
X152472786Y-108011971D01*
X152627749Y-108124556D01*
X152638390Y-108132287D01*
X152719499Y-108173614D01*
X152820776Y-108225218D01*
X152820778Y-108225218D01*
X152820781Y-108225220D01*
X152895818Y-108249601D01*
X153015465Y-108288477D01*
X153116557Y-108304488D01*
X153217648Y-108320500D01*
X153217649Y-108320500D01*
X153422351Y-108320500D01*
X153422352Y-108320500D01*
X153624534Y-108288477D01*
X153819219Y-108225220D01*
X154001610Y-108132287D01*
X154162614Y-108015312D01*
X154167213Y-108011971D01*
X154167215Y-108011968D01*
X154167219Y-108011966D01*
X154311966Y-107867219D01*
X154311968Y-107867215D01*
X154311971Y-107867213D01*
X154432284Y-107701614D01*
X154432283Y-107701614D01*
X154432287Y-107701610D01*
X154479516Y-107608917D01*
X154527489Y-107558123D01*
X154595310Y-107541328D01*
X154661445Y-107563865D01*
X154700485Y-107608919D01*
X154747715Y-107701614D01*
X154868028Y-107867213D01*
X155012786Y-108011971D01*
X155167749Y-108124556D01*
X155178390Y-108132287D01*
X155259499Y-108173614D01*
X155360776Y-108225218D01*
X155360778Y-108225218D01*
X155360781Y-108225220D01*
X155435818Y-108249601D01*
X155555465Y-108288477D01*
X155656557Y-108304488D01*
X155757648Y-108320500D01*
X155757649Y-108320500D01*
X155962351Y-108320500D01*
X155962352Y-108320500D01*
X156164534Y-108288477D01*
X156359219Y-108225220D01*
X156541610Y-108132287D01*
X156702614Y-108015312D01*
X156707213Y-108011971D01*
X156707215Y-108011968D01*
X156707219Y-108011966D01*
X156851966Y-107867219D01*
X156851968Y-107867215D01*
X156851971Y-107867213D01*
X156972284Y-107701614D01*
X156972283Y-107701614D01*
X156972287Y-107701610D01*
X157019516Y-107608917D01*
X157067489Y-107558123D01*
X157135310Y-107541328D01*
X157201445Y-107563865D01*
X157240485Y-107608919D01*
X157287715Y-107701614D01*
X157408028Y-107867213D01*
X157552786Y-108011971D01*
X157707749Y-108124556D01*
X157718390Y-108132287D01*
X157799499Y-108173614D01*
X157900776Y-108225218D01*
X157900778Y-108225218D01*
X157900781Y-108225220D01*
X157975818Y-108249601D01*
X158095465Y-108288477D01*
X158196557Y-108304488D01*
X158297648Y-108320500D01*
X158297649Y-108320500D01*
X158502351Y-108320500D01*
X158502352Y-108320500D01*
X158704534Y-108288477D01*
X158899219Y-108225220D01*
X159081610Y-108132287D01*
X159242614Y-108015312D01*
X159247213Y-108011971D01*
X159247215Y-108011968D01*
X159247219Y-108011966D01*
X159391966Y-107867219D01*
X159391968Y-107867215D01*
X159391971Y-107867213D01*
X159512284Y-107701614D01*
X159512283Y-107701614D01*
X159512287Y-107701610D01*
X159559516Y-107608917D01*
X159607489Y-107558123D01*
X159675310Y-107541328D01*
X159741445Y-107563865D01*
X159780485Y-107608919D01*
X159827715Y-107701614D01*
X159948028Y-107867213D01*
X160092786Y-108011971D01*
X160247749Y-108124556D01*
X160258390Y-108132287D01*
X160339499Y-108173614D01*
X160440776Y-108225218D01*
X160440778Y-108225218D01*
X160440781Y-108225220D01*
X160515818Y-108249601D01*
X160635465Y-108288477D01*
X160736557Y-108304488D01*
X160837648Y-108320500D01*
X160837649Y-108320500D01*
X161042351Y-108320500D01*
X161042352Y-108320500D01*
X161244534Y-108288477D01*
X161439219Y-108225220D01*
X161621610Y-108132287D01*
X161782614Y-108015312D01*
X161787213Y-108011971D01*
X161787215Y-108011968D01*
X161787219Y-108011966D01*
X161931966Y-107867219D01*
X161931968Y-107867215D01*
X161931971Y-107867213D01*
X162052284Y-107701614D01*
X162052283Y-107701614D01*
X162052287Y-107701610D01*
X162099795Y-107608369D01*
X162147770Y-107557574D01*
X162215591Y-107540779D01*
X162281725Y-107563316D01*
X162320765Y-107608371D01*
X162326607Y-107619838D01*
X162326608Y-107619838D01*
X162997037Y-106949409D01*
X163014075Y-107012993D01*
X163079901Y-107127007D01*
X163172993Y-107220099D01*
X163287007Y-107285925D01*
X163350590Y-107302962D01*
X162638238Y-108015312D01*
X162798650Y-108131859D01*
X162980968Y-108224755D01*
X163175582Y-108287990D01*
X163377683Y-108320000D01*
X163582317Y-108320000D01*
X163784417Y-108287990D01*
X163979031Y-108224755D01*
X164161349Y-108131859D01*
X164321759Y-108015312D01*
X164321760Y-108015312D01*
X163609409Y-107302962D01*
X163672993Y-107285925D01*
X163787007Y-107220099D01*
X163880099Y-107127007D01*
X163945925Y-107012993D01*
X163962962Y-106949409D01*
X164633390Y-107619837D01*
X164684755Y-107519031D01*
X164747990Y-107324417D01*
X164780000Y-107122317D01*
X164780000Y-106517682D01*
X164747990Y-106315582D01*
X164684755Y-106120968D01*
X164633390Y-106020161D01*
X163962962Y-106690589D01*
X163945925Y-106627007D01*
X163880099Y-106512993D01*
X163787007Y-106419901D01*
X163672993Y-106354075D01*
X163609410Y-106337037D01*
X164321760Y-105624687D01*
X164321759Y-105624686D01*
X164161349Y-105508140D01*
X163979031Y-105415244D01*
X163784417Y-105352009D01*
X163582317Y-105320000D01*
X163377683Y-105320000D01*
X163175582Y-105352009D01*
X162980968Y-105415244D01*
X162798647Y-105508142D01*
X162638239Y-105624684D01*
X162638238Y-105624686D01*
X163350590Y-106337037D01*
X163287007Y-106354075D01*
X163172993Y-106419901D01*
X163079901Y-106512993D01*
X163014075Y-106627007D01*
X162997037Y-106690590D01*
X162326607Y-106020160D01*
X162320765Y-106031628D01*
X162272791Y-106082424D01*
X162204970Y-106099220D01*
X162138835Y-106076683D01*
X162099795Y-106031629D01*
X162088990Y-106010424D01*
X162052287Y-105938390D01*
X162040524Y-105922200D01*
X161931971Y-105772786D01*
X161787213Y-105628028D01*
X161621613Y-105507715D01*
X161621612Y-105507714D01*
X161621610Y-105507713D01*
X161564653Y-105478691D01*
X161439223Y-105414781D01*
X161244534Y-105351522D01*
X161069995Y-105323878D01*
X161042352Y-105319500D01*
X160837648Y-105319500D01*
X160813329Y-105323351D01*
X160635465Y-105351522D01*
X160440776Y-105414781D01*
X160258386Y-105507715D01*
X160092786Y-105628028D01*
X159948028Y-105772786D01*
X159827715Y-105938386D01*
X159780485Y-106031080D01*
X159732510Y-106081876D01*
X159664689Y-106098671D01*
X159598554Y-106076134D01*
X159559515Y-106031080D01*
X159553951Y-106020160D01*
X159512287Y-105938390D01*
X159500524Y-105922200D01*
X159391971Y-105772786D01*
X159247213Y-105628028D01*
X159081613Y-105507715D01*
X159081612Y-105507714D01*
X159081610Y-105507713D01*
X159024653Y-105478691D01*
X158899223Y-105414781D01*
X158704534Y-105351522D01*
X158529995Y-105323878D01*
X158502352Y-105319500D01*
X158297648Y-105319500D01*
X158273329Y-105323351D01*
X158095465Y-105351522D01*
X157900776Y-105414781D01*
X157718386Y-105507715D01*
X157552786Y-105628028D01*
X157408028Y-105772786D01*
X157287715Y-105938386D01*
X157240485Y-106031080D01*
X157192510Y-106081876D01*
X157124689Y-106098671D01*
X157058554Y-106076134D01*
X157019515Y-106031080D01*
X157013951Y-106020160D01*
X156972287Y-105938390D01*
X156960524Y-105922200D01*
X156851971Y-105772786D01*
X156707213Y-105628028D01*
X156541613Y-105507715D01*
X156541612Y-105507714D01*
X156541610Y-105507713D01*
X156484653Y-105478691D01*
X156359223Y-105414781D01*
X156164534Y-105351522D01*
X155989995Y-105323878D01*
X155962352Y-105319500D01*
X155757648Y-105319500D01*
X155733329Y-105323351D01*
X155555465Y-105351522D01*
X155360776Y-105414781D01*
X155178386Y-105507715D01*
X155012786Y-105628028D01*
X154868028Y-105772786D01*
X154747715Y-105938386D01*
X154700485Y-106031080D01*
X154652510Y-106081876D01*
X154584689Y-106098671D01*
X154518554Y-106076134D01*
X154479515Y-106031080D01*
X154473951Y-106020160D01*
X154432287Y-105938390D01*
X154420524Y-105922200D01*
X154311971Y-105772786D01*
X154167213Y-105628028D01*
X154001613Y-105507715D01*
X154001612Y-105507714D01*
X154001610Y-105507713D01*
X153944653Y-105478691D01*
X153819223Y-105414781D01*
X153624534Y-105351522D01*
X153449995Y-105323878D01*
X153422352Y-105319500D01*
X153217648Y-105319500D01*
X153193329Y-105323351D01*
X153015465Y-105351522D01*
X152820776Y-105414781D01*
X152638386Y-105507715D01*
X152472786Y-105628028D01*
X152328028Y-105772786D01*
X152207715Y-105938386D01*
X152160485Y-106031080D01*
X152112510Y-106081876D01*
X152044689Y-106098671D01*
X151978554Y-106076134D01*
X151939515Y-106031080D01*
X151933951Y-106020160D01*
X151892287Y-105938390D01*
X151880524Y-105922200D01*
X151771971Y-105772786D01*
X151627213Y-105628028D01*
X151461613Y-105507715D01*
X151461612Y-105507714D01*
X151461610Y-105507713D01*
X151404653Y-105478691D01*
X151279223Y-105414781D01*
X151084534Y-105351522D01*
X150909995Y-105323878D01*
X150882352Y-105319500D01*
X150677648Y-105319500D01*
X150653329Y-105323351D01*
X150475465Y-105351522D01*
X150280776Y-105414781D01*
X150098386Y-105507715D01*
X149932786Y-105628028D01*
X149788028Y-105772786D01*
X149667715Y-105938386D01*
X149620485Y-106031080D01*
X149572510Y-106081876D01*
X149504689Y-106098671D01*
X149438554Y-106076134D01*
X149399515Y-106031080D01*
X149393951Y-106020160D01*
X149352287Y-105938390D01*
X149340524Y-105922200D01*
X149231971Y-105772786D01*
X149087213Y-105628028D01*
X148921613Y-105507715D01*
X148921612Y-105507714D01*
X148921610Y-105507713D01*
X148864653Y-105478691D01*
X148739223Y-105414781D01*
X148544534Y-105351522D01*
X148369995Y-105323878D01*
X148342352Y-105319500D01*
X148137648Y-105319500D01*
X148113329Y-105323351D01*
X147935465Y-105351522D01*
X147740776Y-105414781D01*
X147558386Y-105507715D01*
X147392786Y-105628028D01*
X147248028Y-105772786D01*
X147127715Y-105938386D01*
X147080485Y-106031080D01*
X147032510Y-106081876D01*
X146964689Y-106098671D01*
X146898554Y-106076134D01*
X146859515Y-106031080D01*
X146853951Y-106020160D01*
X146812287Y-105938390D01*
X146800524Y-105922200D01*
X146691971Y-105772786D01*
X146547213Y-105628028D01*
X146381613Y-105507715D01*
X146381612Y-105507714D01*
X146381610Y-105507713D01*
X146324653Y-105478691D01*
X146199223Y-105414781D01*
X146004534Y-105351522D01*
X145829995Y-105323878D01*
X145802352Y-105319500D01*
X145597648Y-105319500D01*
X145573329Y-105323351D01*
X145395465Y-105351522D01*
X145200776Y-105414781D01*
X145018386Y-105507715D01*
X144852786Y-105628028D01*
X144708028Y-105772786D01*
X144587715Y-105938386D01*
X144540485Y-106031080D01*
X144492510Y-106081876D01*
X144424689Y-106098671D01*
X144358554Y-106076134D01*
X144319515Y-106031080D01*
X144313951Y-106020160D01*
X144272287Y-105938390D01*
X144260524Y-105922200D01*
X144151971Y-105772786D01*
X144007213Y-105628028D01*
X143841613Y-105507715D01*
X143841612Y-105507714D01*
X143841610Y-105507713D01*
X143784653Y-105478691D01*
X143659223Y-105414781D01*
X143464534Y-105351522D01*
X143289995Y-105323878D01*
X143262352Y-105319500D01*
X143057648Y-105319500D01*
X143033329Y-105323351D01*
X142855465Y-105351522D01*
X142660776Y-105414781D01*
X142478386Y-105507715D01*
X142312786Y-105628028D01*
X142168028Y-105772786D01*
X142047715Y-105938386D01*
X142000485Y-106031080D01*
X141952510Y-106081876D01*
X141884689Y-106098671D01*
X141818554Y-106076134D01*
X141779515Y-106031080D01*
X141773951Y-106020160D01*
X141732287Y-105938390D01*
X141720524Y-105922200D01*
X141611971Y-105772786D01*
X141467213Y-105628028D01*
X141301613Y-105507715D01*
X141301612Y-105507714D01*
X141301610Y-105507713D01*
X141244653Y-105478691D01*
X141119223Y-105414781D01*
X140924534Y-105351522D01*
X140749995Y-105323878D01*
X140722352Y-105319500D01*
X140517648Y-105319500D01*
X140493329Y-105323351D01*
X140315465Y-105351522D01*
X140120776Y-105414781D01*
X139938386Y-105507715D01*
X139772786Y-105628028D01*
X139628028Y-105772786D01*
X139507715Y-105938386D01*
X139460485Y-106031080D01*
X139412510Y-106081876D01*
X139344689Y-106098671D01*
X139278554Y-106076134D01*
X139239515Y-106031080D01*
X139233951Y-106020160D01*
X139192287Y-105938390D01*
X139180524Y-105922200D01*
X139071971Y-105772786D01*
X138927213Y-105628028D01*
X138761613Y-105507715D01*
X138761612Y-105507714D01*
X138761610Y-105507713D01*
X138704653Y-105478691D01*
X138579223Y-105414781D01*
X138384534Y-105351522D01*
X138209995Y-105323878D01*
X138182352Y-105319500D01*
X137977648Y-105319500D01*
X137953329Y-105323351D01*
X137775465Y-105351522D01*
X137580776Y-105414781D01*
X137398386Y-105507715D01*
X137232786Y-105628028D01*
X137088028Y-105772786D01*
X136967715Y-105938386D01*
X136920485Y-106031080D01*
X136872510Y-106081876D01*
X136804689Y-106098671D01*
X136738554Y-106076134D01*
X136699515Y-106031080D01*
X136693951Y-106020160D01*
X136652287Y-105938390D01*
X136640524Y-105922200D01*
X136531971Y-105772786D01*
X136387213Y-105628028D01*
X136221613Y-105507715D01*
X136221612Y-105507714D01*
X136221610Y-105507713D01*
X136164653Y-105478691D01*
X136039223Y-105414781D01*
X135844534Y-105351522D01*
X135669995Y-105323878D01*
X135642352Y-105319500D01*
X135437648Y-105319500D01*
X135413329Y-105323351D01*
X135235465Y-105351522D01*
X135040776Y-105414781D01*
X134858386Y-105507715D01*
X134692786Y-105628028D01*
X134548028Y-105772786D01*
X134427715Y-105938386D01*
X134380485Y-106031080D01*
X134332510Y-106081876D01*
X134264689Y-106098671D01*
X134198554Y-106076134D01*
X134159515Y-106031080D01*
X134153951Y-106020160D01*
X134112287Y-105938390D01*
X134100524Y-105922200D01*
X133991971Y-105772786D01*
X133847213Y-105628028D01*
X133681613Y-105507715D01*
X133681612Y-105507714D01*
X133681610Y-105507713D01*
X133624653Y-105478691D01*
X133499223Y-105414781D01*
X133304534Y-105351522D01*
X133129995Y-105323878D01*
X133102352Y-105319500D01*
X132897648Y-105319500D01*
X132873329Y-105323351D01*
X132695465Y-105351522D01*
X132500776Y-105414781D01*
X132318386Y-105507715D01*
X132152786Y-105628028D01*
X132008028Y-105772786D01*
X131887715Y-105938386D01*
X131840485Y-106031080D01*
X131792510Y-106081876D01*
X131724689Y-106098671D01*
X131658554Y-106076134D01*
X131619515Y-106031080D01*
X131613951Y-106020160D01*
X131572287Y-105938390D01*
X131560524Y-105922200D01*
X131451971Y-105772786D01*
X131307213Y-105628028D01*
X131141613Y-105507715D01*
X131141612Y-105507714D01*
X131141610Y-105507713D01*
X131084653Y-105478691D01*
X130959223Y-105414781D01*
X130764534Y-105351522D01*
X130589995Y-105323878D01*
X130562352Y-105319500D01*
X130357648Y-105319500D01*
X130333329Y-105323351D01*
X130155465Y-105351522D01*
X129960776Y-105414781D01*
X129778386Y-105507715D01*
X129612786Y-105628028D01*
X129468028Y-105772786D01*
X129347715Y-105938386D01*
X129300485Y-106031080D01*
X129252510Y-106081876D01*
X129184689Y-106098671D01*
X129118554Y-106076134D01*
X129079515Y-106031080D01*
X129073951Y-106020160D01*
X129032287Y-105938390D01*
X129020524Y-105922200D01*
X128911971Y-105772786D01*
X128767213Y-105628028D01*
X128601613Y-105507715D01*
X128601612Y-105507714D01*
X128601610Y-105507713D01*
X128544653Y-105478691D01*
X128419223Y-105414781D01*
X128224534Y-105351522D01*
X128049995Y-105323878D01*
X128022352Y-105319500D01*
X127817648Y-105319500D01*
X127793329Y-105323351D01*
X127615465Y-105351522D01*
X127420776Y-105414781D01*
X127238386Y-105507715D01*
X127072786Y-105628028D01*
X126928028Y-105772786D01*
X126807715Y-105938386D01*
X126760485Y-106031080D01*
X126712510Y-106081876D01*
X126644689Y-106098671D01*
X126578554Y-106076134D01*
X126539515Y-106031080D01*
X126533951Y-106020160D01*
X126492287Y-105938390D01*
X126480524Y-105922200D01*
X126371971Y-105772786D01*
X126227213Y-105628028D01*
X126061613Y-105507715D01*
X126061612Y-105507714D01*
X126061610Y-105507713D01*
X126004653Y-105478691D01*
X125879223Y-105414781D01*
X125684534Y-105351522D01*
X125509995Y-105323878D01*
X125482352Y-105319500D01*
X125277648Y-105319500D01*
X125253329Y-105323351D01*
X125075465Y-105351522D01*
X124880776Y-105414781D01*
X124698386Y-105507715D01*
X124532786Y-105628028D01*
X124388028Y-105772786D01*
X124267715Y-105938386D01*
X124220485Y-106031080D01*
X124172510Y-106081876D01*
X124104689Y-106098671D01*
X124038554Y-106076134D01*
X123999515Y-106031080D01*
X123993951Y-106020160D01*
X123952287Y-105938390D01*
X123940524Y-105922200D01*
X123831971Y-105772786D01*
X123687213Y-105628028D01*
X123521613Y-105507715D01*
X123521612Y-105507714D01*
X123521610Y-105507713D01*
X123464653Y-105478691D01*
X123339223Y-105414781D01*
X123144534Y-105351522D01*
X122969995Y-105323878D01*
X122942352Y-105319500D01*
X122737648Y-105319500D01*
X122713329Y-105323351D01*
X122535465Y-105351522D01*
X122340776Y-105414781D01*
X122158386Y-105507715D01*
X121992786Y-105628028D01*
X121848028Y-105772786D01*
X121727715Y-105938386D01*
X121680485Y-106031080D01*
X121632510Y-106081876D01*
X121564689Y-106098671D01*
X121498554Y-106076134D01*
X121459515Y-106031080D01*
X121453951Y-106020160D01*
X121412287Y-105938390D01*
X121400524Y-105922200D01*
X121291971Y-105772786D01*
X121147213Y-105628028D01*
X120981613Y-105507715D01*
X120981612Y-105507714D01*
X120981610Y-105507713D01*
X120924653Y-105478691D01*
X120799223Y-105414781D01*
X120604534Y-105351522D01*
X120429995Y-105323878D01*
X120402352Y-105319500D01*
X120197648Y-105319500D01*
X120173329Y-105323351D01*
X119995465Y-105351522D01*
X119800776Y-105414781D01*
X119618386Y-105507715D01*
X119452786Y-105628028D01*
X119308028Y-105772786D01*
X119187715Y-105938386D01*
X119140485Y-106031080D01*
X119092510Y-106081876D01*
X119024689Y-106098671D01*
X118958554Y-106076134D01*
X118919515Y-106031080D01*
X118913951Y-106020160D01*
X118872287Y-105938390D01*
X118860524Y-105922200D01*
X118751971Y-105772786D01*
X118607213Y-105628028D01*
X118441613Y-105507715D01*
X118441612Y-105507714D01*
X118441610Y-105507713D01*
X118384653Y-105478691D01*
X118259223Y-105414781D01*
X118064534Y-105351522D01*
X117889995Y-105323878D01*
X117862352Y-105319500D01*
X117657648Y-105319500D01*
X117633329Y-105323351D01*
X117455465Y-105351522D01*
X117260776Y-105414781D01*
X117078386Y-105507715D01*
X116912786Y-105628028D01*
X116768032Y-105772782D01*
X116768028Y-105772787D01*
X116694817Y-105873555D01*
X116639488Y-105916221D01*
X116569874Y-105922200D01*
X116508079Y-105889595D01*
X116473722Y-105828756D01*
X116470499Y-105800670D01*
X116470499Y-105772129D01*
X116470498Y-105772123D01*
X116470497Y-105772116D01*
X116464091Y-105712517D01*
X116431331Y-105624684D01*
X116413797Y-105577671D01*
X116413793Y-105577664D01*
X116327547Y-105462455D01*
X116327544Y-105462452D01*
X116212335Y-105376206D01*
X116212328Y-105376202D01*
X116077482Y-105325908D01*
X116077483Y-105325908D01*
X116017883Y-105319501D01*
X116017881Y-105319500D01*
X116017873Y-105319500D01*
X116017864Y-105319500D01*
X114422129Y-105319500D01*
X114422123Y-105319501D01*
X114362516Y-105325908D01*
X114227671Y-105376202D01*
X114227664Y-105376206D01*
X114112455Y-105462452D01*
X114112452Y-105462455D01*
X114026206Y-105577664D01*
X114026202Y-105577671D01*
X113975908Y-105712517D01*
X113969501Y-105772116D01*
X113969501Y-105772123D01*
X113969500Y-105772135D01*
X113969500Y-107867870D01*
X113969501Y-107867876D01*
X113975908Y-107927483D01*
X114026202Y-108062328D01*
X114026206Y-108062335D01*
X114112452Y-108177544D01*
X114112455Y-108177547D01*
X114227664Y-108263793D01*
X114227671Y-108263797D01*
X114272618Y-108280561D01*
X114362517Y-108314091D01*
X114422127Y-108320500D01*
X114495500Y-108320499D01*
X114562538Y-108340183D01*
X114608294Y-108392986D01*
X114619500Y-108444499D01*
X114619500Y-108979902D01*
X114599815Y-109046941D01*
X114583181Y-109067583D01*
X113787584Y-109863181D01*
X113726261Y-109896666D01*
X113699903Y-109899500D01*
X101920940Y-109899500D01*
X101880019Y-109910464D01*
X101880019Y-109910465D01*
X101842751Y-109920451D01*
X101768214Y-109940423D01*
X101768209Y-109940426D01*
X101631290Y-110019475D01*
X101631282Y-110019481D01*
X100019481Y-111631282D01*
X100019479Y-111631285D01*
X99969361Y-111718094D01*
X99969359Y-111718096D01*
X99940425Y-111768209D01*
X99940424Y-111768210D01*
X99940423Y-111768215D01*
X99899499Y-111920943D01*
X99899499Y-111920945D01*
X99899499Y-112089046D01*
X99899500Y-112089059D01*
X99899500Y-118468306D01*
X99879815Y-118535345D01*
X99846623Y-118569881D01*
X99660859Y-118699953D01*
X99499953Y-118860859D01*
X99498973Y-118862028D01*
X99498411Y-118862401D01*
X99496124Y-118864689D01*
X99495664Y-118864229D01*
X99440802Y-118900730D01*
X99370941Y-118901838D01*
X99311571Y-118865001D01*
X99287802Y-118825655D01*
X99243797Y-118707671D01*
X99243793Y-118707664D01*
X99157547Y-118592455D01*
X99157544Y-118592452D01*
X99042335Y-118506206D01*
X99042328Y-118506202D01*
X98907482Y-118455908D01*
X98907483Y-118455908D01*
X98847883Y-118449501D01*
X98847881Y-118449500D01*
X98847873Y-118449500D01*
X98847864Y-118449500D01*
X97152129Y-118449500D01*
X97152123Y-118449501D01*
X97092516Y-118455908D01*
X96957671Y-118506202D01*
X96957664Y-118506206D01*
X96842455Y-118592452D01*
X96842452Y-118592455D01*
X96756206Y-118707664D01*
X96756202Y-118707671D01*
X96705908Y-118842517D01*
X96699501Y-118902116D01*
X96699500Y-118902135D01*
X80500500Y-118902135D01*
X80500500Y-86197648D01*
X113919500Y-86197648D01*
X113919500Y-86802351D01*
X113951522Y-87004534D01*
X114014781Y-87199223D01*
X114107715Y-87381613D01*
X114228028Y-87547213D01*
X114372786Y-87691971D01*
X114527749Y-87804556D01*
X114538390Y-87812287D01*
X114654607Y-87871503D01*
X114720776Y-87905218D01*
X114720778Y-87905218D01*
X114720781Y-87905220D01*
X114825137Y-87939127D01*
X114915465Y-87968477D01*
X115016557Y-87984488D01*
X115117648Y-88000500D01*
X115117649Y-88000500D01*
X115322351Y-88000500D01*
X115322352Y-88000500D01*
X115524534Y-87968477D01*
X115719219Y-87905220D01*
X115901610Y-87812287D01*
X116062614Y-87695312D01*
X116067213Y-87691971D01*
X116067215Y-87691968D01*
X116067219Y-87691966D01*
X116211966Y-87547219D01*
X116211968Y-87547215D01*
X116211971Y-87547213D01*
X116332284Y-87381614D01*
X116332285Y-87381613D01*
X116332287Y-87381610D01*
X116379795Y-87288369D01*
X116427770Y-87237574D01*
X116495591Y-87220779D01*
X116561725Y-87243316D01*
X116600765Y-87288371D01*
X116606607Y-87299838D01*
X116606608Y-87299838D01*
X117277037Y-86629409D01*
X117294075Y-86692993D01*
X117359901Y-86807007D01*
X117452993Y-86900099D01*
X117567007Y-86965925D01*
X117630590Y-86982962D01*
X116918238Y-87695312D01*
X117078650Y-87811859D01*
X117260968Y-87904755D01*
X117455582Y-87967990D01*
X117657683Y-88000000D01*
X117862317Y-88000000D01*
X118064417Y-87967990D01*
X118259031Y-87904755D01*
X118441349Y-87811859D01*
X118601759Y-87695312D01*
X118601760Y-87695312D01*
X117889409Y-86982962D01*
X117952993Y-86965925D01*
X118067007Y-86900099D01*
X118160099Y-86807007D01*
X118225925Y-86692993D01*
X118242962Y-86629409D01*
X118913390Y-87299837D01*
X118919234Y-87288370D01*
X118967208Y-87237574D01*
X119035029Y-87220778D01*
X119101164Y-87243315D01*
X119140204Y-87288369D01*
X119187715Y-87381613D01*
X119308028Y-87547213D01*
X119452786Y-87691971D01*
X119607749Y-87804556D01*
X119618390Y-87812287D01*
X119734607Y-87871503D01*
X119800776Y-87905218D01*
X119800778Y-87905218D01*
X119800781Y-87905220D01*
X119905137Y-87939127D01*
X119995465Y-87968477D01*
X120096557Y-87984488D01*
X120197648Y-88000500D01*
X120197649Y-88000500D01*
X120402351Y-88000500D01*
X120402352Y-88000500D01*
X120604534Y-87968477D01*
X120799219Y-87905220D01*
X120981610Y-87812287D01*
X121142614Y-87695312D01*
X121147213Y-87691971D01*
X121147215Y-87691968D01*
X121147219Y-87691966D01*
X121291966Y-87547219D01*
X121291968Y-87547215D01*
X121291971Y-87547213D01*
X121412284Y-87381614D01*
X121412285Y-87381613D01*
X121412287Y-87381610D01*
X121459516Y-87288917D01*
X121507489Y-87238123D01*
X121575310Y-87221328D01*
X121641445Y-87243865D01*
X121680485Y-87288919D01*
X121727715Y-87381614D01*
X121848028Y-87547213D01*
X121992786Y-87691971D01*
X122147749Y-87804556D01*
X122158390Y-87812287D01*
X122274607Y-87871503D01*
X122340776Y-87905218D01*
X122340778Y-87905218D01*
X122340781Y-87905220D01*
X122445137Y-87939127D01*
X122535465Y-87968477D01*
X122636557Y-87984488D01*
X122737648Y-88000500D01*
X122737649Y-88000500D01*
X122942351Y-88000500D01*
X122942352Y-88000500D01*
X123144534Y-87968477D01*
X123339219Y-87905220D01*
X123521610Y-87812287D01*
X123682614Y-87695312D01*
X123687213Y-87691971D01*
X123687215Y-87691968D01*
X123687219Y-87691966D01*
X123831966Y-87547219D01*
X123831968Y-87547215D01*
X123831971Y-87547213D01*
X123952284Y-87381614D01*
X123952285Y-87381613D01*
X123952287Y-87381610D01*
X123999516Y-87288917D01*
X124047489Y-87238123D01*
X124115310Y-87221328D01*
X124181445Y-87243865D01*
X124220485Y-87288919D01*
X124267715Y-87381614D01*
X124388028Y-87547213D01*
X124532786Y-87691971D01*
X124687749Y-87804556D01*
X124698390Y-87812287D01*
X124814607Y-87871503D01*
X124880776Y-87905218D01*
X124880778Y-87905218D01*
X124880781Y-87905220D01*
X124985137Y-87939127D01*
X125075465Y-87968477D01*
X125176557Y-87984488D01*
X125277648Y-88000500D01*
X125277649Y-88000500D01*
X125482351Y-88000500D01*
X125482352Y-88000500D01*
X125684534Y-87968477D01*
X125879219Y-87905220D01*
X126061610Y-87812287D01*
X126222614Y-87695312D01*
X126227213Y-87691971D01*
X126227215Y-87691968D01*
X126227219Y-87691966D01*
X126371966Y-87547219D01*
X126371968Y-87547215D01*
X126371971Y-87547213D01*
X126492284Y-87381614D01*
X126492285Y-87381613D01*
X126492287Y-87381610D01*
X126539516Y-87288917D01*
X126587489Y-87238123D01*
X126655310Y-87221328D01*
X126721445Y-87243865D01*
X126760485Y-87288919D01*
X126807715Y-87381614D01*
X126928028Y-87547213D01*
X127072786Y-87691971D01*
X127227749Y-87804556D01*
X127238390Y-87812287D01*
X127354607Y-87871503D01*
X127420776Y-87905218D01*
X127420778Y-87905218D01*
X127420781Y-87905220D01*
X127525137Y-87939127D01*
X127615465Y-87968477D01*
X127716557Y-87984488D01*
X127817648Y-88000500D01*
X127817649Y-88000500D01*
X128022351Y-88000500D01*
X128022352Y-88000500D01*
X128224534Y-87968477D01*
X128419219Y-87905220D01*
X128601610Y-87812287D01*
X128762614Y-87695312D01*
X128767213Y-87691971D01*
X128767215Y-87691968D01*
X128767219Y-87691966D01*
X128911966Y-87547219D01*
X128911968Y-87547215D01*
X128911971Y-87547213D01*
X129032284Y-87381614D01*
X129032285Y-87381613D01*
X129032287Y-87381610D01*
X129079516Y-87288917D01*
X129127489Y-87238123D01*
X129195310Y-87221328D01*
X129261445Y-87243865D01*
X129300485Y-87288919D01*
X129347715Y-87381614D01*
X129468028Y-87547213D01*
X129612786Y-87691971D01*
X129767749Y-87804556D01*
X129778390Y-87812287D01*
X129894607Y-87871503D01*
X129960776Y-87905218D01*
X129960778Y-87905218D01*
X129960781Y-87905220D01*
X130065137Y-87939127D01*
X130155465Y-87968477D01*
X130256557Y-87984488D01*
X130357648Y-88000500D01*
X130357649Y-88000500D01*
X130562351Y-88000500D01*
X130562352Y-88000500D01*
X130764534Y-87968477D01*
X130959219Y-87905220D01*
X131141610Y-87812287D01*
X131302614Y-87695312D01*
X131307213Y-87691971D01*
X131307215Y-87691968D01*
X131307219Y-87691966D01*
X131451966Y-87547219D01*
X131451968Y-87547215D01*
X131451971Y-87547213D01*
X131572284Y-87381614D01*
X131572285Y-87381613D01*
X131572287Y-87381610D01*
X131619516Y-87288917D01*
X131667489Y-87238123D01*
X131735310Y-87221328D01*
X131801445Y-87243865D01*
X131840485Y-87288919D01*
X131887715Y-87381614D01*
X132008028Y-87547213D01*
X132152786Y-87691971D01*
X132307749Y-87804556D01*
X132318390Y-87812287D01*
X132434607Y-87871503D01*
X132500776Y-87905218D01*
X132500778Y-87905218D01*
X132500781Y-87905220D01*
X132605137Y-87939127D01*
X132695465Y-87968477D01*
X132796557Y-87984488D01*
X132897648Y-88000500D01*
X132897649Y-88000500D01*
X133102351Y-88000500D01*
X133102352Y-88000500D01*
X133304534Y-87968477D01*
X133499219Y-87905220D01*
X133681610Y-87812287D01*
X133842614Y-87695312D01*
X133847213Y-87691971D01*
X133847215Y-87691968D01*
X133847219Y-87691966D01*
X133991966Y-87547219D01*
X133991968Y-87547215D01*
X133991971Y-87547213D01*
X134112284Y-87381614D01*
X134112285Y-87381613D01*
X134112287Y-87381610D01*
X134159516Y-87288917D01*
X134207489Y-87238123D01*
X134275310Y-87221328D01*
X134341445Y-87243865D01*
X134380485Y-87288919D01*
X134427715Y-87381614D01*
X134548028Y-87547213D01*
X134692786Y-87691971D01*
X134847749Y-87804556D01*
X134858390Y-87812287D01*
X134974607Y-87871503D01*
X135040776Y-87905218D01*
X135040778Y-87905218D01*
X135040781Y-87905220D01*
X135145137Y-87939127D01*
X135235465Y-87968477D01*
X135336557Y-87984488D01*
X135437648Y-88000500D01*
X135437649Y-88000500D01*
X135642351Y-88000500D01*
X135642352Y-88000500D01*
X135844534Y-87968477D01*
X136039219Y-87905220D01*
X136221610Y-87812287D01*
X136382614Y-87695312D01*
X136387213Y-87691971D01*
X136387215Y-87691968D01*
X136387219Y-87691966D01*
X136531966Y-87547219D01*
X136531968Y-87547215D01*
X136531971Y-87547213D01*
X136652284Y-87381614D01*
X136652285Y-87381613D01*
X136652287Y-87381610D01*
X136699516Y-87288917D01*
X136747489Y-87238123D01*
X136815310Y-87221328D01*
X136881445Y-87243865D01*
X136920485Y-87288919D01*
X136967715Y-87381614D01*
X137088028Y-87547213D01*
X137232786Y-87691971D01*
X137387749Y-87804556D01*
X137398390Y-87812287D01*
X137514607Y-87871503D01*
X137580776Y-87905218D01*
X137580778Y-87905218D01*
X137580781Y-87905220D01*
X137685137Y-87939127D01*
X137775465Y-87968477D01*
X137876557Y-87984488D01*
X137977648Y-88000500D01*
X137977649Y-88000500D01*
X138182351Y-88000500D01*
X138182352Y-88000500D01*
X138384534Y-87968477D01*
X138579219Y-87905220D01*
X138761610Y-87812287D01*
X138922614Y-87695312D01*
X138927213Y-87691971D01*
X138927215Y-87691968D01*
X138927219Y-87691966D01*
X139071966Y-87547219D01*
X139071968Y-87547215D01*
X139071971Y-87547213D01*
X139192284Y-87381614D01*
X139192285Y-87381613D01*
X139192287Y-87381610D01*
X139239516Y-87288917D01*
X139287489Y-87238123D01*
X139355310Y-87221328D01*
X139421445Y-87243865D01*
X139460485Y-87288919D01*
X139507715Y-87381614D01*
X139628028Y-87547213D01*
X139772786Y-87691971D01*
X139927749Y-87804556D01*
X139938390Y-87812287D01*
X140054607Y-87871503D01*
X140120776Y-87905218D01*
X140120778Y-87905218D01*
X140120781Y-87905220D01*
X140225137Y-87939127D01*
X140315465Y-87968477D01*
X140416557Y-87984488D01*
X140517648Y-88000500D01*
X140517649Y-88000500D01*
X140722351Y-88000500D01*
X140722352Y-88000500D01*
X140924534Y-87968477D01*
X141119219Y-87905220D01*
X141301610Y-87812287D01*
X141462614Y-87695312D01*
X141467213Y-87691971D01*
X141467215Y-87691968D01*
X141467219Y-87691966D01*
X141611966Y-87547219D01*
X141611968Y-87547215D01*
X141611971Y-87547213D01*
X141732284Y-87381614D01*
X141732285Y-87381613D01*
X141732287Y-87381610D01*
X141779516Y-87288917D01*
X141827489Y-87238123D01*
X141895310Y-87221328D01*
X141961445Y-87243865D01*
X142000485Y-87288919D01*
X142047715Y-87381614D01*
X142168028Y-87547213D01*
X142312786Y-87691971D01*
X142467749Y-87804556D01*
X142478390Y-87812287D01*
X142594607Y-87871503D01*
X142660776Y-87905218D01*
X142660778Y-87905218D01*
X142660781Y-87905220D01*
X142765137Y-87939127D01*
X142855465Y-87968477D01*
X142956557Y-87984488D01*
X143057648Y-88000500D01*
X143057649Y-88000500D01*
X143262351Y-88000500D01*
X143262352Y-88000500D01*
X143464534Y-87968477D01*
X143659219Y-87905220D01*
X143841610Y-87812287D01*
X144002614Y-87695312D01*
X144007213Y-87691971D01*
X144007215Y-87691968D01*
X144007219Y-87691966D01*
X144151966Y-87547219D01*
X144151968Y-87547215D01*
X144151971Y-87547213D01*
X144272284Y-87381614D01*
X144272285Y-87381613D01*
X144272287Y-87381610D01*
X144319516Y-87288917D01*
X144367489Y-87238123D01*
X144435310Y-87221328D01*
X144501445Y-87243865D01*
X144540485Y-87288919D01*
X144587715Y-87381614D01*
X144708028Y-87547213D01*
X144852786Y-87691971D01*
X145007749Y-87804556D01*
X145018390Y-87812287D01*
X145134607Y-87871503D01*
X145200776Y-87905218D01*
X145200778Y-87905218D01*
X145200781Y-87905220D01*
X145305137Y-87939127D01*
X145395465Y-87968477D01*
X145496557Y-87984488D01*
X145597648Y-88000500D01*
X145597649Y-88000500D01*
X145802351Y-88000500D01*
X145802352Y-88000500D01*
X146004534Y-87968477D01*
X146199219Y-87905220D01*
X146381610Y-87812287D01*
X146542614Y-87695312D01*
X146547213Y-87691971D01*
X146547215Y-87691968D01*
X146547219Y-87691966D01*
X146691966Y-87547219D01*
X146691968Y-87547215D01*
X146691971Y-87547213D01*
X146812284Y-87381614D01*
X146812285Y-87381613D01*
X146812287Y-87381610D01*
X146859516Y-87288917D01*
X146907489Y-87238123D01*
X146975310Y-87221328D01*
X147041445Y-87243865D01*
X147080485Y-87288919D01*
X147127715Y-87381614D01*
X147248028Y-87547213D01*
X147392786Y-87691971D01*
X147547749Y-87804556D01*
X147558390Y-87812287D01*
X147674607Y-87871503D01*
X147740776Y-87905218D01*
X147740778Y-87905218D01*
X147740781Y-87905220D01*
X147845137Y-87939127D01*
X147935465Y-87968477D01*
X148036557Y-87984488D01*
X148137648Y-88000500D01*
X148137649Y-88000500D01*
X148342351Y-88000500D01*
X148342352Y-88000500D01*
X148544534Y-87968477D01*
X148739219Y-87905220D01*
X148921610Y-87812287D01*
X149082614Y-87695312D01*
X149087213Y-87691971D01*
X149087215Y-87691968D01*
X149087219Y-87691966D01*
X149231966Y-87547219D01*
X149231968Y-87547215D01*
X149231971Y-87547213D01*
X149352284Y-87381614D01*
X149352285Y-87381613D01*
X149352287Y-87381610D01*
X149399795Y-87288369D01*
X149447770Y-87237574D01*
X149515591Y-87220779D01*
X149581725Y-87243316D01*
X149620765Y-87288371D01*
X149626607Y-87299838D01*
X149626608Y-87299838D01*
X150297037Y-86629409D01*
X150314075Y-86692993D01*
X150379901Y-86807007D01*
X150472993Y-86900099D01*
X150587007Y-86965925D01*
X150650590Y-86982962D01*
X149938238Y-87695312D01*
X150098650Y-87811859D01*
X150280968Y-87904755D01*
X150475582Y-87967990D01*
X150677683Y-88000000D01*
X150882317Y-88000000D01*
X151084417Y-87967990D01*
X151279031Y-87904755D01*
X151461349Y-87811859D01*
X151621759Y-87695312D01*
X151621760Y-87695312D01*
X150909409Y-86982962D01*
X150972993Y-86965925D01*
X151087007Y-86900099D01*
X151180099Y-86807007D01*
X151245925Y-86692993D01*
X151262962Y-86629409D01*
X151933390Y-87299837D01*
X151939234Y-87288370D01*
X151987208Y-87237574D01*
X152055029Y-87220778D01*
X152121164Y-87243315D01*
X152160204Y-87288369D01*
X152207715Y-87381613D01*
X152328028Y-87547213D01*
X152472786Y-87691971D01*
X152627749Y-87804556D01*
X152638390Y-87812287D01*
X152754607Y-87871503D01*
X152820776Y-87905218D01*
X152820778Y-87905218D01*
X152820781Y-87905220D01*
X152925137Y-87939127D01*
X153015465Y-87968477D01*
X153116557Y-87984488D01*
X153217648Y-88000500D01*
X153217649Y-88000500D01*
X153422351Y-88000500D01*
X153422352Y-88000500D01*
X153624534Y-87968477D01*
X153819219Y-87905220D01*
X154001610Y-87812287D01*
X154162614Y-87695312D01*
X154167213Y-87691971D01*
X154167215Y-87691968D01*
X154167219Y-87691966D01*
X154311966Y-87547219D01*
X154311968Y-87547215D01*
X154311971Y-87547213D01*
X154432284Y-87381614D01*
X154432285Y-87381613D01*
X154432287Y-87381610D01*
X154479516Y-87288917D01*
X154527489Y-87238123D01*
X154595310Y-87221328D01*
X154661445Y-87243865D01*
X154700485Y-87288919D01*
X154747715Y-87381614D01*
X154868028Y-87547213D01*
X155012786Y-87691971D01*
X155167749Y-87804556D01*
X155178390Y-87812287D01*
X155294607Y-87871503D01*
X155360776Y-87905218D01*
X155360778Y-87905218D01*
X155360781Y-87905220D01*
X155465137Y-87939127D01*
X155555465Y-87968477D01*
X155656557Y-87984488D01*
X155757648Y-88000500D01*
X155757649Y-88000500D01*
X155962351Y-88000500D01*
X155962352Y-88000500D01*
X156164534Y-87968477D01*
X156359219Y-87905220D01*
X156541610Y-87812287D01*
X156702614Y-87695312D01*
X156707213Y-87691971D01*
X156707215Y-87691968D01*
X156707219Y-87691966D01*
X156851966Y-87547219D01*
X156851968Y-87547215D01*
X156851971Y-87547213D01*
X156972284Y-87381614D01*
X156972285Y-87381613D01*
X156972287Y-87381610D01*
X157019516Y-87288917D01*
X157067489Y-87238123D01*
X157135310Y-87221328D01*
X157201445Y-87243865D01*
X157240485Y-87288919D01*
X157287715Y-87381614D01*
X157408028Y-87547213D01*
X157552786Y-87691971D01*
X157707749Y-87804556D01*
X157718390Y-87812287D01*
X157834607Y-87871503D01*
X157900776Y-87905218D01*
X157900778Y-87905218D01*
X157900781Y-87905220D01*
X158005137Y-87939127D01*
X158095465Y-87968477D01*
X158196557Y-87984488D01*
X158297648Y-88000500D01*
X158297649Y-88000500D01*
X158502351Y-88000500D01*
X158502352Y-88000500D01*
X158704534Y-87968477D01*
X158899219Y-87905220D01*
X159081610Y-87812287D01*
X159242614Y-87695312D01*
X159247213Y-87691971D01*
X159247215Y-87691968D01*
X159247219Y-87691966D01*
X159391966Y-87547219D01*
X159391968Y-87547215D01*
X159391971Y-87547213D01*
X159512284Y-87381614D01*
X159512285Y-87381613D01*
X159512287Y-87381610D01*
X159559516Y-87288917D01*
X159607489Y-87238123D01*
X159675310Y-87221328D01*
X159741445Y-87243865D01*
X159780485Y-87288919D01*
X159827715Y-87381614D01*
X159948028Y-87547213D01*
X160092786Y-87691971D01*
X160247749Y-87804556D01*
X160258390Y-87812287D01*
X160374607Y-87871503D01*
X160440776Y-87905218D01*
X160440778Y-87905218D01*
X160440781Y-87905220D01*
X160545137Y-87939127D01*
X160635465Y-87968477D01*
X160736557Y-87984488D01*
X160837648Y-88000500D01*
X160837649Y-88000500D01*
X161042351Y-88000500D01*
X161042352Y-88000500D01*
X161244534Y-87968477D01*
X161439219Y-87905220D01*
X161621610Y-87812287D01*
X161782614Y-87695312D01*
X161787213Y-87691971D01*
X161787215Y-87691968D01*
X161787219Y-87691966D01*
X161931966Y-87547219D01*
X161931968Y-87547215D01*
X161931971Y-87547213D01*
X162052284Y-87381614D01*
X162052285Y-87381613D01*
X162052287Y-87381610D01*
X162099516Y-87288917D01*
X162147489Y-87238123D01*
X162215310Y-87221328D01*
X162281445Y-87243865D01*
X162320485Y-87288919D01*
X162367715Y-87381614D01*
X162488028Y-87547213D01*
X162632786Y-87691971D01*
X162787749Y-87804556D01*
X162798390Y-87812287D01*
X162914607Y-87871503D01*
X162980776Y-87905218D01*
X162980778Y-87905218D01*
X162980781Y-87905220D01*
X163085137Y-87939127D01*
X163175465Y-87968477D01*
X163276557Y-87984488D01*
X163377648Y-88000500D01*
X163377649Y-88000500D01*
X163582351Y-88000500D01*
X163582352Y-88000500D01*
X163784534Y-87968477D01*
X163979219Y-87905220D01*
X164161610Y-87812287D01*
X164322614Y-87695312D01*
X164327213Y-87691971D01*
X164327215Y-87691968D01*
X164327219Y-87691966D01*
X164471966Y-87547219D01*
X164471968Y-87547215D01*
X164471971Y-87547213D01*
X164524732Y-87474590D01*
X164592287Y-87381610D01*
X164685220Y-87199219D01*
X164748477Y-87004534D01*
X164780500Y-86802352D01*
X164780500Y-86197648D01*
X164748477Y-85995466D01*
X164685220Y-85800781D01*
X164685218Y-85800778D01*
X164685218Y-85800776D01*
X164633951Y-85700160D01*
X164592287Y-85618390D01*
X164584556Y-85607749D01*
X164471971Y-85452786D01*
X164327213Y-85308028D01*
X164161613Y-85187715D01*
X164161612Y-85187714D01*
X164161610Y-85187713D01*
X164104653Y-85158691D01*
X163979223Y-85094781D01*
X163784534Y-85031522D01*
X163609995Y-85003878D01*
X163582352Y-84999500D01*
X163377648Y-84999500D01*
X163353329Y-85003351D01*
X163175465Y-85031522D01*
X162980776Y-85094781D01*
X162798386Y-85187715D01*
X162632786Y-85308028D01*
X162488028Y-85452786D01*
X162367715Y-85618386D01*
X162320485Y-85711080D01*
X162272510Y-85761876D01*
X162204689Y-85778671D01*
X162138554Y-85756134D01*
X162099515Y-85711080D01*
X162093951Y-85700160D01*
X162052287Y-85618390D01*
X162044556Y-85607749D01*
X161931971Y-85452786D01*
X161787213Y-85308028D01*
X161621613Y-85187715D01*
X161621612Y-85187714D01*
X161621610Y-85187713D01*
X161564653Y-85158691D01*
X161439223Y-85094781D01*
X161244534Y-85031522D01*
X161069995Y-85003878D01*
X161042352Y-84999500D01*
X160837648Y-84999500D01*
X160813329Y-85003351D01*
X160635465Y-85031522D01*
X160440776Y-85094781D01*
X160258386Y-85187715D01*
X160092786Y-85308028D01*
X159948028Y-85452786D01*
X159827715Y-85618386D01*
X159780485Y-85711080D01*
X159732510Y-85761876D01*
X159664689Y-85778671D01*
X159598554Y-85756134D01*
X159559515Y-85711080D01*
X159553951Y-85700160D01*
X159512287Y-85618390D01*
X159504556Y-85607749D01*
X159391971Y-85452786D01*
X159247213Y-85308028D01*
X159081613Y-85187715D01*
X159081612Y-85187714D01*
X159081610Y-85187713D01*
X159024653Y-85158691D01*
X158899223Y-85094781D01*
X158704534Y-85031522D01*
X158529995Y-85003878D01*
X158502352Y-84999500D01*
X158297648Y-84999500D01*
X158273329Y-85003351D01*
X158095465Y-85031522D01*
X157900776Y-85094781D01*
X157718386Y-85187715D01*
X157552786Y-85308028D01*
X157408028Y-85452786D01*
X157287715Y-85618386D01*
X157240485Y-85711080D01*
X157192510Y-85761876D01*
X157124689Y-85778671D01*
X157058554Y-85756134D01*
X157019515Y-85711080D01*
X157013951Y-85700160D01*
X156972287Y-85618390D01*
X156964556Y-85607749D01*
X156851971Y-85452786D01*
X156707213Y-85308028D01*
X156541613Y-85187715D01*
X156541612Y-85187714D01*
X156541610Y-85187713D01*
X156484653Y-85158691D01*
X156359223Y-85094781D01*
X156164534Y-85031522D01*
X155989995Y-85003878D01*
X155962352Y-84999500D01*
X155757648Y-84999500D01*
X155733329Y-85003351D01*
X155555465Y-85031522D01*
X155360776Y-85094781D01*
X155178386Y-85187715D01*
X155012786Y-85308028D01*
X154868028Y-85452786D01*
X154747715Y-85618386D01*
X154700485Y-85711080D01*
X154652510Y-85761876D01*
X154584689Y-85778671D01*
X154518554Y-85756134D01*
X154479515Y-85711080D01*
X154473951Y-85700160D01*
X154432287Y-85618390D01*
X154424556Y-85607749D01*
X154311971Y-85452786D01*
X154286819Y-85427634D01*
X154253334Y-85366311D01*
X154250500Y-85339953D01*
X154250500Y-79862230D01*
X154270185Y-79795191D01*
X154286819Y-79774549D01*
X155234549Y-78826819D01*
X155295872Y-78793334D01*
X155322230Y-78790500D01*
X165812299Y-78790500D01*
X165879338Y-78810185D01*
X165913873Y-78843376D01*
X165961505Y-78911401D01*
X166128599Y-79078495D01*
X166294178Y-79194435D01*
X166314594Y-79208730D01*
X166358219Y-79263307D01*
X166365413Y-79332805D01*
X166333890Y-79395160D01*
X166314595Y-79411880D01*
X166128922Y-79541890D01*
X166128920Y-79541891D01*
X165961891Y-79708920D01*
X165961886Y-79708926D01*
X165826400Y-79902420D01*
X165826399Y-79902422D01*
X165726570Y-80116507D01*
X165726567Y-80116513D01*
X165669364Y-80329999D01*
X165669364Y-80330000D01*
X166566988Y-80330000D01*
X166534075Y-80387007D01*
X166500000Y-80514174D01*
X166500000Y-80645826D01*
X166534075Y-80772993D01*
X166566988Y-80830000D01*
X165669364Y-80830000D01*
X165726567Y-81043486D01*
X165726570Y-81043492D01*
X165826399Y-81257578D01*
X165961894Y-81451082D01*
X166128917Y-81618105D01*
X166322421Y-81753600D01*
X166536507Y-81853429D01*
X166536516Y-81853433D01*
X166750000Y-81910634D01*
X166750000Y-81013012D01*
X166807007Y-81045925D01*
X166934174Y-81080000D01*
X167065826Y-81080000D01*
X167192993Y-81045925D01*
X167250000Y-81013012D01*
X167250000Y-81910633D01*
X167463483Y-81853433D01*
X167463492Y-81853429D01*
X167677578Y-81753600D01*
X167871082Y-81618105D01*
X168038105Y-81451082D01*
X168173600Y-81257578D01*
X168273429Y-81043492D01*
X168273432Y-81043486D01*
X168330636Y-80830000D01*
X167433012Y-80830000D01*
X167465925Y-80772993D01*
X167500000Y-80645826D01*
X167500000Y-80514174D01*
X167465925Y-80387007D01*
X167433012Y-80330000D01*
X168330636Y-80330000D01*
X168330635Y-80329999D01*
X168273432Y-80116513D01*
X168273429Y-80116507D01*
X168173600Y-79902422D01*
X168173599Y-79902420D01*
X168038113Y-79708926D01*
X168038108Y-79708920D01*
X167871078Y-79541890D01*
X167685405Y-79411879D01*
X167641780Y-79357302D01*
X167634588Y-79287804D01*
X167666110Y-79225449D01*
X167685406Y-79208730D01*
X167871401Y-79078495D01*
X168038495Y-78911401D01*
X168174035Y-78717830D01*
X168273903Y-78503663D01*
X168335063Y-78275408D01*
X168355659Y-78040000D01*
X168335063Y-77804592D01*
X168273903Y-77576337D01*
X168174035Y-77362171D01*
X168143347Y-77318343D01*
X168038494Y-77168597D01*
X167871402Y-77001506D01*
X167871401Y-77001505D01*
X167685405Y-76871269D01*
X167641781Y-76816692D01*
X167634588Y-76747193D01*
X167666110Y-76684839D01*
X167685405Y-76668119D01*
X167871082Y-76538105D01*
X168038105Y-76371082D01*
X168173600Y-76177578D01*
X168273429Y-75963492D01*
X168273432Y-75963486D01*
X168330636Y-75750000D01*
X167433012Y-75750000D01*
X167465925Y-75692993D01*
X167500000Y-75565826D01*
X167500000Y-75434174D01*
X167465925Y-75307007D01*
X167433012Y-75250000D01*
X168330636Y-75250000D01*
X168330635Y-75249999D01*
X168273432Y-75036513D01*
X168273429Y-75036507D01*
X168173600Y-74822422D01*
X168173599Y-74822420D01*
X168038113Y-74628926D01*
X168038108Y-74628920D01*
X167916053Y-74506865D01*
X167882568Y-74445542D01*
X167887552Y-74375850D01*
X167929424Y-74319917D01*
X167960400Y-74303002D01*
X168092331Y-74253796D01*
X168207546Y-74167546D01*
X168293796Y-74052331D01*
X168344091Y-73917483D01*
X168350500Y-73857873D01*
X168350499Y-72062128D01*
X168344091Y-72002517D01*
X168293796Y-71867669D01*
X168293795Y-71867668D01*
X168293793Y-71867664D01*
X168207547Y-71752455D01*
X168207544Y-71752452D01*
X168092335Y-71666206D01*
X168092328Y-71666202D01*
X167957482Y-71615908D01*
X167957483Y-71615908D01*
X167897883Y-71609501D01*
X167897881Y-71609500D01*
X167897873Y-71609500D01*
X167897864Y-71609500D01*
X166102129Y-71609500D01*
X166102123Y-71609501D01*
X166042516Y-71615908D01*
X165907671Y-71666202D01*
X165907664Y-71666206D01*
X165792455Y-71752452D01*
X165792452Y-71752455D01*
X165706206Y-71867664D01*
X165706202Y-71867671D01*
X165655908Y-72002517D01*
X165649501Y-72062116D01*
X165649501Y-72062123D01*
X165649500Y-72062135D01*
X165649500Y-73857870D01*
X165649501Y-73857876D01*
X165655908Y-73917483D01*
X165706202Y-74052328D01*
X165706206Y-74052335D01*
X165792452Y-74167544D01*
X165792455Y-74167547D01*
X165907664Y-74253793D01*
X165907671Y-74253797D01*
X165907674Y-74253798D01*
X166039598Y-74303002D01*
X166095531Y-74344873D01*
X166119949Y-74410337D01*
X166105098Y-74478610D01*
X166083947Y-74506865D01*
X165961886Y-74628926D01*
X165826400Y-74822420D01*
X165826399Y-74822422D01*
X165726570Y-75036507D01*
X165726567Y-75036513D01*
X165669364Y-75249999D01*
X165669364Y-75250000D01*
X166566988Y-75250000D01*
X166534075Y-75307007D01*
X166500000Y-75434174D01*
X166500000Y-75565826D01*
X166534075Y-75692993D01*
X166566988Y-75750000D01*
X165669364Y-75750000D01*
X165726567Y-75963486D01*
X165726570Y-75963492D01*
X165826399Y-76177578D01*
X165961894Y-76371082D01*
X166128917Y-76538105D01*
X166314595Y-76668119D01*
X166358219Y-76722696D01*
X166365412Y-76792195D01*
X166333890Y-76854549D01*
X166314595Y-76871269D01*
X166128594Y-77001508D01*
X165961506Y-77168596D01*
X165913874Y-77236623D01*
X165859297Y-77280248D01*
X165812299Y-77289500D01*
X154886080Y-77289500D01*
X154741092Y-77318340D01*
X154741082Y-77318343D01*
X154604509Y-77374913D01*
X154604507Y-77374914D01*
X154563645Y-77402218D01*
X154563643Y-77402219D01*
X154481589Y-77457043D01*
X154481584Y-77457047D01*
X152917052Y-79021578D01*
X152917049Y-79021581D01*
X152882390Y-79073452D01*
X152882391Y-79073453D01*
X152834914Y-79144508D01*
X152778343Y-79281082D01*
X152778340Y-79281091D01*
X152763012Y-79358148D01*
X152730626Y-79420059D01*
X152669909Y-79454632D01*
X152600140Y-79450891D01*
X152553714Y-79421636D01*
X152502262Y-79370184D01*
X152349523Y-79274211D01*
X152179254Y-79214631D01*
X152179249Y-79214630D01*
X152000004Y-79194435D01*
X151999996Y-79194435D01*
X151820750Y-79214630D01*
X151820745Y-79214631D01*
X151650476Y-79274211D01*
X151497736Y-79370185D01*
X151494903Y-79372445D01*
X151492724Y-79373334D01*
X151491842Y-79373889D01*
X151491744Y-79373734D01*
X151430217Y-79398855D01*
X151417588Y-79399500D01*
X151383063Y-79399500D01*
X151316024Y-79379815D01*
X151270269Y-79327011D01*
X151260325Y-79257853D01*
X151266022Y-79234545D01*
X151285366Y-79179262D01*
X151285369Y-79179249D01*
X151305565Y-79000003D01*
X151305565Y-78999996D01*
X151285369Y-78820750D01*
X151285368Y-78820745D01*
X151247722Y-78713159D01*
X151244161Y-78643380D01*
X151278890Y-78582752D01*
X151340883Y-78550525D01*
X151410458Y-78556930D01*
X151452445Y-78584523D01*
X151497738Y-78629816D01*
X151547141Y-78660858D01*
X151637817Y-78717834D01*
X151650478Y-78725789D01*
X151820745Y-78785368D01*
X151820750Y-78785369D01*
X151999996Y-78805565D01*
X152000000Y-78805565D01*
X152000004Y-78805565D01*
X152179249Y-78785369D01*
X152179252Y-78785368D01*
X152179255Y-78785368D01*
X152349522Y-78725789D01*
X152502262Y-78629816D01*
X152629816Y-78502262D01*
X152725789Y-78349522D01*
X152785368Y-78179255D01*
X152785369Y-78179249D01*
X152805565Y-78000003D01*
X152805565Y-77999996D01*
X152785369Y-77820750D01*
X152785368Y-77820745D01*
X152725788Y-77650476D01*
X152692645Y-77597730D01*
X152629816Y-77497738D01*
X152629814Y-77497736D01*
X152629813Y-77497734D01*
X152627550Y-77494896D01*
X152626659Y-77492715D01*
X152626111Y-77491842D01*
X152626264Y-77491745D01*
X152601144Y-77430209D01*
X152600500Y-77417587D01*
X152600500Y-66800097D01*
X152620185Y-66733058D01*
X152636819Y-66712416D01*
X153552091Y-65797144D01*
X154520520Y-64828716D01*
X154599577Y-64691784D01*
X154640501Y-64539057D01*
X154640501Y-64380942D01*
X154640501Y-64373347D01*
X154640500Y-64373329D01*
X154640500Y-63999997D01*
X161645080Y-63999997D01*
X161645080Y-64000002D01*
X161664746Y-64362728D01*
X161723517Y-64721214D01*
X161723519Y-64721222D01*
X161820695Y-65071220D01*
X161820697Y-65071227D01*
X161955152Y-65408684D01*
X161955161Y-65408702D01*
X162125316Y-65729647D01*
X162125318Y-65729651D01*
X162329170Y-66030309D01*
X162329177Y-66030319D01*
X162460969Y-66185475D01*
X162460970Y-66185475D01*
X163705748Y-64940698D01*
X163779588Y-65042330D01*
X163957670Y-65220412D01*
X164059300Y-65294251D01*
X162811888Y-66541662D01*
X162811888Y-66541664D01*
X162828070Y-66556992D01*
X162828071Y-66556993D01*
X163117266Y-66776832D01*
X163117282Y-66776843D01*
X163428522Y-66964109D01*
X163428535Y-66964116D01*
X163758205Y-67116639D01*
X163758210Y-67116640D01*
X164102461Y-67232632D01*
X164457235Y-67310724D01*
X164818366Y-67349999D01*
X164818374Y-67350000D01*
X165181626Y-67350000D01*
X165181633Y-67349999D01*
X165542764Y-67310724D01*
X165897538Y-67232632D01*
X166241789Y-67116640D01*
X166241794Y-67116639D01*
X166571464Y-66964116D01*
X166571477Y-66964109D01*
X166882717Y-66776843D01*
X166882733Y-66776832D01*
X167171929Y-66556992D01*
X167188110Y-66541664D01*
X167188110Y-66541663D01*
X165940698Y-65294251D01*
X166042330Y-65220412D01*
X166220412Y-65042330D01*
X166294251Y-64940698D01*
X167539028Y-66185475D01*
X167539029Y-66185475D01*
X167670827Y-66030311D01*
X167670838Y-66030297D01*
X167874681Y-65729651D01*
X167874683Y-65729647D01*
X168044838Y-65408702D01*
X168044847Y-65408684D01*
X168179302Y-65071227D01*
X168179304Y-65071220D01*
X168276480Y-64721222D01*
X168276482Y-64721214D01*
X168335253Y-64362728D01*
X168354920Y-64000002D01*
X168354920Y-63999997D01*
X168335253Y-63637271D01*
X168276482Y-63278785D01*
X168276480Y-63278777D01*
X168179304Y-62928779D01*
X168179302Y-62928772D01*
X168044847Y-62591315D01*
X168044838Y-62591297D01*
X167874683Y-62270352D01*
X167874681Y-62270348D01*
X167670829Y-61969690D01*
X167670822Y-61969680D01*
X167539029Y-61814523D01*
X167539028Y-61814523D01*
X166294251Y-63059300D01*
X166220412Y-62957670D01*
X166042330Y-62779588D01*
X165940698Y-62705748D01*
X167188110Y-61458336D01*
X167188110Y-61458334D01*
X167171929Y-61443007D01*
X167171928Y-61443006D01*
X166882733Y-61223167D01*
X166882717Y-61223156D01*
X166571477Y-61035890D01*
X166571464Y-61035883D01*
X166241794Y-60883360D01*
X166241789Y-60883359D01*
X165897538Y-60767367D01*
X165542764Y-60689275D01*
X165181633Y-60650000D01*
X164818366Y-60650000D01*
X164457235Y-60689275D01*
X164102461Y-60767367D01*
X163758210Y-60883359D01*
X163758205Y-60883360D01*
X163428535Y-61035883D01*
X163428522Y-61035890D01*
X163117282Y-61223156D01*
X163117266Y-61223167D01*
X162828075Y-61443002D01*
X162811888Y-61458335D01*
X162811887Y-61458335D01*
X164059301Y-62705748D01*
X163957670Y-62779588D01*
X163779588Y-62957670D01*
X163705748Y-63059300D01*
X162460970Y-61814522D01*
X162460969Y-61814523D01*
X162329177Y-61969680D01*
X162329170Y-61969690D01*
X162125318Y-62270348D01*
X162125316Y-62270352D01*
X161955161Y-62591297D01*
X161955152Y-62591315D01*
X161820697Y-62928772D01*
X161820695Y-62928779D01*
X161723519Y-63278777D01*
X161723517Y-63278785D01*
X161664746Y-63637271D01*
X161645080Y-63999997D01*
X154640500Y-63999997D01*
X154640500Y-62974499D01*
X154660185Y-62907460D01*
X154712989Y-62861705D01*
X154764500Y-62850499D01*
X154937871Y-62850499D01*
X154937872Y-62850499D01*
X154997483Y-62844091D01*
X155132331Y-62793796D01*
X155247546Y-62707546D01*
X155333796Y-62592331D01*
X155384091Y-62457483D01*
X155390500Y-62397873D01*
X155390499Y-60602128D01*
X155385238Y-60553183D01*
X155384091Y-60542516D01*
X155333797Y-60407671D01*
X155333793Y-60407664D01*
X155247547Y-60292455D01*
X155247544Y-60292452D01*
X155132335Y-60206206D01*
X155132328Y-60206202D01*
X154997482Y-60155908D01*
X154997483Y-60155908D01*
X154937883Y-60149501D01*
X154937881Y-60149500D01*
X154937873Y-60149500D01*
X154937864Y-60149500D01*
X153142129Y-60149500D01*
X153142123Y-60149501D01*
X153082516Y-60155908D01*
X152947671Y-60206202D01*
X152947664Y-60206206D01*
X152832455Y-60292452D01*
X152832452Y-60292455D01*
X152746206Y-60407664D01*
X152746203Y-60407669D01*
X152697189Y-60539083D01*
X152655317Y-60595016D01*
X152589853Y-60619433D01*
X152521580Y-60604581D01*
X152493326Y-60583430D01*
X152371402Y-60461506D01*
X152371395Y-60461501D01*
X152177834Y-60325967D01*
X152177830Y-60325965D01*
X152159726Y-60317523D01*
X151963663Y-60226097D01*
X151963659Y-60226096D01*
X151963655Y-60226094D01*
X151735413Y-60164938D01*
X151735403Y-60164936D01*
X151500001Y-60144341D01*
X151499999Y-60144341D01*
X151264596Y-60164936D01*
X151264586Y-60164938D01*
X151036344Y-60226094D01*
X151036335Y-60226098D01*
X150822171Y-60325964D01*
X150822169Y-60325965D01*
X150628597Y-60461505D01*
X150461505Y-60628597D01*
X150331575Y-60814158D01*
X150276998Y-60857783D01*
X150207500Y-60864977D01*
X150145145Y-60833454D01*
X150128425Y-60814158D01*
X149998494Y-60628597D01*
X149831402Y-60461506D01*
X149831395Y-60461501D01*
X149637834Y-60325967D01*
X149637830Y-60325965D01*
X149619726Y-60317523D01*
X149423663Y-60226097D01*
X149423659Y-60226096D01*
X149423655Y-60226094D01*
X149195413Y-60164938D01*
X149195403Y-60164936D01*
X148960001Y-60144341D01*
X148959999Y-60144341D01*
X148724596Y-60164936D01*
X148724586Y-60164938D01*
X148496344Y-60226094D01*
X148496335Y-60226098D01*
X148282171Y-60325964D01*
X148282169Y-60325965D01*
X148088597Y-60461505D01*
X147921505Y-60628597D01*
X147791575Y-60814158D01*
X147736998Y-60857783D01*
X147667500Y-60864977D01*
X147605145Y-60833454D01*
X147588425Y-60814158D01*
X147458494Y-60628597D01*
X147291402Y-60461506D01*
X147291395Y-60461501D01*
X147097834Y-60325967D01*
X147097830Y-60325965D01*
X147079726Y-60317523D01*
X146883663Y-60226097D01*
X146883659Y-60226096D01*
X146883655Y-60226094D01*
X146655413Y-60164938D01*
X146655403Y-60164936D01*
X146420001Y-60144341D01*
X146419999Y-60144341D01*
X146184596Y-60164936D01*
X146184586Y-60164938D01*
X145956344Y-60226094D01*
X145956335Y-60226098D01*
X145742171Y-60325964D01*
X145742169Y-60325965D01*
X145548597Y-60461505D01*
X145381505Y-60628597D01*
X145251575Y-60814158D01*
X145196998Y-60857783D01*
X145127500Y-60864977D01*
X145065145Y-60833454D01*
X145048425Y-60814158D01*
X144918494Y-60628597D01*
X144751402Y-60461506D01*
X144751395Y-60461501D01*
X144557834Y-60325967D01*
X144557830Y-60325965D01*
X144539726Y-60317523D01*
X144343663Y-60226097D01*
X144343659Y-60226096D01*
X144343655Y-60226094D01*
X144115413Y-60164938D01*
X144115403Y-60164936D01*
X143880001Y-60144341D01*
X143879999Y-60144341D01*
X143644596Y-60164936D01*
X143644586Y-60164938D01*
X143416344Y-60226094D01*
X143416335Y-60226098D01*
X143202171Y-60325964D01*
X143202169Y-60325965D01*
X143008597Y-60461505D01*
X142841505Y-60628597D01*
X142711575Y-60814158D01*
X142656998Y-60857783D01*
X142587500Y-60864977D01*
X142525145Y-60833454D01*
X142508425Y-60814158D01*
X142378494Y-60628597D01*
X142211402Y-60461506D01*
X142211395Y-60461501D01*
X142017834Y-60325967D01*
X142017830Y-60325965D01*
X141999726Y-60317523D01*
X141803663Y-60226097D01*
X141803659Y-60226096D01*
X141803655Y-60226094D01*
X141575413Y-60164938D01*
X141575403Y-60164936D01*
X141340001Y-60144341D01*
X141339999Y-60144341D01*
X141104596Y-60164936D01*
X141104586Y-60164938D01*
X140876344Y-60226094D01*
X140876335Y-60226098D01*
X140662171Y-60325964D01*
X140662169Y-60325965D01*
X140468597Y-60461505D01*
X140301505Y-60628597D01*
X140171575Y-60814158D01*
X140116998Y-60857783D01*
X140047500Y-60864977D01*
X139985145Y-60833454D01*
X139968425Y-60814158D01*
X139838494Y-60628597D01*
X139671402Y-60461506D01*
X139671395Y-60461501D01*
X139477834Y-60325967D01*
X139477830Y-60325965D01*
X139459726Y-60317523D01*
X139263663Y-60226097D01*
X139263659Y-60226096D01*
X139263655Y-60226094D01*
X139035413Y-60164938D01*
X139035403Y-60164936D01*
X138800001Y-60144341D01*
X138799999Y-60144341D01*
X138564596Y-60164936D01*
X138564586Y-60164938D01*
X138336344Y-60226094D01*
X138336335Y-60226098D01*
X138122171Y-60325964D01*
X138122169Y-60325965D01*
X137928597Y-60461505D01*
X137761505Y-60628597D01*
X137631575Y-60814158D01*
X137576998Y-60857783D01*
X137507500Y-60864977D01*
X137445145Y-60833454D01*
X137428425Y-60814158D01*
X137298494Y-60628597D01*
X137131402Y-60461506D01*
X137131395Y-60461501D01*
X136937834Y-60325967D01*
X136937830Y-60325965D01*
X136919726Y-60317523D01*
X136723663Y-60226097D01*
X136723659Y-60226096D01*
X136723655Y-60226094D01*
X136495413Y-60164938D01*
X136495403Y-60164936D01*
X136260001Y-60144341D01*
X136259999Y-60144341D01*
X136024596Y-60164936D01*
X136024586Y-60164938D01*
X135796344Y-60226094D01*
X135796335Y-60226098D01*
X135582171Y-60325964D01*
X135582169Y-60325965D01*
X135388597Y-60461505D01*
X135221505Y-60628597D01*
X135091575Y-60814158D01*
X135036998Y-60857783D01*
X134967500Y-60864977D01*
X134905145Y-60833454D01*
X134888425Y-60814158D01*
X134758494Y-60628597D01*
X134591402Y-60461506D01*
X134591395Y-60461501D01*
X134397834Y-60325967D01*
X134397830Y-60325965D01*
X134379726Y-60317523D01*
X134183663Y-60226097D01*
X134183659Y-60226096D01*
X134183655Y-60226094D01*
X133955413Y-60164938D01*
X133955403Y-60164936D01*
X133720001Y-60144341D01*
X133719999Y-60144341D01*
X133484596Y-60164936D01*
X133484586Y-60164938D01*
X133256344Y-60226094D01*
X133256335Y-60226098D01*
X133042171Y-60325964D01*
X133042169Y-60325965D01*
X132848597Y-60461505D01*
X132681505Y-60628597D01*
X132551575Y-60814158D01*
X132496998Y-60857783D01*
X132427500Y-60864977D01*
X132365145Y-60833454D01*
X132348425Y-60814158D01*
X132218494Y-60628597D01*
X132051402Y-60461506D01*
X132051395Y-60461501D01*
X131857834Y-60325967D01*
X131857830Y-60325965D01*
X131839726Y-60317523D01*
X131643663Y-60226097D01*
X131643659Y-60226096D01*
X131643655Y-60226094D01*
X131415413Y-60164938D01*
X131415403Y-60164936D01*
X131180001Y-60144341D01*
X131179999Y-60144341D01*
X130944596Y-60164936D01*
X130944586Y-60164938D01*
X130716344Y-60226094D01*
X130716335Y-60226098D01*
X130502171Y-60325964D01*
X130502169Y-60325965D01*
X130308597Y-60461505D01*
X130141505Y-60628597D01*
X130011575Y-60814158D01*
X129956998Y-60857783D01*
X129887500Y-60864977D01*
X129825145Y-60833454D01*
X129808425Y-60814158D01*
X129678494Y-60628597D01*
X129511402Y-60461506D01*
X129511395Y-60461501D01*
X129317834Y-60325967D01*
X129317830Y-60325965D01*
X129299726Y-60317523D01*
X129103663Y-60226097D01*
X129103659Y-60226096D01*
X129103655Y-60226094D01*
X128875413Y-60164938D01*
X128875403Y-60164936D01*
X128640001Y-60144341D01*
X128639999Y-60144341D01*
X128404596Y-60164936D01*
X128404586Y-60164938D01*
X128176344Y-60226094D01*
X128176335Y-60226098D01*
X127962171Y-60325964D01*
X127962169Y-60325965D01*
X127768597Y-60461505D01*
X127601505Y-60628597D01*
X127471575Y-60814158D01*
X127416998Y-60857783D01*
X127347500Y-60864977D01*
X127285145Y-60833454D01*
X127268425Y-60814158D01*
X127138494Y-60628597D01*
X126971402Y-60461506D01*
X126971395Y-60461501D01*
X126777834Y-60325967D01*
X126777830Y-60325965D01*
X126759726Y-60317523D01*
X126563663Y-60226097D01*
X126563659Y-60226096D01*
X126563655Y-60226094D01*
X126335413Y-60164938D01*
X126335403Y-60164936D01*
X126100001Y-60144341D01*
X126099999Y-60144341D01*
X125864596Y-60164936D01*
X125864586Y-60164938D01*
X125636344Y-60226094D01*
X125636335Y-60226098D01*
X125422171Y-60325964D01*
X125422169Y-60325965D01*
X125228597Y-60461505D01*
X125061505Y-60628597D01*
X124931575Y-60814158D01*
X124876998Y-60857783D01*
X124807500Y-60864977D01*
X124745145Y-60833454D01*
X124728425Y-60814158D01*
X124598494Y-60628597D01*
X124431402Y-60461506D01*
X124431395Y-60461501D01*
X124237834Y-60325967D01*
X124237830Y-60325965D01*
X124219726Y-60317523D01*
X124023663Y-60226097D01*
X124023659Y-60226096D01*
X124023655Y-60226094D01*
X123795413Y-60164938D01*
X123795403Y-60164936D01*
X123560001Y-60144341D01*
X123559999Y-60144341D01*
X123324596Y-60164936D01*
X123324586Y-60164938D01*
X123096344Y-60226094D01*
X123096335Y-60226098D01*
X122882171Y-60325964D01*
X122882169Y-60325965D01*
X122688597Y-60461505D01*
X122521508Y-60628594D01*
X122391269Y-60814595D01*
X122336692Y-60858219D01*
X122267193Y-60865412D01*
X122204839Y-60833890D01*
X122188119Y-60814594D01*
X122058113Y-60628926D01*
X122058108Y-60628920D01*
X121891082Y-60461894D01*
X121697578Y-60326399D01*
X121483492Y-60226570D01*
X121483486Y-60226567D01*
X121270000Y-60169364D01*
X121270000Y-61066988D01*
X121212993Y-61034075D01*
X121085826Y-61000000D01*
X120954174Y-61000000D01*
X120827007Y-61034075D01*
X120770000Y-61066988D01*
X120770000Y-60169364D01*
X120769999Y-60169364D01*
X120556513Y-60226567D01*
X120556507Y-60226570D01*
X120342422Y-60326399D01*
X120342420Y-60326400D01*
X120148926Y-60461886D01*
X120148920Y-60461891D01*
X119981891Y-60628920D01*
X119981886Y-60628926D01*
X119846400Y-60822420D01*
X119846399Y-60822422D01*
X119746570Y-61036507D01*
X119746567Y-61036513D01*
X119689364Y-61249999D01*
X119689364Y-61250000D01*
X120586988Y-61250000D01*
X120554075Y-61307007D01*
X120520000Y-61434174D01*
X120520000Y-61565826D01*
X120554075Y-61692993D01*
X120586988Y-61750000D01*
X119689364Y-61750000D01*
X119746567Y-61963486D01*
X119746570Y-61963492D01*
X119846399Y-62177578D01*
X119981894Y-62371082D01*
X120148917Y-62538105D01*
X120342421Y-62673600D01*
X120556507Y-62773429D01*
X120556516Y-62773433D01*
X120770000Y-62830634D01*
X120770000Y-61933012D01*
X120827007Y-61965925D01*
X120954174Y-62000000D01*
X121085826Y-62000000D01*
X121212993Y-61965925D01*
X121270000Y-61933012D01*
X121270000Y-62830634D01*
X121483483Y-62773433D01*
X121483492Y-62773429D01*
X121697578Y-62673600D01*
X121891082Y-62538105D01*
X122058105Y-62371082D01*
X122188119Y-62185405D01*
X122242696Y-62141781D01*
X122312195Y-62134588D01*
X122374549Y-62166110D01*
X122391269Y-62185405D01*
X122521505Y-62371401D01*
X122688599Y-62538495D01*
X122785384Y-62606265D01*
X122882165Y-62674032D01*
X122882167Y-62674033D01*
X122882170Y-62674035D01*
X123096337Y-62773903D01*
X123324592Y-62835063D01*
X123501034Y-62850500D01*
X123559999Y-62855659D01*
X123560000Y-62855659D01*
X123560001Y-62855659D01*
X123618966Y-62850500D01*
X123795408Y-62835063D01*
X124023663Y-62773903D01*
X124237830Y-62674035D01*
X124431401Y-62538495D01*
X124598495Y-62371401D01*
X124728425Y-62185842D01*
X124783002Y-62142217D01*
X124852500Y-62135023D01*
X124914855Y-62166546D01*
X124931575Y-62185842D01*
X125061281Y-62371082D01*
X125061505Y-62371401D01*
X125228599Y-62538495D01*
X125325384Y-62606265D01*
X125422165Y-62674032D01*
X125422167Y-62674033D01*
X125422170Y-62674035D01*
X125636337Y-62773903D01*
X125864592Y-62835063D01*
X126041034Y-62850500D01*
X126099999Y-62855659D01*
X126100000Y-62855659D01*
X126100001Y-62855659D01*
X126158966Y-62850500D01*
X126335408Y-62835063D01*
X126563663Y-62773903D01*
X126777830Y-62674035D01*
X126971401Y-62538495D01*
X127138495Y-62371401D01*
X127268425Y-62185842D01*
X127323002Y-62142217D01*
X127392500Y-62135023D01*
X127454855Y-62166546D01*
X127471575Y-62185842D01*
X127601281Y-62371082D01*
X127601505Y-62371401D01*
X127768599Y-62538495D01*
X127865384Y-62606265D01*
X127962165Y-62674032D01*
X127962167Y-62674033D01*
X127962170Y-62674035D01*
X128176337Y-62773903D01*
X128404592Y-62835063D01*
X128581034Y-62850500D01*
X128639999Y-62855659D01*
X128640000Y-62855659D01*
X128640001Y-62855659D01*
X128698966Y-62850500D01*
X128875408Y-62835063D01*
X129103663Y-62773903D01*
X129317830Y-62674035D01*
X129511401Y-62538495D01*
X129678495Y-62371401D01*
X129808425Y-62185842D01*
X129863002Y-62142217D01*
X129932500Y-62135023D01*
X129994855Y-62166546D01*
X130011575Y-62185842D01*
X130141281Y-62371082D01*
X130141505Y-62371401D01*
X130308599Y-62538495D01*
X130405384Y-62606265D01*
X130502165Y-62674032D01*
X130502167Y-62674033D01*
X130502170Y-62674035D01*
X130716337Y-62773903D01*
X130944592Y-62835063D01*
X131121034Y-62850500D01*
X131179999Y-62855659D01*
X131180000Y-62855659D01*
X131180001Y-62855659D01*
X131238966Y-62850500D01*
X131415408Y-62835063D01*
X131643663Y-62773903D01*
X131857830Y-62674035D01*
X132051401Y-62538495D01*
X132218495Y-62371401D01*
X132348425Y-62185842D01*
X132403002Y-62142217D01*
X132472500Y-62135023D01*
X132534855Y-62166546D01*
X132551575Y-62185842D01*
X132681281Y-62371082D01*
X132681505Y-62371401D01*
X132848599Y-62538495D01*
X132945384Y-62606265D01*
X133042165Y-62674032D01*
X133042167Y-62674033D01*
X133042170Y-62674035D01*
X133256337Y-62773903D01*
X133484592Y-62835063D01*
X133661034Y-62850500D01*
X133719999Y-62855659D01*
X133720000Y-62855659D01*
X133720001Y-62855659D01*
X133778966Y-62850500D01*
X133955408Y-62835063D01*
X134183663Y-62773903D01*
X134397830Y-62674035D01*
X134591401Y-62538495D01*
X134758495Y-62371401D01*
X134888425Y-62185842D01*
X134943002Y-62142217D01*
X135012500Y-62135023D01*
X135074855Y-62166546D01*
X135091575Y-62185842D01*
X135221281Y-62371082D01*
X135221505Y-62371401D01*
X135388599Y-62538495D01*
X135485384Y-62606265D01*
X135582165Y-62674032D01*
X135582167Y-62674033D01*
X135582170Y-62674035D01*
X135796337Y-62773903D01*
X136024592Y-62835063D01*
X136201034Y-62850500D01*
X136259999Y-62855659D01*
X136260000Y-62855659D01*
X136260001Y-62855659D01*
X136318966Y-62850500D01*
X136495408Y-62835063D01*
X136723663Y-62773903D01*
X136937830Y-62674035D01*
X137131401Y-62538495D01*
X137298495Y-62371401D01*
X137428425Y-62185842D01*
X137483002Y-62142217D01*
X137552500Y-62135023D01*
X137614855Y-62166546D01*
X137631575Y-62185842D01*
X137761281Y-62371082D01*
X137761505Y-62371401D01*
X137928599Y-62538495D01*
X138025384Y-62606265D01*
X138122165Y-62674032D01*
X138122167Y-62674033D01*
X138122170Y-62674035D01*
X138336337Y-62773903D01*
X138564592Y-62835063D01*
X138741034Y-62850500D01*
X138799999Y-62855659D01*
X138800000Y-62855659D01*
X138800001Y-62855659D01*
X138858966Y-62850500D01*
X139035408Y-62835063D01*
X139263663Y-62773903D01*
X139477830Y-62674035D01*
X139671401Y-62538495D01*
X139838495Y-62371401D01*
X139968425Y-62185842D01*
X140023002Y-62142217D01*
X140092500Y-62135023D01*
X140154855Y-62166546D01*
X140171575Y-62185842D01*
X140301281Y-62371082D01*
X140301505Y-62371401D01*
X140468599Y-62538495D01*
X140565384Y-62606265D01*
X140662165Y-62674032D01*
X140662167Y-62674033D01*
X140662170Y-62674035D01*
X140876337Y-62773903D01*
X141104592Y-62835063D01*
X141281034Y-62850500D01*
X141339999Y-62855659D01*
X141340000Y-62855659D01*
X141340001Y-62855659D01*
X141398966Y-62850500D01*
X141575408Y-62835063D01*
X141803663Y-62773903D01*
X142017830Y-62674035D01*
X142211401Y-62538495D01*
X142378495Y-62371401D01*
X142508425Y-62185842D01*
X142563002Y-62142217D01*
X142632500Y-62135023D01*
X142694855Y-62166546D01*
X142711575Y-62185842D01*
X142841281Y-62371082D01*
X142841505Y-62371401D01*
X143008599Y-62538495D01*
X143105384Y-62606265D01*
X143202165Y-62674032D01*
X143202167Y-62674033D01*
X143202170Y-62674035D01*
X143416337Y-62773903D01*
X143644592Y-62835063D01*
X143821034Y-62850500D01*
X143879999Y-62855659D01*
X143880000Y-62855659D01*
X143880001Y-62855659D01*
X143938966Y-62850500D01*
X144115408Y-62835063D01*
X144343663Y-62773903D01*
X144557830Y-62674035D01*
X144751401Y-62538495D01*
X144918495Y-62371401D01*
X145048425Y-62185842D01*
X145103002Y-62142217D01*
X145172500Y-62135023D01*
X145234855Y-62166546D01*
X145251575Y-62185842D01*
X145381281Y-62371082D01*
X145381505Y-62371401D01*
X145548599Y-62538495D01*
X145645384Y-62606265D01*
X145742165Y-62674032D01*
X145742167Y-62674033D01*
X145742170Y-62674035D01*
X145747898Y-62676706D01*
X145800339Y-62722872D01*
X145819500Y-62789090D01*
X145819500Y-63619902D01*
X145799815Y-63686941D01*
X145783181Y-63707583D01*
X144519481Y-64971282D01*
X144519479Y-64971285D01*
X144469361Y-65058094D01*
X144469359Y-65058096D01*
X144440425Y-65108209D01*
X144440424Y-65108210D01*
X144434241Y-65131285D01*
X144399499Y-65260943D01*
X144399499Y-65260945D01*
X144399499Y-65429046D01*
X144399500Y-65429059D01*
X144399500Y-76699902D01*
X144379815Y-76766941D01*
X144363181Y-76787583D01*
X141519482Y-79631281D01*
X141519478Y-79631287D01*
X141471359Y-79714632D01*
X141440424Y-79768212D01*
X141440423Y-79768213D01*
X141399498Y-79920945D01*
X141398438Y-79929003D01*
X141396232Y-79928712D01*
X141379814Y-79984628D01*
X141372445Y-79994903D01*
X141370184Y-79997737D01*
X141274211Y-80150476D01*
X141214631Y-80320745D01*
X141214630Y-80320750D01*
X141194435Y-80499996D01*
X141194435Y-80500003D01*
X141214630Y-80679249D01*
X141214631Y-80679254D01*
X141274211Y-80849523D01*
X141297764Y-80887007D01*
X141370184Y-81002262D01*
X141497738Y-81129816D01*
X141650478Y-81225789D01*
X141741326Y-81257578D01*
X141820745Y-81285368D01*
X141820750Y-81285369D01*
X141999996Y-81305565D01*
X142000000Y-81305565D01*
X142000004Y-81305565D01*
X142179249Y-81285369D01*
X142179252Y-81285368D01*
X142179255Y-81285368D01*
X142349522Y-81225789D01*
X142502262Y-81129816D01*
X142629816Y-81002262D01*
X142725789Y-80849522D01*
X142785368Y-80679255D01*
X142790854Y-80630567D01*
X142805565Y-80500003D01*
X142805565Y-80499996D01*
X142785369Y-80320750D01*
X142785367Y-80320740D01*
X142744515Y-80203995D01*
X142740952Y-80134216D01*
X142773873Y-80075360D01*
X145362416Y-77486819D01*
X145423737Y-77453336D01*
X145493429Y-77458320D01*
X145549362Y-77500192D01*
X145573779Y-77565656D01*
X145574095Y-77574502D01*
X145574095Y-81625500D01*
X145554410Y-81692539D01*
X145501606Y-81738294D01*
X145450095Y-81749500D01*
X116426080Y-81749500D01*
X116281092Y-81778340D01*
X116281082Y-81778343D01*
X116144511Y-81834912D01*
X116144498Y-81834919D01*
X116021584Y-81917048D01*
X116021580Y-81917051D01*
X114637050Y-83301580D01*
X114637044Y-83301588D01*
X114587812Y-83375268D01*
X114587813Y-83375269D01*
X114554921Y-83424496D01*
X114554914Y-83424508D01*
X114498342Y-83561086D01*
X114498340Y-83561092D01*
X114469500Y-83706079D01*
X114469500Y-85174582D01*
X114449815Y-85241621D01*
X114418385Y-85274900D01*
X114372787Y-85308028D01*
X114372782Y-85308032D01*
X114228028Y-85452786D01*
X114107715Y-85618386D01*
X114014781Y-85800776D01*
X113951522Y-85995465D01*
X113919500Y-86197648D01*
X80500500Y-86197648D01*
X80500500Y-74419998D01*
X92694532Y-74419998D01*
X92694532Y-74420001D01*
X92714364Y-74646686D01*
X92714366Y-74646697D01*
X92773258Y-74866488D01*
X92773261Y-74866497D01*
X92869431Y-75072732D01*
X92869432Y-75072734D01*
X92999954Y-75259141D01*
X93160858Y-75420045D01*
X93254021Y-75485278D01*
X93297646Y-75539854D01*
X93304840Y-75609353D01*
X93273317Y-75671708D01*
X93213088Y-75707122D01*
X93196152Y-75710143D01*
X93142516Y-75715908D01*
X93007671Y-75766202D01*
X93007664Y-75766206D01*
X92892455Y-75852452D01*
X92892452Y-75852455D01*
X92806206Y-75967664D01*
X92806202Y-75967671D01*
X92755908Y-76102517D01*
X92749501Y-76162116D01*
X92749501Y-76162123D01*
X92749500Y-76162135D01*
X92749500Y-77757870D01*
X92749501Y-77757876D01*
X92755908Y-77817483D01*
X92806202Y-77952328D01*
X92806206Y-77952335D01*
X92892452Y-78067544D01*
X92892455Y-78067547D01*
X93007664Y-78153793D01*
X93007671Y-78153797D01*
X93052618Y-78170561D01*
X93142517Y-78204091D01*
X93196157Y-78209858D01*
X93260703Y-78236594D01*
X93300552Y-78293986D01*
X93303047Y-78363811D01*
X93267395Y-78423900D01*
X93254022Y-78434721D01*
X93160856Y-78499956D01*
X92999954Y-78660858D01*
X92869432Y-78847265D01*
X92869431Y-78847267D01*
X92773261Y-79053502D01*
X92773258Y-79053511D01*
X92714366Y-79273302D01*
X92714364Y-79273313D01*
X92694532Y-79499998D01*
X92694532Y-79500001D01*
X92713625Y-79718240D01*
X92714365Y-79726692D01*
X92725491Y-79768215D01*
X92773258Y-79946488D01*
X92773261Y-79946497D01*
X92869431Y-80152732D01*
X92869432Y-80152734D01*
X92999954Y-80339141D01*
X93160858Y-80500045D01*
X93160861Y-80500047D01*
X93347266Y-80630568D01*
X93553504Y-80726739D01*
X93773308Y-80785635D01*
X93935230Y-80799801D01*
X93999998Y-80805468D01*
X94000000Y-80805468D01*
X94000002Y-80805468D01*
X94056673Y-80800509D01*
X94226692Y-80785635D01*
X94446496Y-80726739D01*
X94652734Y-80630568D01*
X94839139Y-80500047D01*
X95000047Y-80339139D01*
X95130568Y-80152734D01*
X95226739Y-79946496D01*
X95285635Y-79726692D01*
X95305468Y-79500000D01*
X95285635Y-79273308D01*
X95226739Y-79053504D01*
X95130568Y-78847266D01*
X95000047Y-78660861D01*
X95000045Y-78660858D01*
X94839141Y-78499954D01*
X94745978Y-78434721D01*
X94702353Y-78380144D01*
X94695159Y-78310646D01*
X94726682Y-78248291D01*
X94786911Y-78212877D01*
X94803842Y-78209857D01*
X94857483Y-78204091D01*
X94992331Y-78153796D01*
X95107546Y-78067546D01*
X95193796Y-77952331D01*
X95244091Y-77817483D01*
X95250500Y-77757873D01*
X95250499Y-76162128D01*
X95244091Y-76102517D01*
X95193796Y-75967669D01*
X95193795Y-75967668D01*
X95193793Y-75967664D01*
X95107547Y-75852455D01*
X95107544Y-75852452D01*
X94992335Y-75766206D01*
X94992328Y-75766202D01*
X94857482Y-75715908D01*
X94857483Y-75715908D01*
X94803846Y-75710142D01*
X94739295Y-75683404D01*
X94699446Y-75626012D01*
X94696953Y-75556187D01*
X94732605Y-75496098D01*
X94745972Y-75485282D01*
X94839139Y-75420047D01*
X95000047Y-75259139D01*
X95130568Y-75072734D01*
X95226739Y-74866496D01*
X95285635Y-74646692D01*
X95305468Y-74420000D01*
X95285635Y-74193308D01*
X95226739Y-73973504D01*
X95130568Y-73767266D01*
X95000047Y-73580861D01*
X95000045Y-73580858D01*
X94839141Y-73419954D01*
X94652734Y-73289432D01*
X94652732Y-73289431D01*
X94446497Y-73193261D01*
X94446488Y-73193258D01*
X94226697Y-73134366D01*
X94226693Y-73134365D01*
X94226692Y-73134365D01*
X94226691Y-73134364D01*
X94226686Y-73134364D01*
X94000002Y-73114532D01*
X93999998Y-73114532D01*
X93773313Y-73134364D01*
X93773302Y-73134366D01*
X93553511Y-73193258D01*
X93553502Y-73193261D01*
X93347267Y-73289431D01*
X93347265Y-73289432D01*
X93160858Y-73419954D01*
X92999954Y-73580858D01*
X92869432Y-73767265D01*
X92869431Y-73767267D01*
X92773261Y-73973502D01*
X92773258Y-73973511D01*
X92714366Y-74193302D01*
X92714364Y-74193313D01*
X92694532Y-74419998D01*
X80500500Y-74419998D01*
X80500500Y-67499996D01*
X101694435Y-67499996D01*
X101694435Y-67500003D01*
X101714630Y-67679249D01*
X101714631Y-67679254D01*
X101774211Y-67849523D01*
X101870184Y-68002262D01*
X101997738Y-68129816D01*
X102088080Y-68186582D01*
X102150474Y-68225787D01*
X102150478Y-68225789D01*
X102320745Y-68285368D01*
X102320750Y-68285369D01*
X102499996Y-68305565D01*
X102500000Y-68305565D01*
X102500004Y-68305565D01*
X102679249Y-68285369D01*
X102679252Y-68285368D01*
X102679255Y-68285368D01*
X102849522Y-68225789D01*
X102850488Y-68225181D01*
X102859523Y-68219506D01*
X102925494Y-68200500D01*
X105074506Y-68200500D01*
X105140477Y-68219506D01*
X105150474Y-68225787D01*
X105150475Y-68225787D01*
X105150478Y-68225789D01*
X105320745Y-68285368D01*
X105320750Y-68285369D01*
X105499996Y-68305565D01*
X105500000Y-68305565D01*
X105500004Y-68305565D01*
X105679249Y-68285369D01*
X105679252Y-68285368D01*
X105679255Y-68285368D01*
X105849522Y-68225789D01*
X106002262Y-68129816D01*
X106129816Y-68002262D01*
X106225789Y-67849522D01*
X106285368Y-67679255D01*
X106305565Y-67500000D01*
X106288664Y-67350000D01*
X106285369Y-67320750D01*
X106285368Y-67320745D01*
X106225789Y-67150478D01*
X106129816Y-66997738D01*
X106002262Y-66870184D01*
X105849523Y-66774211D01*
X105679254Y-66714631D01*
X105679249Y-66714630D01*
X105500004Y-66694435D01*
X105499996Y-66694435D01*
X105320750Y-66714630D01*
X105320745Y-66714631D01*
X105150474Y-66774212D01*
X105140477Y-66780494D01*
X105074506Y-66799500D01*
X102925494Y-66799500D01*
X102859523Y-66780494D01*
X102849525Y-66774212D01*
X102679254Y-66714631D01*
X102679249Y-66714630D01*
X102500004Y-66694435D01*
X102499996Y-66694435D01*
X102320750Y-66714630D01*
X102320745Y-66714631D01*
X102150476Y-66774211D01*
X101997737Y-66870184D01*
X101870184Y-66997737D01*
X101774211Y-67150476D01*
X101714631Y-67320745D01*
X101714630Y-67320750D01*
X101694435Y-67499996D01*
X80500500Y-67499996D01*
X80500500Y-64002706D01*
X80500559Y-63999997D01*
X81645080Y-63999997D01*
X81645080Y-64000002D01*
X81664746Y-64362728D01*
X81723517Y-64721214D01*
X81723519Y-64721222D01*
X81820695Y-65071220D01*
X81820697Y-65071227D01*
X81955152Y-65408684D01*
X81955161Y-65408702D01*
X82125316Y-65729647D01*
X82125318Y-65729651D01*
X82329170Y-66030309D01*
X82329177Y-66030319D01*
X82460969Y-66185475D01*
X82460970Y-66185475D01*
X83705748Y-64940698D01*
X83779588Y-65042330D01*
X83957670Y-65220412D01*
X84059300Y-65294251D01*
X82811888Y-66541662D01*
X82811888Y-66541664D01*
X82828070Y-66556992D01*
X82828071Y-66556993D01*
X83117266Y-66776832D01*
X83117282Y-66776843D01*
X83428522Y-66964109D01*
X83428535Y-66964116D01*
X83758205Y-67116639D01*
X83758210Y-67116640D01*
X84102461Y-67232632D01*
X84457235Y-67310724D01*
X84818366Y-67349999D01*
X84818374Y-67350000D01*
X85181626Y-67350000D01*
X85181633Y-67349999D01*
X85542764Y-67310724D01*
X85897538Y-67232632D01*
X86241789Y-67116640D01*
X86241794Y-67116639D01*
X86571464Y-66964116D01*
X86571477Y-66964109D01*
X86882717Y-66776843D01*
X86882733Y-66776832D01*
X87171929Y-66556992D01*
X87188110Y-66541664D01*
X87188110Y-66541663D01*
X85940698Y-65294251D01*
X86042330Y-65220412D01*
X86220412Y-65042330D01*
X86294251Y-64940698D01*
X87539028Y-66185475D01*
X87539029Y-66185475D01*
X87670827Y-66030311D01*
X87670838Y-66030297D01*
X87874681Y-65729651D01*
X87874683Y-65729647D01*
X88044838Y-65408702D01*
X88044847Y-65408684D01*
X88179302Y-65071227D01*
X88179304Y-65071220D01*
X88205207Y-64977927D01*
X98577427Y-64977927D01*
X98577427Y-65131348D01*
X99327427Y-65131348D01*
X99327427Y-65631348D01*
X98577427Y-65631348D01*
X98577427Y-65784768D01*
X98617775Y-65987614D01*
X98617777Y-65987622D01*
X98696927Y-66178706D01*
X98696932Y-66178716D01*
X98811837Y-66350683D01*
X98811840Y-66350687D01*
X98958087Y-66496934D01*
X98958091Y-66496937D01*
X99130058Y-66611842D01*
X99130068Y-66611847D01*
X99321150Y-66690996D01*
X99321152Y-66690997D01*
X99377427Y-66702190D01*
X99377427Y-65848336D01*
X99387367Y-65865553D01*
X99443222Y-65921408D01*
X99511631Y-65960904D01*
X99587931Y-65981348D01*
X99666923Y-65981348D01*
X99743223Y-65960904D01*
X99811632Y-65921408D01*
X99867487Y-65865553D01*
X99877427Y-65848336D01*
X99877427Y-66702190D01*
X99933701Y-66690997D01*
X99933703Y-66690996D01*
X100124785Y-66611847D01*
X100124795Y-66611842D01*
X100296762Y-66496937D01*
X100296766Y-66496934D01*
X100443013Y-66350687D01*
X100443016Y-66350683D01*
X100557921Y-66178716D01*
X100557926Y-66178706D01*
X100637076Y-65987622D01*
X100637078Y-65987614D01*
X100677426Y-65784768D01*
X100677427Y-65784765D01*
X100677427Y-65631348D01*
X99927427Y-65631348D01*
X99927427Y-65131348D01*
X100677427Y-65131348D01*
X100677427Y-64977931D01*
X100677426Y-64977927D01*
X107217427Y-64977927D01*
X107217427Y-65131348D01*
X107967427Y-65131348D01*
X107967427Y-65631348D01*
X107217427Y-65631348D01*
X107217427Y-65784768D01*
X107257775Y-65987614D01*
X107257777Y-65987622D01*
X107336927Y-66178706D01*
X107336932Y-66178716D01*
X107451837Y-66350683D01*
X107451840Y-66350687D01*
X107598087Y-66496934D01*
X107598091Y-66496937D01*
X107770058Y-66611842D01*
X107770068Y-66611847D01*
X107961150Y-66690996D01*
X107961152Y-66690997D01*
X108017427Y-66702190D01*
X108017427Y-65848336D01*
X108027367Y-65865553D01*
X108083222Y-65921408D01*
X108151631Y-65960904D01*
X108227931Y-65981348D01*
X108306923Y-65981348D01*
X108383223Y-65960904D01*
X108451632Y-65921408D01*
X108507487Y-65865553D01*
X108517427Y-65848336D01*
X108517427Y-66702190D01*
X108573701Y-66690997D01*
X108573703Y-66690996D01*
X108764785Y-66611847D01*
X108764795Y-66611842D01*
X108936762Y-66496937D01*
X108936766Y-66496934D01*
X109083013Y-66350687D01*
X109083016Y-66350683D01*
X109197921Y-66178716D01*
X109197926Y-66178706D01*
X109277076Y-65987622D01*
X109277078Y-65987614D01*
X109317426Y-65784768D01*
X109317427Y-65784765D01*
X109317427Y-65631348D01*
X108567427Y-65631348D01*
X108567427Y-65131348D01*
X109317427Y-65131348D01*
X109317427Y-64977931D01*
X109317426Y-64977927D01*
X109277078Y-64775081D01*
X109277076Y-64775073D01*
X109197926Y-64583989D01*
X109197921Y-64583979D01*
X109083016Y-64412012D01*
X109083013Y-64412008D01*
X108936766Y-64265761D01*
X108936762Y-64265758D01*
X108764795Y-64150853D01*
X108764785Y-64150848D01*
X108573699Y-64071697D01*
X108573694Y-64071695D01*
X108517427Y-64060503D01*
X108517427Y-64914359D01*
X108507487Y-64897143D01*
X108451632Y-64841288D01*
X108383223Y-64801792D01*
X108306923Y-64781348D01*
X108227931Y-64781348D01*
X108151631Y-64801792D01*
X108083222Y-64841288D01*
X108027367Y-64897143D01*
X108017427Y-64914359D01*
X108017427Y-64060504D01*
X108017426Y-64060503D01*
X107961159Y-64071695D01*
X107961154Y-64071697D01*
X107770068Y-64150848D01*
X107770058Y-64150853D01*
X107598091Y-64265758D01*
X107598087Y-64265761D01*
X107451840Y-64412008D01*
X107451837Y-64412012D01*
X107336932Y-64583979D01*
X107336927Y-64583989D01*
X107257777Y-64775073D01*
X107257775Y-64775081D01*
X107217427Y-64977927D01*
X100677426Y-64977927D01*
X100637078Y-64775081D01*
X100637076Y-64775073D01*
X100557926Y-64583989D01*
X100557921Y-64583979D01*
X100443016Y-64412012D01*
X100443013Y-64412008D01*
X100296766Y-64265761D01*
X100296762Y-64265758D01*
X100124795Y-64150853D01*
X100124785Y-64150848D01*
X99933699Y-64071697D01*
X99933694Y-64071695D01*
X99877427Y-64060503D01*
X99877427Y-64914359D01*
X99867487Y-64897143D01*
X99811632Y-64841288D01*
X99743223Y-64801792D01*
X99666923Y-64781348D01*
X99587931Y-64781348D01*
X99511631Y-64801792D01*
X99443222Y-64841288D01*
X99387367Y-64897143D01*
X99377427Y-64914359D01*
X99377427Y-64060504D01*
X99377426Y-64060503D01*
X99321159Y-64071695D01*
X99321154Y-64071697D01*
X99130068Y-64150848D01*
X99130058Y-64150853D01*
X98958091Y-64265758D01*
X98958087Y-64265761D01*
X98811840Y-64412008D01*
X98811837Y-64412012D01*
X98696932Y-64583979D01*
X98696927Y-64583989D01*
X98617777Y-64775073D01*
X98617775Y-64775081D01*
X98577427Y-64977927D01*
X88205207Y-64977927D01*
X88276480Y-64721222D01*
X88276482Y-64721214D01*
X88335253Y-64362728D01*
X88354920Y-64000002D01*
X88354920Y-63999997D01*
X88335253Y-63637271D01*
X88276482Y-63278785D01*
X88276480Y-63278777D01*
X88179304Y-62928779D01*
X88179302Y-62928772D01*
X88044847Y-62591315D01*
X88044838Y-62591297D01*
X87874683Y-62270352D01*
X87874681Y-62270348D01*
X87670829Y-61969690D01*
X87670822Y-61969680D01*
X87539029Y-61814523D01*
X87539028Y-61814523D01*
X86294251Y-63059300D01*
X86220412Y-62957670D01*
X86042330Y-62779588D01*
X85940698Y-62705748D01*
X87188110Y-61458336D01*
X87188110Y-61458334D01*
X87171929Y-61443007D01*
X87171928Y-61443006D01*
X86882733Y-61223167D01*
X86882717Y-61223156D01*
X86807545Y-61177927D01*
X98577427Y-61177927D01*
X98577427Y-61331348D01*
X99327427Y-61331348D01*
X99327427Y-61831348D01*
X98577427Y-61831348D01*
X98577427Y-61984768D01*
X98617775Y-62187614D01*
X98617777Y-62187622D01*
X98696927Y-62378706D01*
X98696932Y-62378716D01*
X98811837Y-62550683D01*
X98811840Y-62550687D01*
X98958087Y-62696934D01*
X98958091Y-62696937D01*
X99130058Y-62811842D01*
X99130068Y-62811847D01*
X99321150Y-62890996D01*
X99321152Y-62890997D01*
X99377427Y-62902190D01*
X99377427Y-62048336D01*
X99387367Y-62065553D01*
X99443222Y-62121408D01*
X99511631Y-62160904D01*
X99587931Y-62181348D01*
X99666923Y-62181348D01*
X99743223Y-62160904D01*
X99811632Y-62121408D01*
X99867487Y-62065553D01*
X99877427Y-62048336D01*
X99877427Y-62902190D01*
X99933701Y-62890997D01*
X99933703Y-62890996D01*
X100124785Y-62811847D01*
X100124795Y-62811842D01*
X100296762Y-62696937D01*
X100296766Y-62696934D01*
X100443013Y-62550687D01*
X100443016Y-62550683D01*
X100557921Y-62378716D01*
X100557926Y-62378706D01*
X100637076Y-62187622D01*
X100637078Y-62187614D01*
X100677426Y-61984768D01*
X100677427Y-61984765D01*
X100677427Y-61831348D01*
X99927427Y-61831348D01*
X99927427Y-61331348D01*
X100677427Y-61331348D01*
X100677427Y-61177931D01*
X100677426Y-61177927D01*
X107217427Y-61177927D01*
X107217427Y-61331348D01*
X107967427Y-61331348D01*
X107967427Y-61831348D01*
X107217427Y-61831348D01*
X107217427Y-61984768D01*
X107257775Y-62187614D01*
X107257777Y-62187622D01*
X107336927Y-62378706D01*
X107336932Y-62378716D01*
X107451837Y-62550683D01*
X107451840Y-62550687D01*
X107598087Y-62696934D01*
X107598091Y-62696937D01*
X107770058Y-62811842D01*
X107770068Y-62811847D01*
X107961150Y-62890996D01*
X107961152Y-62890997D01*
X108017427Y-62902190D01*
X108017427Y-62048336D01*
X108027367Y-62065553D01*
X108083222Y-62121408D01*
X108151631Y-62160904D01*
X108227931Y-62181348D01*
X108306923Y-62181348D01*
X108383223Y-62160904D01*
X108451632Y-62121408D01*
X108507487Y-62065553D01*
X108517427Y-62048336D01*
X108517427Y-62902190D01*
X108573701Y-62890997D01*
X108573703Y-62890996D01*
X108764785Y-62811847D01*
X108764795Y-62811842D01*
X108936762Y-62696937D01*
X108936766Y-62696934D01*
X109083013Y-62550687D01*
X109083016Y-62550683D01*
X109197921Y-62378716D01*
X109197926Y-62378706D01*
X109277076Y-62187622D01*
X109277078Y-62187614D01*
X109317426Y-61984768D01*
X109317427Y-61984765D01*
X109317427Y-61831348D01*
X108567427Y-61831348D01*
X108567427Y-61331348D01*
X109317427Y-61331348D01*
X109317427Y-61177931D01*
X109317426Y-61177927D01*
X109277078Y-60975081D01*
X109277076Y-60975073D01*
X109197926Y-60783989D01*
X109197921Y-60783979D01*
X109083016Y-60612012D01*
X109083013Y-60612008D01*
X108936766Y-60465761D01*
X108936762Y-60465758D01*
X108764795Y-60350853D01*
X108764785Y-60350848D01*
X108573699Y-60271697D01*
X108573694Y-60271695D01*
X108517427Y-60260503D01*
X108517427Y-61114359D01*
X108507487Y-61097143D01*
X108451632Y-61041288D01*
X108383223Y-61001792D01*
X108306923Y-60981348D01*
X108227931Y-60981348D01*
X108151631Y-61001792D01*
X108083222Y-61041288D01*
X108027367Y-61097143D01*
X108017427Y-61114359D01*
X108017427Y-60260504D01*
X108017426Y-60260503D01*
X107961159Y-60271695D01*
X107961154Y-60271697D01*
X107770068Y-60350848D01*
X107770058Y-60350853D01*
X107598091Y-60465758D01*
X107598087Y-60465761D01*
X107451840Y-60612008D01*
X107451837Y-60612012D01*
X107336932Y-60783979D01*
X107336927Y-60783989D01*
X107257777Y-60975073D01*
X107257775Y-60975081D01*
X107217427Y-61177927D01*
X100677426Y-61177927D01*
X100637078Y-60975081D01*
X100637076Y-60975073D01*
X100557926Y-60783989D01*
X100557921Y-60783979D01*
X100443016Y-60612012D01*
X100443013Y-60612008D01*
X100296766Y-60465761D01*
X100296762Y-60465758D01*
X100124795Y-60350853D01*
X100124785Y-60350848D01*
X99933699Y-60271697D01*
X99933694Y-60271695D01*
X99877427Y-60260503D01*
X99877427Y-61114359D01*
X99867487Y-61097143D01*
X99811632Y-61041288D01*
X99743223Y-61001792D01*
X99666923Y-60981348D01*
X99587931Y-60981348D01*
X99511631Y-61001792D01*
X99443222Y-61041288D01*
X99387367Y-61097143D01*
X99377427Y-61114359D01*
X99377427Y-60260504D01*
X99377426Y-60260503D01*
X99321159Y-60271695D01*
X99321154Y-60271697D01*
X99130068Y-60350848D01*
X99130058Y-60350853D01*
X98958091Y-60465758D01*
X98958087Y-60465761D01*
X98811840Y-60612008D01*
X98811837Y-60612012D01*
X98696932Y-60783979D01*
X98696927Y-60783989D01*
X98617777Y-60975073D01*
X98617775Y-60975081D01*
X98577427Y-61177927D01*
X86807545Y-61177927D01*
X86571477Y-61035890D01*
X86571464Y-61035883D01*
X86241794Y-60883360D01*
X86241789Y-60883359D01*
X85897538Y-60767367D01*
X85542764Y-60689275D01*
X85181633Y-60650000D01*
X84818366Y-60650000D01*
X84457235Y-60689275D01*
X84102461Y-60767367D01*
X83758210Y-60883359D01*
X83758205Y-60883360D01*
X83428535Y-61035883D01*
X83428522Y-61035890D01*
X83117282Y-61223156D01*
X83117266Y-61223167D01*
X82828075Y-61443002D01*
X82811888Y-61458335D01*
X82811887Y-61458335D01*
X84059301Y-62705748D01*
X83957670Y-62779588D01*
X83779588Y-62957670D01*
X83705748Y-63059300D01*
X82460970Y-61814522D01*
X82460969Y-61814523D01*
X82329177Y-61969680D01*
X82329170Y-61969690D01*
X82125318Y-62270348D01*
X82125316Y-62270352D01*
X81955161Y-62591297D01*
X81955152Y-62591315D01*
X81820697Y-62928772D01*
X81820695Y-62928779D01*
X81723519Y-63278777D01*
X81723517Y-63278785D01*
X81664746Y-63637271D01*
X81645080Y-63999997D01*
X80500559Y-63999997D01*
X80500618Y-63997297D01*
X80505998Y-63874077D01*
X80517386Y-63613226D01*
X80518326Y-63602495D01*
X80568152Y-63224025D01*
X80570025Y-63213405D01*
X80652649Y-62840709D01*
X80655440Y-62830295D01*
X80770230Y-62466227D01*
X80773917Y-62456095D01*
X80920003Y-62103412D01*
X80924561Y-62093638D01*
X81100822Y-61755045D01*
X81106217Y-61745700D01*
X81311325Y-61423744D01*
X81317515Y-61414905D01*
X81549896Y-61112060D01*
X81556834Y-61103791D01*
X81814726Y-60822352D01*
X81822352Y-60814726D01*
X82103791Y-60556834D01*
X82112060Y-60549896D01*
X82414905Y-60317515D01*
X82423744Y-60311325D01*
X82745700Y-60106217D01*
X82755045Y-60100822D01*
X83093638Y-59924561D01*
X83103412Y-59920003D01*
X83456095Y-59773917D01*
X83466227Y-59770230D01*
X83830295Y-59655440D01*
X83840709Y-59652649D01*
X84213405Y-59570025D01*
X84224025Y-59568152D01*
X84602495Y-59518326D01*
X84613226Y-59517386D01*
X84997297Y-59500617D01*
X85002706Y-59500500D01*
X85065892Y-59500500D01*
X164934108Y-59500500D01*
X164997294Y-59500500D01*
X165002702Y-59500617D01*
G37*
%TD.AperFunction*%
%TD*%
M02*
