%TF.GenerationSoftware,KiCad,Pcbnew,8.0.3*%
%TF.CreationDate,2024-07-15T12:03:27+02:00*%
%TF.ProjectId,nanoComp,6e616e6f-436f-46d7-902e-6b696361645f,A*%
%TF.SameCoordinates,Original*%
%TF.FileFunction,Soldermask,Top*%
%TF.FilePolarity,Negative*%
%FSLAX46Y46*%
G04 Gerber Fmt 4.6, Leading zero omitted, Abs format (unit mm)*
G04 Created by KiCad (PCBNEW 8.0.3) date 2024-07-15 12:03:27*
%MOMM*%
%LPD*%
G01*
G04 APERTURE LIST*
G04 Aperture macros list*
%AMRoundRect*
0 Rectangle with rounded corners*
0 $1 Rounding radius*
0 $2 $3 $4 $5 $6 $7 $8 $9 X,Y pos of 4 corners*
0 Add a 4 corners polygon primitive as box body*
4,1,4,$2,$3,$4,$5,$6,$7,$8,$9,$2,$3,0*
0 Add four circle primitives for the rounded corners*
1,1,$1+$1,$2,$3*
1,1,$1+$1,$4,$5*
1,1,$1+$1,$6,$7*
1,1,$1+$1,$8,$9*
0 Add four rect primitives between the rounded corners*
20,1,$1+$1,$2,$3,$4,$5,0*
20,1,$1+$1,$4,$5,$6,$7,0*
20,1,$1+$1,$6,$7,$8,$9,0*
20,1,$1+$1,$8,$9,$2,$3,0*%
G04 Aperture macros list end*
%ADD10RoundRect,0.175000X0.175000X0.425000X-0.175000X0.425000X-0.175000X-0.425000X0.175000X-0.425000X0*%
%ADD11RoundRect,0.190000X-0.190000X-0.410000X0.190000X-0.410000X0.190000X0.410000X-0.190000X0.410000X0*%
%ADD12RoundRect,0.200000X-0.200000X-0.400000X0.200000X-0.400000X0.200000X0.400000X-0.200000X0.400000X0*%
%ADD13RoundRect,0.175000X-0.175000X-0.425000X0.175000X-0.425000X0.175000X0.425000X-0.175000X0.425000X0*%
%ADD14RoundRect,0.190000X0.190000X0.410000X-0.190000X0.410000X-0.190000X-0.410000X0.190000X-0.410000X0*%
%ADD15RoundRect,0.200000X0.200000X0.400000X-0.200000X0.400000X-0.200000X-0.400000X0.200000X-0.400000X0*%
%ADD16O,1.100000X1.700000*%
%ADD17R,1.700000X1.700000*%
%ADD18O,1.700000X1.700000*%
%ADD19RoundRect,0.250000X-0.337500X-0.475000X0.337500X-0.475000X0.337500X0.475000X-0.337500X0.475000X0*%
%ADD20R,1.600000X1.500000*%
%ADD21C,1.600000*%
%ADD22C,3.000000*%
%ADD23C,5.700000*%
%ADD24RoundRect,0.250000X0.262500X0.450000X-0.262500X0.450000X-0.262500X-0.450000X0.262500X-0.450000X0*%
%ADD25R,1.500000X2.000000*%
%ADD26O,1.600000X2.000000*%
%ADD27RoundRect,0.250000X0.325000X0.450000X-0.325000X0.450000X-0.325000X-0.450000X0.325000X-0.450000X0*%
%ADD28RoundRect,0.250000X0.450000X-0.262500X0.450000X0.262500X-0.450000X0.262500X-0.450000X-0.262500X0*%
%ADD29RoundRect,0.250000X-0.450000X0.262500X-0.450000X-0.262500X0.450000X-0.262500X0.450000X0.262500X0*%
%ADD30RoundRect,0.225000X0.375000X-0.225000X0.375000X0.225000X-0.375000X0.225000X-0.375000X-0.225000X0*%
%ADD31R,1.500000X1.500000*%
G04 APERTURE END LIST*
D10*
%TO.C,J1*%
X104447427Y-65461348D03*
D11*
X102427427Y-65461348D03*
D12*
X101197427Y-65461348D03*
D13*
X103447427Y-65461348D03*
D14*
X105467427Y-65461348D03*
D15*
X106697427Y-65461348D03*
D16*
X108267427Y-65381348D03*
X108267427Y-61581348D03*
X99627427Y-65381348D03*
X99627427Y-61581348D03*
%TD*%
D17*
%TO.C,J5*%
X154040000Y-61500000D03*
D18*
X151500000Y-61500000D03*
X148960000Y-61500000D03*
X146420000Y-61500000D03*
X143880000Y-61500000D03*
X141340000Y-61500000D03*
X138800000Y-61500000D03*
X136260000Y-61500000D03*
X133720000Y-61500000D03*
X131180000Y-61500000D03*
X128640000Y-61500000D03*
X126100000Y-61500000D03*
X123560000Y-61500000D03*
X121020000Y-61500000D03*
%TD*%
D17*
%TO.C,J6*%
X167000000Y-72960000D03*
D18*
X167000000Y-75500000D03*
X167000000Y-78040000D03*
X167000000Y-80580000D03*
%TD*%
D19*
%TO.C,C1*%
X105462500Y-80250000D03*
X107537500Y-80250000D03*
%TD*%
D20*
%TO.C,J3*%
X120000000Y-119700000D03*
D21*
X122500000Y-119700000D03*
X124500000Y-119700000D03*
X127000000Y-119700000D03*
D22*
X116930000Y-122410000D03*
X130070000Y-122410000D03*
%TD*%
D23*
%TO.C,H2*%
X85000000Y-124000000D03*
%TD*%
D20*
%TO.C,J2*%
X98000000Y-119700000D03*
D21*
X100500000Y-119700000D03*
X102500000Y-119700000D03*
X105000000Y-119700000D03*
D22*
X94930000Y-122410000D03*
X108070000Y-122410000D03*
%TD*%
D17*
%TO.C,J4*%
X140000000Y-126000000D03*
D18*
X142540000Y-126000000D03*
X145080000Y-126000000D03*
X147620000Y-126000000D03*
X150160000Y-126000000D03*
X152700000Y-126000000D03*
%TD*%
D24*
%TO.C,R1*%
X103000000Y-69500000D03*
X101175000Y-69500000D03*
%TD*%
%TO.C,R3*%
X93912500Y-88500000D03*
X92087500Y-88500000D03*
%TD*%
D23*
%TO.C,H1*%
X85000000Y-64000000D03*
%TD*%
%TO.C,H3*%
X165000000Y-124000000D03*
%TD*%
D25*
%TO.C,U1*%
X115220000Y-106820000D03*
D26*
X117760000Y-106820000D03*
X120300000Y-106820000D03*
X122840000Y-106820000D03*
X125380000Y-106820000D03*
X127920000Y-106820000D03*
X130460000Y-106820000D03*
X133000000Y-106820000D03*
X135540000Y-106820000D03*
X138080000Y-106820000D03*
X140620000Y-106820000D03*
X143160000Y-106820000D03*
X145700000Y-106820000D03*
X148240000Y-106820000D03*
X150780000Y-106820000D03*
X153320000Y-106820000D03*
X155860000Y-106820000D03*
X158400000Y-106820000D03*
X160940000Y-106820000D03*
X163480000Y-106820000D03*
X163480000Y-86500000D03*
X160940000Y-86500000D03*
X158400000Y-86500000D03*
X155860000Y-86500000D03*
X153320000Y-86500000D03*
X150780000Y-86500000D03*
X148240000Y-86500000D03*
X145700000Y-86500000D03*
X143160000Y-86500000D03*
X140620000Y-86500000D03*
X138080000Y-86500000D03*
X135540000Y-86500000D03*
X133000000Y-86500000D03*
X130460000Y-86500000D03*
X127920000Y-86500000D03*
X125380000Y-86500000D03*
X122840000Y-86500000D03*
X120300000Y-86500000D03*
X117760000Y-86500000D03*
X115220000Y-86500000D03*
%TD*%
D27*
%TO.C,D2*%
X94050000Y-92000000D03*
X92000000Y-92000000D03*
%TD*%
D28*
%TO.C,R4*%
X145500000Y-119912500D03*
X145500000Y-118087500D03*
%TD*%
D29*
%TO.C,R5*%
X153000000Y-118087500D03*
X153000000Y-119912500D03*
%TD*%
D30*
%TO.C,D1*%
X105500000Y-77650000D03*
X105500000Y-74350000D03*
%TD*%
D23*
%TO.C,H4*%
X165000000Y-64000000D03*
%TD*%
D24*
%TO.C,R2*%
X102912500Y-72500000D03*
X101087500Y-72500000D03*
%TD*%
D31*
%TO.C,SW1*%
X94000000Y-76960000D03*
D21*
X94000000Y-74420000D03*
X94000000Y-79500000D03*
%TD*%
D29*
%TO.C,R6*%
X143000000Y-118087500D03*
X143000000Y-119912500D03*
%TD*%
M02*
