%TF.GenerationSoftware,KiCad,Pcbnew,8.0.3*%
%TF.CreationDate,2024-07-15T12:03:27+02:00*%
%TF.ProjectId,nanoComp,6e616e6f-436f-46d7-902e-6b696361645f,A*%
%TF.SameCoordinates,Original*%
%TF.FileFunction,Copper,L1,Top*%
%TF.FilePolarity,Positive*%
%FSLAX46Y46*%
G04 Gerber Fmt 4.6, Leading zero omitted, Abs format (unit mm)*
G04 Created by KiCad (PCBNEW 8.0.3) date 2024-07-15 12:03:27*
%MOMM*%
%LPD*%
G01*
G04 APERTURE LIST*
G04 Aperture macros list*
%AMRoundRect*
0 Rectangle with rounded corners*
0 $1 Rounding radius*
0 $2 $3 $4 $5 $6 $7 $8 $9 X,Y pos of 4 corners*
0 Add a 4 corners polygon primitive as box body*
4,1,4,$2,$3,$4,$5,$6,$7,$8,$9,$2,$3,0*
0 Add four circle primitives for the rounded corners*
1,1,$1+$1,$2,$3*
1,1,$1+$1,$4,$5*
1,1,$1+$1,$6,$7*
1,1,$1+$1,$8,$9*
0 Add four rect primitives between the rounded corners*
20,1,$1+$1,$2,$3,$4,$5,0*
20,1,$1+$1,$4,$5,$6,$7,0*
20,1,$1+$1,$6,$7,$8,$9,0*
20,1,$1+$1,$8,$9,$2,$3,0*%
G04 Aperture macros list end*
%TA.AperFunction,SMDPad,CuDef*%
%ADD10RoundRect,0.175000X0.175000X0.425000X-0.175000X0.425000X-0.175000X-0.425000X0.175000X-0.425000X0*%
%TD*%
%TA.AperFunction,SMDPad,CuDef*%
%ADD11RoundRect,0.190000X-0.190000X-0.410000X0.190000X-0.410000X0.190000X0.410000X-0.190000X0.410000X0*%
%TD*%
%TA.AperFunction,SMDPad,CuDef*%
%ADD12RoundRect,0.200000X-0.200000X-0.400000X0.200000X-0.400000X0.200000X0.400000X-0.200000X0.400000X0*%
%TD*%
%TA.AperFunction,SMDPad,CuDef*%
%ADD13RoundRect,0.175000X-0.175000X-0.425000X0.175000X-0.425000X0.175000X0.425000X-0.175000X0.425000X0*%
%TD*%
%TA.AperFunction,SMDPad,CuDef*%
%ADD14RoundRect,0.190000X0.190000X0.410000X-0.190000X0.410000X-0.190000X-0.410000X0.190000X-0.410000X0*%
%TD*%
%TA.AperFunction,SMDPad,CuDef*%
%ADD15RoundRect,0.200000X0.200000X0.400000X-0.200000X0.400000X-0.200000X-0.400000X0.200000X-0.400000X0*%
%TD*%
%TA.AperFunction,ComponentPad*%
%ADD16O,1.100000X1.700000*%
%TD*%
%TA.AperFunction,ComponentPad*%
%ADD17R,1.700000X1.700000*%
%TD*%
%TA.AperFunction,ComponentPad*%
%ADD18O,1.700000X1.700000*%
%TD*%
%TA.AperFunction,SMDPad,CuDef*%
%ADD19RoundRect,0.250000X-0.337500X-0.475000X0.337500X-0.475000X0.337500X0.475000X-0.337500X0.475000X0*%
%TD*%
%TA.AperFunction,ComponentPad*%
%ADD20R,1.600000X1.500000*%
%TD*%
%TA.AperFunction,ComponentPad*%
%ADD21C,1.600000*%
%TD*%
%TA.AperFunction,ComponentPad*%
%ADD22C,3.000000*%
%TD*%
%TA.AperFunction,ComponentPad*%
%ADD23C,5.700000*%
%TD*%
%TA.AperFunction,SMDPad,CuDef*%
%ADD24RoundRect,0.250000X0.262500X0.450000X-0.262500X0.450000X-0.262500X-0.450000X0.262500X-0.450000X0*%
%TD*%
%TA.AperFunction,ComponentPad*%
%ADD25R,1.500000X2.000000*%
%TD*%
%TA.AperFunction,ComponentPad*%
%ADD26O,1.600000X2.000000*%
%TD*%
%TA.AperFunction,SMDPad,CuDef*%
%ADD27RoundRect,0.250000X0.325000X0.450000X-0.325000X0.450000X-0.325000X-0.450000X0.325000X-0.450000X0*%
%TD*%
%TA.AperFunction,SMDPad,CuDef*%
%ADD28RoundRect,0.250000X0.450000X-0.262500X0.450000X0.262500X-0.450000X0.262500X-0.450000X-0.262500X0*%
%TD*%
%TA.AperFunction,SMDPad,CuDef*%
%ADD29RoundRect,0.250000X-0.450000X0.262500X-0.450000X-0.262500X0.450000X-0.262500X0.450000X0.262500X0*%
%TD*%
%TA.AperFunction,SMDPad,CuDef*%
%ADD30RoundRect,0.225000X0.375000X-0.225000X0.375000X0.225000X-0.375000X0.225000X-0.375000X-0.225000X0*%
%TD*%
%TA.AperFunction,ComponentPad*%
%ADD31R,1.500000X1.500000*%
%TD*%
%TA.AperFunction,ViaPad*%
%ADD32C,0.600000*%
%TD*%
%TA.AperFunction,Conductor*%
%ADD33C,0.500000*%
%TD*%
%TA.AperFunction,Conductor*%
%ADD34C,0.200000*%
%TD*%
%TA.AperFunction,Conductor*%
%ADD35C,0.400000*%
%TD*%
G04 APERTURE END LIST*
D10*
%TO.P,J1,A5,CC1*%
%TO.N,Net-(J1-CC1)*%
X104447427Y-65461348D03*
D11*
%TO.P,J1,A9,VBUS*%
%TO.N,Net-(D1-A)*%
X102427427Y-65461348D03*
D12*
%TO.P,J1,A12,GND*%
%TO.N,GND*%
X101197427Y-65461348D03*
D13*
%TO.P,J1,B5,CC2*%
%TO.N,Net-(J1-CC2)*%
X103447427Y-65461348D03*
D14*
%TO.P,J1,B9,VBUS*%
%TO.N,Net-(D1-A)*%
X105467427Y-65461348D03*
D15*
%TO.P,J1,B12,GND*%
%TO.N,GND*%
X106697427Y-65461348D03*
D16*
%TO.P,J1,S1,SHIELD*%
X108267427Y-65381348D03*
X108267427Y-61581348D03*
X99627427Y-65381348D03*
X99627427Y-61581348D03*
%TD*%
D17*
%TO.P,J5,1,Pin_1*%
%TO.N,/GPIO0*%
X154040000Y-61500000D03*
D18*
%TO.P,J5,2,Pin_2*%
%TO.N,/GPIO1*%
X151500000Y-61500000D03*
%TO.P,J5,3,Pin_3*%
%TO.N,/GPIO2*%
X148960000Y-61500000D03*
%TO.P,J5,4,Pin_4*%
%TO.N,/GPIO3*%
X146420000Y-61500000D03*
%TO.P,J5,5,Pin_5*%
%TO.N,/GPIO4*%
X143880000Y-61500000D03*
%TO.P,J5,6,Pin_6*%
%TO.N,/GPIO5*%
X141340000Y-61500000D03*
%TO.P,J5,7,Pin_7*%
%TO.N,/GPIO6*%
X138800000Y-61500000D03*
%TO.P,J5,8,Pin_8*%
%TO.N,/GPIO7*%
X136260000Y-61500000D03*
%TO.P,J5,9,Pin_9*%
%TO.N,/GPIO8*%
X133720000Y-61500000D03*
%TO.P,J5,10,Pin_10*%
%TO.N,/GPIO9*%
X131180000Y-61500000D03*
%TO.P,J5,11,Pin_11*%
%TO.N,/GPIO10*%
X128640000Y-61500000D03*
%TO.P,J5,12,Pin_12*%
%TO.N,/GPIO11*%
X126100000Y-61500000D03*
%TO.P,J5,13,Pin_13*%
%TO.N,/GPIO12*%
X123560000Y-61500000D03*
%TO.P,J5,14,Pin_14*%
%TO.N,GND*%
X121020000Y-61500000D03*
%TD*%
D17*
%TO.P,J6,1,Pin_1*%
%TO.N,VCC*%
X167000000Y-72960000D03*
D18*
%TO.P,J6,2,Pin_2*%
%TO.N,GND*%
X167000000Y-75500000D03*
%TO.P,J6,3,Pin_3*%
%TO.N,3V3*%
X167000000Y-78040000D03*
%TO.P,J6,4,Pin_4*%
%TO.N,GND*%
X167000000Y-80580000D03*
%TD*%
D19*
%TO.P,C1,1*%
%TO.N,Net-(D1-K)*%
X105462500Y-80250000D03*
%TO.P,C1,2*%
%TO.N,GND*%
X107537500Y-80250000D03*
%TD*%
D20*
%TO.P,J3,1,VBUS*%
%TO.N,VCC*%
X120000000Y-119700000D03*
D21*
%TO.P,J3,2,D-*%
%TO.N,/USB_B_D-*%
X122500000Y-119700000D03*
%TO.P,J3,3,D+*%
%TO.N,/USB_B_D+*%
X124500000Y-119700000D03*
%TO.P,J3,4,GND*%
%TO.N,GND*%
X127000000Y-119700000D03*
D22*
%TO.P,J3,5,Shield*%
X116930000Y-122410000D03*
X130070000Y-122410000D03*
%TD*%
D23*
%TO.P,H2,1,1*%
%TO.N,GND*%
X85000000Y-124000000D03*
%TD*%
D20*
%TO.P,J2,1,VBUS*%
%TO.N,VCC*%
X98000000Y-119700000D03*
D21*
%TO.P,J2,2,D-*%
%TO.N,/USB_A_D-*%
X100500000Y-119700000D03*
%TO.P,J2,3,D+*%
%TO.N,/USB_A_D+*%
X102500000Y-119700000D03*
%TO.P,J2,4,GND*%
%TO.N,GND*%
X105000000Y-119700000D03*
D22*
%TO.P,J2,5,Shield*%
X94930000Y-122410000D03*
X108070000Y-122410000D03*
%TD*%
D17*
%TO.P,J4,1,Pin_1*%
%TO.N,GND*%
X140000000Y-126000000D03*
D18*
%TO.P,J4,2,Pin_2*%
%TO.N,/CTS#*%
X142540000Y-126000000D03*
%TO.P,J4,3,Pin_3*%
%TO.N,Net-(J4-Pin_3)*%
X145080000Y-126000000D03*
%TO.P,J4,4,Pin_4*%
%TO.N,/TXD*%
X147620000Y-126000000D03*
%TO.P,J4,5,Pin_5*%
%TO.N,/RXD*%
X150160000Y-126000000D03*
%TO.P,J4,6,Pin_6*%
%TO.N,/RTS#*%
X152700000Y-126000000D03*
%TD*%
D24*
%TO.P,R1,1*%
%TO.N,Net-(J1-CC2)*%
X103000000Y-69500000D03*
%TO.P,R1,2*%
%TO.N,GND*%
X101175000Y-69500000D03*
%TD*%
%TO.P,R3,1*%
%TO.N,VCC*%
X93912500Y-88500000D03*
%TO.P,R3,2*%
%TO.N,Net-(D2-A)*%
X92087500Y-88500000D03*
%TD*%
D23*
%TO.P,H1,1,1*%
%TO.N,GND*%
X85000000Y-64000000D03*
%TD*%
%TO.P,H3,1,1*%
%TO.N,GND*%
X165000000Y-124000000D03*
%TD*%
D25*
%TO.P,U1,1,IOT40A*%
%TO.N,/USB_A_D-*%
X115220000Y-106820000D03*
D26*
%TO.P,U1,2,IOT34B*%
%TO.N,/USB_A_D+*%
X117760000Y-106820000D03*
%TO.P,U1,3,IOT34A*%
%TO.N,/GPIO3*%
X120300000Y-106820000D03*
%TO.P,U1,4,IOT4B*%
%TO.N,unconnected-(U1-IOT4B-Pad4)*%
X122840000Y-106820000D03*
%TO.P,U1,5,IOT30A*%
%TO.N,unconnected-(U1-IOT30A-Pad5)*%
X125380000Y-106820000D03*
%TO.P,U1,6,IOL47A*%
%TO.N,unconnected-(U1-IOL47A-Pad6)*%
X127920000Y-106820000D03*
%TO.P,U1,7,IOL47B*%
%TO.N,unconnected-(U1-IOL47B-Pad7)*%
X130460000Y-106820000D03*
%TO.P,U1,8,IOB8A*%
%TO.N,/USB_B_D-*%
X133000000Y-106820000D03*
%TO.P,U1,9,IOB8B*%
%TO.N,/USB_B_D+*%
X135540000Y-106820000D03*
%TO.P,U1,10,IOB6A*%
%TO.N,/TXD*%
X138080000Y-106820000D03*
%TO.P,U1,11,IOB6B*%
%TO.N,/RXD*%
X140620000Y-106820000D03*
%TO.P,U1,12,IOB14A*%
%TO.N,/GPIO0*%
X143160000Y-106820000D03*
%TO.P,U1,13,IOB14B*%
%TO.N,/GPIO1*%
X145700000Y-106820000D03*
%TO.P,U1,14,IOB29A*%
%TO.N,/GPIO2*%
X148240000Y-106820000D03*
%TO.P,U1,15,IOL49A*%
%TO.N,unconnected-(U1-IOL49A-Pad15)*%
X150780000Y-106820000D03*
%TO.P,U1,16,IOL51B*%
%TO.N,unconnected-(U1-IOL51B-Pad16)*%
X153320000Y-106820000D03*
%TO.P,U1,17,IOL51A*%
%TO.N,unconnected-(U1-IOL51A-Pad17)*%
X155860000Y-106820000D03*
%TO.P,U1,18,IOL49B*%
%TO.N,unconnected-(U1-IOL49B-Pad18)*%
X158400000Y-106820000D03*
%TO.P,U1,19,3V3*%
%TO.N,3V3*%
X160940000Y-106820000D03*
%TO.P,U1,20,GND*%
%TO.N,GND*%
X163480000Y-106820000D03*
%TO.P,U1,21,IOR39A*%
%TO.N,/GPIO4*%
X163480000Y-86500000D03*
%TO.P,U1,22,IOR38B*%
%TO.N,/GPIO5*%
X160940000Y-86500000D03*
%TO.P,U1,23,IOT44A*%
%TO.N,/GPIO6*%
X158400000Y-86500000D03*
%TO.P,U1,24,IOT40B*%
%TO.N,/GPIO7*%
X155860000Y-86500000D03*
%TO.P,U1,25,3V3*%
%TO.N,3V3*%
X153320000Y-86500000D03*
%TO.P,U1,26,GND*%
%TO.N,GND*%
X150780000Y-86500000D03*
%TO.P,U1,27,IOT27B*%
%TO.N,unconnected-(U1-IOT27B-Pad27)*%
X148240000Y-86500000D03*
%TO.P,U1,28,IOT4A*%
%TO.N,/GPIO8*%
X145700000Y-86500000D03*
%TO.P,U1,29,IOR49A*%
%TO.N,/GPIO9*%
X143160000Y-86500000D03*
%TO.P,U1,30,IOR36B*%
%TO.N,unconnected-(U1-IOR36B-Pad30)*%
X140620000Y-86500000D03*
%TO.P,U1,31,IOR49B*%
%TO.N,/GPIO10*%
X138080000Y-86500000D03*
%TO.P,U1,32,IOR45A*%
%TO.N,unconnected-(U1-IOR45A-Pad32)*%
X135540000Y-86500000D03*
%TO.P,U1,33,IOR38A*%
%TO.N,unconnected-(U1-IOR38A-Pad33)*%
X133000000Y-86500000D03*
%TO.P,U1,34,IOR36A*%
%TO.N,unconnected-(U1-IOR36A-Pad34)*%
X130460000Y-86500000D03*
%TO.P,U1,35,IOB43A*%
%TO.N,/GPIO11*%
X127920000Y-86500000D03*
%TO.P,U1,36,IOB42B*%
%TO.N,/GPIO12*%
X125380000Y-86500000D03*
%TO.P,U1,37,IOT27A*%
%TO.N,unconnected-(U1-IOT27A-Pad37)*%
X122840000Y-86500000D03*
%TO.P,U1,38,IOT30B*%
%TO.N,unconnected-(U1-IOT30B-Pad38)*%
X120300000Y-86500000D03*
%TO.P,U1,39,GND*%
%TO.N,GND*%
X117760000Y-86500000D03*
%TO.P,U1,40,5V*%
%TO.N,VCC*%
X115220000Y-86500000D03*
%TD*%
D27*
%TO.P,D2,1,K*%
%TO.N,GND*%
X94050000Y-92000000D03*
%TO.P,D2,2,A*%
%TO.N,Net-(D2-A)*%
X92000000Y-92000000D03*
%TD*%
D28*
%TO.P,R4,1*%
%TO.N,Net-(J4-Pin_3)*%
X145500000Y-119912500D03*
%TO.P,R4,2*%
%TO.N,VCC*%
X145500000Y-118087500D03*
%TD*%
D29*
%TO.P,R5,1*%
%TO.N,GND*%
X153000000Y-118087500D03*
%TO.P,R5,2*%
%TO.N,/RTS#*%
X153000000Y-119912500D03*
%TD*%
D30*
%TO.P,D1,1,K*%
%TO.N,Net-(D1-K)*%
X105500000Y-77650000D03*
%TO.P,D1,2,A*%
%TO.N,Net-(D1-A)*%
X105500000Y-74350000D03*
%TD*%
D23*
%TO.P,H4,1,1*%
%TO.N,GND*%
X165000000Y-64000000D03*
%TD*%
D24*
%TO.P,R2,1*%
%TO.N,Net-(J1-CC1)*%
X102912500Y-72500000D03*
%TO.P,R2,2*%
%TO.N,GND*%
X101087500Y-72500000D03*
%TD*%
D31*
%TO.P,SW1,1,B*%
%TO.N,Net-(D1-K)*%
X94000000Y-76960000D03*
D21*
%TO.P,SW1,2,C*%
%TO.N,unconnected-(SW1-C-Pad2)*%
X94000000Y-74420000D03*
%TO.P,SW1,3,A*%
%TO.N,VCC*%
X94000000Y-79500000D03*
%TD*%
D29*
%TO.P,R6,1*%
%TO.N,GND*%
X143000000Y-118087500D03*
%TO.P,R6,2*%
%TO.N,/CTS#*%
X143000000Y-119912500D03*
%TD*%
D32*
%TO.N,GND*%
X101197427Y-67302573D03*
X155000000Y-118000000D03*
X140000000Y-118000000D03*
X107500000Y-82500000D03*
X94000000Y-94000000D03*
X106697427Y-67197427D03*
%TO.N,Net-(D1-A)*%
X105500000Y-67500000D03*
X102500000Y-67500000D03*
%TO.N,VCC*%
X146500000Y-67000000D03*
%TO.N,/GPIO0*%
X152000000Y-78000000D03*
%TO.N,/GPIO1*%
X150500000Y-79000000D03*
%TO.N,/GPIO3*%
X142000000Y-80500000D03*
%TO.N,/GPIO2*%
X152000000Y-80000000D03*
%TD*%
D33*
%TO.N,Net-(D1-K)*%
X105500000Y-77750000D02*
X98750000Y-77750000D01*
D34*
X105500000Y-77750000D02*
X105500000Y-77500000D01*
D35*
X105462500Y-78537500D02*
X105462500Y-80250000D01*
D33*
X98750000Y-77750000D02*
X97960000Y-76960000D01*
D35*
X105500000Y-77750000D02*
X105500000Y-78500000D01*
D33*
X97960000Y-76960000D02*
X94000000Y-76960000D01*
D34*
X105500000Y-78500000D02*
X105462500Y-78537500D01*
%TO.N,GND*%
X153000000Y-118087500D02*
X154912500Y-118087500D01*
X140087500Y-118087500D02*
X140000000Y-118000000D01*
X107537500Y-82462500D02*
X107500000Y-82500000D01*
D33*
X106697427Y-67197427D02*
X106697427Y-65461348D01*
D34*
X101175000Y-67325000D02*
X101197427Y-67302573D01*
D33*
X101197427Y-67302573D02*
X101197427Y-65461348D01*
D34*
X94050000Y-93950000D02*
X94000000Y-94000000D01*
X101175000Y-69500000D02*
X101175000Y-67325000D01*
X101087500Y-69587500D02*
X101175000Y-69500000D01*
X154912500Y-118087500D02*
X155000000Y-118000000D01*
D33*
X107537500Y-80250000D02*
X107537500Y-82462500D01*
D34*
X101087500Y-72500000D02*
X101087500Y-69587500D01*
X143000000Y-118087500D02*
X140087500Y-118087500D01*
X94050000Y-92000000D02*
X94050000Y-93950000D01*
D35*
%TO.N,Net-(D1-A)*%
X102427427Y-65461348D02*
X102427427Y-67427427D01*
D34*
X102427427Y-67427427D02*
X102500000Y-67500000D01*
D33*
X105467427Y-74317427D02*
X105500000Y-74350000D01*
X105467427Y-65461348D02*
X105467427Y-74317427D01*
D34*
%TO.N,Net-(D2-A)*%
X92000000Y-88500000D02*
X92000000Y-92000000D01*
X92087500Y-88500000D02*
X92000000Y-88500000D01*
D33*
%TO.N,VCC*%
X120000000Y-115500000D02*
X119000000Y-114500000D01*
D34*
X94000000Y-80000000D02*
X93912500Y-80087500D01*
D33*
X145500000Y-118087500D02*
X145500000Y-116000000D01*
X145500000Y-116000000D02*
X145000000Y-115500000D01*
X97500000Y-88500000D02*
X93912500Y-88500000D01*
X115220000Y-86500000D02*
X99500000Y-86500000D01*
X120000000Y-119140000D02*
X120000000Y-115500000D01*
D34*
X98000000Y-117000000D02*
X98000000Y-119140000D01*
D33*
X162460000Y-72960000D02*
X167000000Y-72960000D01*
X145000000Y-115500000D02*
X120000000Y-115500000D01*
D34*
X94000000Y-79500000D02*
X94000000Y-80000000D01*
D33*
X146500000Y-67000000D02*
X156500000Y-67000000D01*
X119000000Y-114500000D02*
X100500000Y-114500000D01*
X156500000Y-67000000D02*
X162460000Y-72960000D01*
X100500000Y-114500000D02*
X98000000Y-117000000D01*
X93912500Y-80087500D02*
X93912500Y-88500000D01*
X99500000Y-86500000D02*
X97500000Y-88500000D01*
X98000000Y-119140000D02*
X98000000Y-92587500D01*
X98000000Y-92587500D02*
X93912500Y-88500000D01*
D34*
%TO.N,Net-(J1-CC2)*%
X103447427Y-69052573D02*
X103000000Y-69500000D01*
X103447427Y-65461348D02*
X103447427Y-69052573D01*
%TO.N,Net-(J1-CC1)*%
X104447427Y-65461348D02*
X104447427Y-70965073D01*
X104447427Y-70965073D02*
X102912500Y-72500000D01*
%TO.N,/RTS#*%
X153000000Y-121500000D02*
X153000000Y-119912500D01*
X152700000Y-126000000D02*
X152700000Y-121800000D01*
X152700000Y-121800000D02*
X153000000Y-121500000D01*
%TO.N,/RXD*%
X147500000Y-111500000D02*
X150160000Y-114160000D01*
X140620000Y-106820000D02*
X140620000Y-108620000D01*
X143500000Y-111500000D02*
X147500000Y-111500000D01*
X140620000Y-108620000D02*
X143500000Y-111500000D01*
X150160000Y-114160000D02*
X150160000Y-126000000D01*
%TO.N,/TXD*%
X147620000Y-115620000D02*
X145000000Y-113000000D01*
X138080000Y-110080000D02*
X138080000Y-106820000D01*
X147620000Y-126000000D02*
X147620000Y-115620000D01*
X145000000Y-113000000D02*
X141000000Y-113000000D01*
X141000000Y-113000000D02*
X138080000Y-110080000D01*
%TO.N,/CTS#*%
X142540000Y-126000000D02*
X142540000Y-121960000D01*
X142540000Y-121960000D02*
X143000000Y-121500000D01*
X143000000Y-121500000D02*
X143000000Y-119912500D01*
D33*
%TO.N,Net-(J4-Pin_3)*%
X145080000Y-122420000D02*
X145500000Y-122000000D01*
X145500000Y-122000000D02*
X145500000Y-119912500D01*
X145080000Y-126000000D02*
X145080000Y-122420000D01*
D34*
%TO.N,/GPIO8*%
X145700000Y-81200000D02*
X145700000Y-86500000D01*
X133720000Y-69220000D02*
X145700000Y-81200000D01*
X133720000Y-61500000D02*
X133720000Y-69220000D01*
%TO.N,/GPIO4*%
X163480000Y-76980000D02*
X155500000Y-69000000D01*
X143880000Y-68130000D02*
X143880000Y-61500000D01*
X144750000Y-69000000D02*
X143880000Y-68130000D01*
X163480000Y-86500000D02*
X163480000Y-76980000D01*
X155500000Y-69000000D02*
X144750000Y-69000000D01*
%TO.N,/GPIO9*%
X143160000Y-79660000D02*
X143160000Y-86500000D01*
X131180000Y-67680000D02*
X143160000Y-79660000D01*
X131180000Y-61500000D02*
X131180000Y-67680000D01*
%TO.N,/GPIO12*%
X125380000Y-70880000D02*
X123500000Y-69000000D01*
X123560000Y-67940000D02*
X123560000Y-61500000D01*
X123500000Y-69000000D02*
X123500000Y-68000000D01*
X125380000Y-86500000D02*
X125380000Y-70880000D01*
X123500000Y-68000000D02*
X123560000Y-67940000D01*
%TO.N,/GPIO0*%
X143160000Y-106820000D02*
X143160000Y-93840000D01*
X147000000Y-90000000D02*
X147000000Y-84000000D01*
X146500000Y-90500000D02*
X147000000Y-90000000D01*
X147000000Y-79000000D02*
X148000000Y-78000000D01*
X147000000Y-84000000D02*
X147000000Y-79000000D01*
X143160000Y-93840000D02*
X146500000Y-90500000D01*
X148000000Y-78000000D02*
X152000000Y-78000000D01*
%TO.N,/GPIO5*%
X141340000Y-61500000D02*
X141340000Y-67340000D01*
X160940000Y-76940000D02*
X160940000Y-86500000D01*
X154500000Y-70500000D02*
X160940000Y-76940000D01*
X144500000Y-70500000D02*
X154500000Y-70500000D01*
X141340000Y-67340000D02*
X144500000Y-70500000D01*
%TO.N,/GPIO7*%
X153500000Y-74000000D02*
X155860000Y-76360000D01*
X136260000Y-67760000D02*
X142500000Y-74000000D01*
X142500000Y-74000000D02*
X153500000Y-74000000D01*
X136260000Y-61500000D02*
X136260000Y-67760000D01*
X155860000Y-76360000D02*
X155860000Y-86500000D01*
%TO.N,/GPIO1*%
X149500000Y-84000000D02*
X150500000Y-83000000D01*
X145700000Y-106820000D02*
X145700000Y-94300000D01*
X150500000Y-83000000D02*
X150500000Y-79000000D01*
X145700000Y-94300000D02*
X149500000Y-90500000D01*
X149500000Y-90500000D02*
X149500000Y-84000000D01*
%TO.N,/GPIO10*%
X138080000Y-78080000D02*
X138080000Y-86500000D01*
X128640000Y-68640000D02*
X138080000Y-78080000D01*
X128640000Y-61500000D02*
X128640000Y-68640000D01*
%TO.N,/GPIO3*%
X135120000Y-92000000D02*
X138500000Y-92000000D01*
X120300000Y-106820000D02*
X135120000Y-92000000D01*
X138500000Y-92000000D02*
X142000000Y-88500000D01*
X142000000Y-88500000D02*
X142000000Y-80500000D01*
%TO.N,/GPIO2*%
X152000000Y-96000000D02*
X152000000Y-80000000D01*
X148240000Y-99760000D02*
X152000000Y-96000000D01*
X148240000Y-106820000D02*
X148240000Y-99760000D01*
%TO.N,/GPIO11*%
X127920000Y-71080000D02*
X127920000Y-86500000D01*
X126100000Y-61500000D02*
X126100000Y-69100000D01*
X128000000Y-71000000D02*
X127920000Y-71080000D01*
X126100000Y-69100000D02*
X128000000Y-71000000D01*
%TO.N,/GPIO6*%
X138800000Y-67300000D02*
X138800000Y-61500000D01*
X158400000Y-76400000D02*
X154500000Y-72500000D01*
X154500000Y-72500000D02*
X144000000Y-72500000D01*
X144000000Y-72500000D02*
X138800000Y-67300000D01*
X158400000Y-86500000D02*
X158400000Y-76400000D01*
D33*
%TO.N,3V3*%
X160940000Y-106820000D02*
X160940000Y-101940000D01*
X153320000Y-94320000D02*
X153320000Y-86500000D01*
X160940000Y-101940000D02*
X153320000Y-94320000D01*
%TD*%
M02*
